<svg xmlns="http://www.w3.org/2000/svg" xmlns:xlink="http://www.w3.org/1999/xlink" version="1.1" x="0px" y="0px" viewBox="0 0 1200 1200" enable-background="new 0 0 1200 1200" xml:space="preserve">
<g id="Layer_1">
</g>
<g id="Layer_2">
	<path fill="#C2E5FF" d="M146.772,798.856c95.758,220.646,388.211,271.145,585.068,221.508   c38.65-9.746,313.182-83.972,373.192-344.3c42.127-182.75-41.495-370.318-182.984-469.499   c-198.032-138.816-456.034-67.063-604.33,57.785C183.517,377.33,60.482,600.027,146.772,798.856z"/>
	<g>
		<defs>
			<path id="SVGID_1_" d="M146.772,798.856c95.758,220.646,388.211,271.145,585.068,221.508     c38.65-9.746,313.182-83.972,373.192-344.3c42.127-182.75-41.495-370.318-182.984-469.499     c-198.032-138.816-456.034-67.063-604.33,57.785C183.517,377.33,60.482,600.027,146.772,798.856z"/>
		</defs>
		<clipPath id="SVGID_2_">
			<use xlink:href="#SVGID_1_" overflow="visible"/>
		</clipPath>
		<path clip-path="url(#SVGID_2_)" fill="#FFFFFF" d="M546.454,344.163c-1.067,0-2.122,0.052-3.182,0.081    c-12.249-51.803-58.759-90.363-114.305-90.363c-38.451,0-72.585,18.475-94.018,47.029c-17.393-7.032-36.398-10.913-56.312-10.913    c-83.025,0-150.33,67.305-150.33,150.33c0,83.025,67.305,150.33,150.33,150.33c21.268,0,41.5-4.426,59.838-12.392    c18.731,20.392,45.61,33.182,75.482,33.182c34.429,0,64.87-16.997,83.452-43.038c14.931,6.871,31.533,10.731,49.047,10.731    c64.887,0,117.488-52.601,117.488-117.488S611.341,344.163,546.454,344.163z"/>
		<path clip-path="url(#SVGID_2_)" fill="#FFFFFF" d="M793.769,524.272c0.844,0,1.677-0.041,2.515-0.064    c9.68,40.94,46.437,71.413,90.334,71.413c30.388,0,57.363-14.6,74.302-37.166c13.746,5.558,28.765,8.625,44.503,8.625    c65.614,0,118.804-53.19,118.804-118.804c0-65.614-53.19-118.804-118.804-118.804c-16.808,0-32.797,3.498-47.289,9.794    c-14.803-16.116-36.045-26.223-59.652-26.223c-27.209,0-51.266,13.432-65.951,34.012c-11.799-5.43-24.92-8.481-38.761-8.481    c-51.279,0-92.849,41.57-92.849,92.849S742.49,524.272,793.769,524.272z"/>
		<path clip-path="url(#SVGID_2_)" fill="#FFBE55" d="M160.698,989.064c0,0,190.396-485.234,288.239-511.38    c87.228-23.31,321.643,321.643,321.643,321.643s99.706-150.797,168.59-212.912c16.552-14.925,42.395-12.14,55.463,5.914    c43.115,59.567,141.604,205.177,223.56,396.736H160.698z"/>
		<path opacity="0.25" clip-path="url(#SVGID_2_)" fill="#282828" d="M160.698,989.064c0,0,190.396-485.234,288.239-511.38    c87.228-23.31,321.643,321.643,321.643,321.643s99.706-150.797,168.59-212.912c16.552-14.925,42.395-12.14,55.463,5.914    c43.115,59.567,141.604,205.177,223.56,396.736H160.698z"/>
		<polygon clip-path="url(#SVGID_2_)" fill="#FFBE55" points="375.85,815.778 304.476,1046.946 389.949,1046.946   "/>
		<path clip-path="url(#SVGID_2_)" fill="#FFBE55" d="M1171.907,1046.946c-55.032-42.991-101.936-78.175-136.692-103.837    c-125.071-92.346-300.347-214.604-436.25-224.663c-18.786-1.39-34.315-0.451-37.693-0.233    c-34.495,2.226-116.356,7.508-166.508,68.605c-81.751,99.592-7.955,253.512-4.815,260.128H1171.907z"/>
		<path opacity="0.5" clip-path="url(#SVGID_2_)" fill="#FFFFFF" d="M1171.907,1046.946    c-55.032-42.991-101.936-78.175-136.692-103.837c-125.071-92.346-300.347-214.604-436.25-224.663    c-18.786-1.39-34.315-0.451-37.693-0.233c-34.495,2.226-116.356,7.508-166.508,68.605c-81.751,99.592-7.955,253.512-4.815,260.128    H1171.907z"/>
		<polygon opacity="0.5" clip-path="url(#SVGID_2_)" fill="#0B4870" points="478.016,867.092 649.813,1046.946 749.497,1046.946     524.841,867.092   "/>
		<polygon opacity="0.5" clip-path="url(#SVGID_2_)" fill="#0B4870" points="607.754,867.092 843.088,1046.946 942.771,1046.946     654.579,867.092   "/>
		<path opacity="0.5" clip-path="url(#SVGID_2_)" fill="#0B4870" d="M649.813,766.986l301.93,222.078c0,0,80.371-19.262,144.92,0    L662.486,766.986H649.813z"/>
		<path clip-path="url(#SVGID_2_)" fill="#0B4870" d="M649.813,766.986V321.532h12.672v445.454c-0.114,0.165-2.628,3.685-6.889,3.38    C652.008,770.108,650.056,767.342,649.813,766.986z"/>
		<g clip-path="url(#SVGID_2_)">
			<path fill="#0B4870" d="M577.431,488.581c1.613-2.263,4.011-5.86,6.422-10.548c4.485-8.721,11.395-22.158,5.977-30.381     c-0.844-1.281-2.455-3.146-5.713-4.624c-0.234,0.73-0.597,1.858-1.045,3.233c-6.733,20.664-9.31,25.199-8.576,32.464     C574.736,481.093,575.405,484.525,577.431,488.581z"/>
			<path fill="#EFB68F" d="M576.249,479.407c-4.346,15.575-25.318,16.349-25.318,16.349"/>
			<path fill="#EFB68F" d="M553.303,502.944c0,0-25.777,8.799-31.095,12.183c0,0,35.147,37.055,86.533-1.299     c-4.09-2.528-4.82-2.627-10.365-5.051c-7.155-3.128-17.257-7.346-22.939-8.702L553.303,502.944z"/>
			<polygon fill="#EFB68F" points="552.188,495.66 553.824,506.347 576.249,505.463 579.79,477.684 574.416,477.684    "/>
			<path fill="#EFB68F" d="M585.445,471.211c-0.89,2.763-2.917,5.083-5.656,6.472c-7.772,3.86-9.578-6.01-6.222-10.501     C577.561,461.83,587.816,463.791,585.445,471.211z"/>
			<path fill="#FFBE55" d="M548.987,504.929c0,0,13.675,16.986,34.109-2.406c3.378,0.277,7.013,2.164,11.473,3.419     c5.869,1.651,10.625,3.911,14.172,5.936l-2.7,123.105h-76.357l-8.208-119.432c3.098-1.725,6.729-4.628,10.881-6.207     C538.557,506.987,544.251,505.674,548.987,504.929z"/>
			<path fill="#0B4870" d="M610.842,674.165c-5.577,8.242-11.239,10.833-14.788,11.794c-1.095,0.297-4.592,0.384-11.579,0.687     c-5.383,0.233-10.985,0.356-16.88,0.343c-3.409-0.008-6.755-0.061-10.036-0.154c-10.384-0.295-15.577-0.386-17.596-0.905     c-3.72-0.956-10.255-3.826-16.541-14.388c2.021-12.186,4.042-24.373,6.062-36.559h76.507     C607.608,648.044,609.225,661.104,610.842,674.165z"/>
			<g>
				<polygon fill="#FFBE55" points="628.776,853.359 622.716,815.778 607.754,817.814 613.781,855.352     "/>
			</g>
			<g>
				<path fill="#0B4870" d="M611.401,852.215l-2.66,11.784h46.825v-0.344c0-2.714-1.561-5.186-4.011-6.353l-21.731-8.671      c-0.782-0.372-1.786-0.356-2.382,0.272c-2.808,2.964-5.893,7.792-14.466,2.554C612.354,851.078,611.539,851.5,611.401,852.215z"/>
				<rect x="608.741" y="863.999" fill="#FFBE55" width="46.825" height="3.092"/>
			</g>
			<path fill="#0B4870" d="M588.193,747.445l30.463-4.026l-8.384-74.306c-1.173-10.392-10.646-17.798-21.015-16.428h0     c-2.899,0.98-7.937,3.106-12.769,7.681c-5.432,5.144-7.855,10.782-8.894,13.743C574.461,698.554,581.327,722.999,588.193,747.445     z"/>
			<path fill="#0B4870" d="M604.533,838.641l25.632-3.388l-14.256-117.374c-1.112-9.117-9.45-15.575-18.556-14.371h0     c-9.237,1.221-15.636,9.837-14.134,19.033L604.533,838.641z"/>
			<g>
				<polygon fill="#FFBE55" points="505.845,853.359 511.904,815.778 526.866,817.814 520.839,855.352     "/>
			</g>
			<path fill="#0B4870" d="M545.753,747.445l-29.788-4.026l7.709-74.306c1.173-10.392,10.646-17.798,21.014-16.428h0     c0.578,0.076,2.615,0.376,5.085,1.466c0,0,4.703,2.102,7.683,6.215c3.297,4.551,3.419,10.128,3.09,14.577     C559.744,685.783,554.589,712.467,545.753,747.445z"/>
			<path fill="#0B4870" d="M530.088,838.641l-25.632-3.388l14.256-117.374c1.112-9.117,9.45-15.575,18.556-14.371h0     c9.237,1.221,15.636,9.837,14.134,19.033L530.088,838.641z"/>
			<g>
				<path fill="#EFB68F" d="M601.279,628.124c2.105-0.7,3.295-0.236,3.295-0.236l0,0c1.198-1.683,3.414-1.897,4.853-0.468      l1.019,1.012c1.331,1.322,1.506,3.575,0.399,5.133l-0.064,0.09c0,0-1.962,5.279-6.403,10.042      c-5.738,6.153-10.976,6.032-12.549,3.898c-1.486-2.016,4.943-9.65,7.299-12.516l-3.639,1.172      c-0.462,0.149-0.957-0.055-1.222-0.503c-0.285-0.482-0.232-1.121,0.129-1.535l2.856-3.283      C598.372,629.643,599.741,628.636,601.279,628.124z"/>
				<path fill="#EFB68F" d="M606.21,626.642l29.758-50.171c2.603-4.322,8.018-5.085,11.499-1.621l0,0      c3.144,3.129,3.455,8.502,0.696,12.057l-36.62,44.803L606.21,626.642z"/>
			</g>
			<path fill="#EFB68F" d="M615.069,520.089c7.422,10.013,17.506,20.516,32.266,48.101c1.563,2.922,4.435,8.457,2.964,13.95     c-0.682,2.549-2.093,4.315-3.18,5.406c-1.515-0.221-3.897-0.789-6.483-2.407c-3.298-2.064-5.269-4.8-6.231-6.346     c-13.376-16.131-26.752-32.263-40.128-48.394c-3.691-4.802-3.154-12.037,1.173-15.807     C599.478,511.084,611.704,515.55,615.069,520.089z"/>
			<path fill="#FFBE55" d="M585.511,504.103c4.976,0.614,10.99,1.945,17.373,4.762c19.441,8.578,28.912,25.014,32.26,31.655     c-5.883,7.456-11.767,14.912-17.65,22.369c-2.84-2.45-6.881-6.145-11.341-11.017c-7.335-8.013-13.702-14.969-17.52-25.339     C586.974,522.025,584.883,514.392,585.511,504.103z"/>
			<g>
				<path fill="#EFB68F" d="M533.623,628.124c-2.093-0.7-3.276-0.236-3.276-0.236l0,0c-1.191-1.683-3.395-1.897-4.825-0.468      l-1.013,1.012c-1.323,1.322-1.497,3.575-0.397,5.133l0.063,0.09c0,0,1.951,5.279,6.366,10.042      c5.705,6.153,10.913,6.032,12.476,3.898c1.477-2.016-4.915-9.65-7.256-12.516l3.618,1.172c0.459,0.149,0.951-0.055,1.215-0.503      c0.283-0.482,0.23-1.121-0.128-1.535l-2.84-3.283C536.514,629.643,535.153,628.636,533.623,628.124z"/>
				<path fill="#EFB68F" d="M528.721,626.642l-29.585-50.171c-2.587-4.322-7.972-5.085-11.433-1.621l0,0      c-3.126,3.129-3.435,8.502-0.692,12.057l36.408,44.803L528.721,626.642z"/>
			</g>
			<path fill="#EFB68F" d="M519.914,520.089c-7.379,10.013-17.405,20.516-32.079,48.101c-1.554,2.922-4.409,8.457-2.947,13.95     c0.679,2.549,2.081,4.315,3.162,5.406c1.506-0.221,3.875-0.789,6.445-2.407c3.279-2.064,5.238-4.8,6.195-6.346     c13.298-16.131,26.597-32.263,39.896-48.394c3.67-4.802,3.136-12.037-1.167-15.807     C535.414,511.083,523.259,515.55,519.914,520.089z"/>
			<path fill="#FFBE55" d="M549.336,504.103c-4.947,0.603-10.97,1.926-17.373,4.762c-18.944,8.391-28.245,24.281-31.57,30.779     c5.984,8.505,11.967,17.009,17.951,25.514c2.49-2.289,6.085-5.781,10.045-10.369c6.428-7.448,13.695-15.869,17.826-28.256     C547.788,521.81,549.693,514.154,549.336,504.103z"/>
			<g>
				<path fill="#0B4870" d="M522.181,852.215l2.66,11.784h-46.825v-0.344c0-2.714,1.561-5.186,4.011-6.353l21.731-8.671      c0.782-0.372,1.786-0.356,2.382,0.272c2.808,2.964,5.892,7.792,14.466,2.554C521.228,851.078,522.043,851.5,522.181,852.215z"/>
				
					<rect x="478.016" y="863.999" transform="matrix(-1 -4.490687e-11 4.490687e-11 -1 1002.8575 1731.0909)" fill="#FFBE55" width="46.825" height="3.092"/>
			</g>
			<path fill="#E0A882" d="M552.188,495.66c0.862,1.249,2.122,2.564,3.891,3.038c5.558,1.491,11.898-6.442,14.446-9.631     c2.706-3.386,4.505-6.767,5.723-9.66C575.035,481.371,573.438,483.529,552.188,495.66z"/>
			<path fill="#EFB68F" d="M579.509,443.015c-8.389-10.267-27.059-12.114-36.327-4.021c-4.206,3.672-5.342,8.402-7.018,15.379     c-0.512,2.133-4.116,18.114,3.851,32.834c3.083,5.697,5.762,7.255,7.631,7.908c3.768,1.315,7.363-0.019,10.681-1.17     c6.724-2.333,10.838-6.582,12.344-8.173C577.868,478.17,590.542,456.519,579.509,443.015z"/>
			<path fill="#0B4870" d="M568.227,449.03c0,0,12.383,4.812,6.728,20.637l4.214,0.572c0,0,0.904-6.265,6.407-5.324     c0,0,4.455-22.007-6.772-27.359L568.227,449.03z"/>
			<path fill="#0B4870" d="M568.227,449.03c0,0-14.496-9.799-26.472-3.872c-1.308-0.315-4.312-1.242-6.531-4.009     c-2.955-3.684-3.307-9.121-0.964-13.937c0,0,2.238,0.886,5.155,1.573c4.118,0.97,7.367,0.527,9.227,0.378     c4.032-0.323,11.549-0.924,16.853,0.205c3.493,0.744,8.224,2.706,13.309,8.188c3.103,2.905,3.344,7.757,0.665,10.866     C576.665,451.676,571.527,452.019,568.227,449.03z"/>
			<path fill="#0B4870" d="M541.755,445.159c0,0-4.006,5.229-6.349,16.351c0,0,1.052-17.364,5.006-18.242     C544.365,442.39,541.755,445.159,541.755,445.159z"/>
		</g>
		<path clip-path="url(#SVGID_2_)" fill="#FFBE55" d="M871.754,426.973c-14.907-2.755-37.704-5.52-65.008-2.646    c-39.276,4.134-54.799,16.453-88.257,17.693c-16.906,0.626-41.536-1.46-72.02-15.046c0-42.415,0-84.829,0-127.244    c20.384,10.953,46.847,20.466,76.844,17.917c25.756-2.188,37.29-11.839,67.181-17.917c20.216-4.11,47.385-6.293,81.26,0    C871.754,342.144,871.754,384.559,871.754,426.973z"/>
		<polygon clip-path="url(#SVGID_2_)" fill="#FFFFFF" points="760.803,332.126 772.768,356.371 799.524,360.258 780.163,379.13     784.734,405.777 760.803,393.196 736.873,405.777 741.443,379.13 722.083,360.258 748.838,356.371   "/>
	</g>
</g>
</svg>