<svg xmlns="http://www.w3.org/2000/svg" xmlns:xlink="http://www.w3.org/1999/xlink" version="1.1" id="Contact_Us" x="0px" y="0px" viewBox="0 0 1920 1080" style="enable-background:new 0 0 1920 1080;" xml:space="preserve">
<style type="text/css">
	.st0{fill:#CCE9FF;}
	.st1{fill:#0B4870;}
	.st2{fill:#FFBE55;}
	.st3{fill:#0E538C;}
	.st4{fill:#FCD2B1;}
	.st5{fill:#FFE3CA;}
</style>
<path class="st0" d="M286.4,195.5v883.5h1498.5V195.5H286.4z M1668.1,902.6h-806V571.7h806V902.6z M1668.1,498.3h-806v-65.7h806  V498.3z M1668.1,359.2h-806v-65.7h806V359.2z"/>
<rect x="286.4" y="72.3" class="st1" width="1498.5" height="123.2"/>
<rect x="1402.8" y="946.6" class="st2" width="265.3" height="65.7"/>
<g>
	<path class="st3" d="M710.7,206.1c4.5,20.7,9.9,53.1,9.4,93c-0.6,48.2-9.2,60.3-5.8,89.1c5.5,47.2,34.8,67.4,72.1,116.9   c23.2,30.8,74.9,99.3,82.2,160.9c11.2,94.8-79.4,206.5-187,248.6c-143.9,56.2-309.8-16.4-373.2-128.6   c-4.6-8.1-57.9-105.6-20.5-193.3c7.6-17.7,28.1-65.6,71.2-79.8c20.1-6.6,29.4,0,40.2-8.8c26.3-21.6-1.7-73.6,2.2-144.1   c5.1-90.6,62.7-174.6,118.3-192.8c16.9-5.6,37.4-12.3,61.4-6.5c18.1,4.4,25.1,12.8,45.5,13.6c19.7,0.8,24.7-6.6,38.9-4.9   C676.8,170.8,693,177.9,710.7,206.1z"/>
	<path class="st2" d="M618.8,457.1c0,0,140,20.7,147.4,70.2c4.2,28.3-9.2,191.6-35,250.6c-25.8,59,7.4,269,27.6,304H401.4   c0,0,99.5-221.1,82.9-300.3c-16.6-79.2-68.2-226.6,7.4-278.2S618.8,457.1,618.8,457.1z"/>
	<path class="st4" d="M548.8,394.9l2.3,73.4c0.8,24.8,21.1,44.6,46,44.6h0c25.6,0,46.3-21,46-46.6l-1.2-87L548.8,394.9z"/>
	<path class="st5" d="M515.6,256.7c0,0-44.3,171.8,64.5,172.3c46.1,0.2,71.9-20.3,74.6-48.8c0,0,41.5-12.9,35.9-51.6   s-25.8-10.1-24.9-0.9s-12,13.8-11.1,3.7s5-106.9-61.5-110.6C593.2,220.8,548.8,275.1,515.6,256.7z"/>
	<path class="st2" d="M725.6,486c0,0,77.1,39.8,162.2,233.8c72.5,165.4-125.6,362.1-125.6,362.1h-67.7c0,0,116.8-230.2,122.3-256   C822.3,800.1,705.6,645.2,725.6,486z"/>
	<polygon class="st5" points="299.5,170.4 310,117.4 358.1,126.3 342.9,185.7  "/>
	<path class="st5" d="M292.7,103.8c-2-34.3,27.9-80.6,38.4-89.5s45.3-14.6,44.7,5.6c-0.6,20.2-0.7,42.7-5.7,56.9   c-2.9,8.4-11.6,27.1-1.8,22.1s18.8-30.5,27.4-22.7c7.1,6.5-7.5,48.5-27.4,62.9c-11,8-11.6,11.5-26.7,12.3   C326.5,152.2,295.9,158.2,292.7,103.8z"/>
	<path class="st2" d="M299.6,164.4c0,0-60.4,182.6-47.5,252.6s202,221.6,202,221.6l48-142.2c0,0-118.3-40.3-153.3-78.3   s-0.9-248-0.9-248L299.6,164.4z"/>
	<line class="st3" x1="-574" y1="-78.1" x2="-574" y2="-78.1"/>
</g>
</svg>