<svg xmlns="http://www.w3.org/2000/svg" xmlns:xlink="http://www.w3.org/1999/xlink" version="1.1" id="Layer_1" x="0px" y="0px" viewBox="0 0 595.3 582.4" style="enable-background:new 0 0 595.3 582.4;" xml:space="preserve">
<style type="text/css">
	.st0{opacity:0.5;fill:#CDEAFB;}
	.st1{clip-path:url(#SVGID_2_);fill:#F6B7A0;}
	.st2{clip-path:url(#SVGID_2_);fill:#FACBB6;}
	.st3{clip-path:url(#SVGID_2_);fill:#FFFFFF;}
	.st4{clip-path:url(#SVGID_2_);fill:#FABB58;}
</style>
<circle class="st0" cx="297.6" cy="304" r="224.8"/>
<g>
	<defs>
		<circle id="SVGID_1_" cx="297.6" cy="304" r="224.8"/>
	</defs>
	<clipPath id="SVGID_2_">
		<use xlink:href="#SVGID_1_" style="overflow:visible;"/>
	</clipPath>
	<polygon class="st1" points="402.6,340.3 331.7,376 310.7,256.6 388.7,251.2  "/>
	<path class="st2" d="M198.9,249.4c0,0,36.9,5.7,50.9,4.2c14-1.5,47.4-8.5,52.2-6.8c4.9,1.7,91.7,97.5,93.7,103.3   c2.6,7.2-9.8,19.4-19.3,15.7c0,0,5.9,6.8,1.5,11.2c-3.1,3.2-15.2,17.7-25.5,9.3c0,0,6.3,7.4-11,17c-10,5.5-16.7,0.7-16.7,0.7   s-10.6,15.9-20.3,12.1c-5.6-2.2-131.6-91.2-131.6-91.2l25.1-73.8"/>
	<path class="st1" d="M388.7,252.4l-67.3,12.9c0,0-13.5,9.3-27,16.9c-8.2,4.6-16.4,8.5-21.6,9.2c-5.6,0.8-9.7-0.8-12.6-3L275,261   c13.1-11.9,28.3-25.1,33.2-27c9.1-3.4,49.6,14.1,49.6,14.1L388.7,252.4z"/>
	<path class="st1" d="M228.3,362.8c-4.1,4.1-11.4,3.4-16.2-1.6l0,0c-4.9-4.9-5.5-12.2-1.4-16.2l18.5-18.2c4.1-4.1,11.4-3.4,16.2,1.6   l0,0c4.9,4.9,5.5,12.2,1.4,16.2L228.3,362.8z"/>
	<path class="st1" d="M248.8,380.4c-4.8,4.8-13.4,4-19.1-1.8l0,0c-5.7-5.8-6.4-14.4-1.6-19.1l21.8-21.5c4.8-4.8,13.4-4,19.1,1.8l0,0   c5.7,5.8,6.4,14.4,1.6,19.1L248.8,380.4z"/>
	<path class="st1" d="M240.8,379.6c-3,0-6-1.4-8.4-3.8c-4.2-4.3-4.9-10.4-1.6-13.6l21.8-21.5c1.7-1.7,3.8-2,5.3-2c3,0,6,1.4,8.4,3.8   c4.2,4.3,4.9,10.4,1.6,13.6l-21.8,21.5C244.4,379.3,242.3,379.6,240.8,379.6z"/>
	<path class="st1" d="M270.3,397.3c-4.6,4.5-12.6,3.7-18-1.7l0,0c-5.4-5.5-6.1-13.6-1.5-18.1l20.5-20.3c4.6-4.5,12.6-3.7,18,1.7l0,0   c5.4,5.5,6.1,13.6,1.5,18.1L270.3,397.3z"/>
	<path class="st1" d="M262.8,396.3c-2.7,0-5.6-1.3-7.7-3.5c-3.9-3.9-4.6-9.6-1.5-12.6l20.5-20.3c1.5-1.5,3.5-1.8,4.8-1.8   c2.7,0,5.6,1.3,7.7,3.5c3.9,3.9,4.6,9.6,1.5,12.6l-20.5,20.3C266,396,264.1,396.3,262.8,396.3z"/>
	<path class="st1" d="M290.6,411.1c-4,4-11.2,3.3-16-1.5l0,0c-4.8-4.8-5.4-12-1.3-16l18.2-17.9c4-4,11.2-3.3,16,1.5l0,0   c4.8,4.8,5.4,12,1.3,16L290.6,411.1z"/>
	<path class="st1" d="M284,409.8c-2.3,0-4.7-1.1-6.5-3c-1.7-1.7-2.7-3.8-2.9-5.9c-0.2-1.8,0.4-3.5,1.5-4.6l18.2-17.9   c1.2-1.2,2.8-1.5,3.9-1.5c2.3,0,4.7,1.1,6.5,3c3.2,3.2,3.8,8,1.4,10.5l-18.2,17.9C286.6,409.5,285.1,409.8,284,409.8z"/>
	<path class="st1" d="M296.3,279.2l-1.8,3l-6.5,9.6c-16.3,17.9-31.5,3.7-31.5,3.7l3.8-7.1L275,261L296.3,279.2z"/>
	<path class="st1" d="M310.6,265.1c0,0,0.2,0.3,0.5,0.8c3.4,5.5,23.4,36.3,50.9,38.4c30.2,2.3-31.6-57.6-31.6-57.6"/>
	
		<rect x="391.5" y="244.9" transform="matrix(0.9939 -0.1107 0.1107 0.9939 -30.5009 46.7894)" class="st3" width="29.4" height="106.3"/>
	<polygon class="st4" points="678.3,304.2 414.9,352.7 401.4,231.5 664.8,183  "/>
	
		<rect x="135.1" y="282.1" transform="matrix(0.1225 -0.9925 0.9925 0.1225 -129.3975 447.2924)" class="st3" width="106.3" height="29.4"/>
	<polygon class="st4" points="-84.2,299.7 178.9,351.3 193.8,230.2 -69.2,178.6  "/>
</g>
</svg>