<svg xmlns="http://www.w3.org/2000/svg" xmlns:xlink="http://www.w3.org/1999/xlink" version="1.1" id="Layer_1" x="0px" y="0px" viewBox="0 0 1080 1080" style="enable-background:new 0 0 1080 1080;" xml:space="preserve">
<style type="text/css">
	.st0{opacity:0.09;fill:#2A94F4;}
	.st1{fill:#F2F2F2;}
	.st2{fill:#2A94F4;}
	.st3{fill:#0B4870;}
	.st4{opacity:0.54;}
	.st5{fill:#D3D3D3;}
	.st6{fill:#FCD2B1;}
	.st7{fill:#FFBE55;}
	.st8{fill:#FFE3CA;}
	.st9{fill:#FA968C;}
</style>
<g>
	<path class="st0" d="M290.45,738.28c0-136.78,110.88-247.66,247.66-247.66S785.77,601.5,785.77,738.28"/>
	<path class="st1" d="M653,662c-1.57,0-3.11,0.09-4.63,0.26c-2.92-7.01-7.12-13.34-12.31-18.73c0.08-1.03,0.13-2.07,0.13-3.13   c0-23.2-18.8-42-42-42c-23.19,0-42,18.8-42,42c-6.92,6.19-12.4,13.96-15.9,22.74c-6.37,1.51-12.19,4.46-17.07,8.51   c-0.16-0.22-0.31-0.44-0.46-0.65c5.18-6.99,8.25-15.63,8.25-25c0-23.2-18.8-42-42-42s-42,18.8-42,42c0,3.74,0.49,7.36,1.41,10.81   c-2.59-0.5-5.26-0.77-7.99-0.77c-23.2,0-42,18.8-42,42c0,23.2,18.8,42,42,42c9.7,0,18.62-3.29,25.73-8.81   c6.58,4.28,14.42,6.77,22.86,6.77c10.18,0,19.52-3.63,26.79-9.65C519.4,739.03,531.88,746,546,746c7.65,0,14.82-2.06,21-5.63   c7.75,3.61,16.38,5.63,25.5,5.63c12.31,0,23.76-3.69,33.31-10c7.33,6.23,16.82,10,27.19,10c23.2,0,42-18.8,42-42   C695,680.8,676.2,662,653,662z"/>
	<g>
		<g>
			<g>
				<rect x="504.14" y="336.95" class="st2" width="71.71" height="260.22"/>
			</g>
		</g>
		<g>
			<g>
				<path class="st3" d="M540,267.72c-31.56,31.56-35.86,69.23-35.86,69.23H540h35.86C575.86,336.95,571.56,299.28,540,267.72z"/>
			</g>
		</g>
		<g class="st4">
			<g>
				<path class="st5" d="M557.34,392.01c0,9.58-7.76,17.34-17.34,17.34c-9.58,0-17.34-7.76-17.34-17.34      c0-9.58,7.76-17.34,17.34-17.34C549.58,374.67,557.34,382.43,557.34,392.01z"/>
			</g>
		</g>
		<g class="st4">
			<g>
				<circle class="st5" cx="540" cy="444.06" r="17.34"/>
			</g>
		</g>
		<g>
			<g>
				<path class="st5" d="M552.92,444.06c0,7.14-5.78,12.92-12.92,12.92s-12.92-5.78-12.92-12.92c0-7.13,5.78-12.92,12.92-12.92      S552.92,436.93,552.92,444.06z"/>
			</g>
		</g>
		<g>
			<g>
				<path class="st5" d="M552.92,392.01c0,7.13-5.78,12.92-12.92,12.92s-12.92-5.78-12.92-12.92c0-7.14,5.78-12.92,12.92-12.92      S552.92,384.87,552.92,392.01z"/>
			</g>
		</g>
		<g>
			<g>
				<rect x="496.33" y="597.96" class="st6" width="15.62" height="66.31"/>
			</g>
		</g>
		<g>
			<g>
				<rect x="532.19" y="597.96" class="st6" width="15.62" height="66.31"/>
			</g>
		</g>
		<g>
			<g>
				<rect x="568.05" y="597.96" class="st6" width="15.62" height="66.31"/>
			</g>
		</g>
		<g>
			<g>
				<path class="st3" d="M552.92,604.83h-25.84c0-7.14,5.78-12.92,12.92-12.92C547.14,591.91,552.92,597.7,552.92,604.83z"/>
			</g>
		</g>
		<g>
			<g>
				<path class="st3" d="M588.78,604.83h-25.84c0-7.14,5.79-12.92,12.92-12.92C582.99,591.91,588.78,597.7,588.78,604.83z"/>
			</g>
		</g>
		<g>
			<g>
				<path class="st3" d="M517.06,604.83h-25.84c0-7.14,5.78-12.92,12.92-12.92C511.28,591.91,517.06,597.7,517.06,604.83z"/>
			</g>
		</g>
	</g>
	<g>
		<g>
			<g>
				<path class="st2" d="M619.93,738.64h-26.11V455h26.11V738.64z M595.6,736.86h22.54V456.79H595.6V736.86z"/>
			</g>
		</g>
		<g>
			<g>
				
					<rect x="593.12" y="730.21" transform="matrix(0.8846 -0.4663 0.4663 0.8846 -271.0163 367.3878)" class="st2" width="27.5" height="2.26"/>
			</g>
			<g>
				
					<rect x="593.12" y="686.86" transform="matrix(0.8846 -0.4663 0.4663 0.8846 -250.8021 362.386)" class="st2" width="27.5" height="2.26"/>
			</g>
			<g>
				
					<rect x="593.12" y="643.51" transform="matrix(0.8846 -0.4663 0.4663 0.8846 -230.5878 357.3842)" class="st2" width="27.5" height="2.26"/>
			</g>
			<g>
				
					<rect x="593.12" y="600.16" transform="matrix(0.8845 -0.4666 0.4666 0.8845 -210.4569 352.6548)" class="st2" width="27.5" height="2.26"/>
			</g>
			<g>
				
					<rect x="593.12" y="556.82" transform="matrix(0.8845 -0.4666 0.4666 0.8845 -190.2313 347.6516)" class="st2" width="27.5" height="2.26"/>
			</g>
			<g>
				
					<rect x="593.12" y="513.47" transform="matrix(0.8845 -0.4665 0.4665 0.8845 -169.9742 342.5083)" class="st2" width="27.5" height="2.26"/>
			</g>
			<g>
				
					<rect x="593.12" y="470.12" transform="matrix(0.8845 -0.4665 0.4665 0.8845 -149.7537 337.5032)" class="st2" width="27.5" height="2.26"/>
			</g>
		</g>
	</g>
	<g>
		<g>
			<g>
				<path class="st2" d="M480.2,738.64h-26.11V455h26.11V738.64z M455.87,736.86h22.54V456.79h-22.54V736.86z"/>
			</g>
		</g>
		<g>
			<g>
				
					<rect x="453.4" y="730.21" transform="matrix(0.8846 -0.4663 0.4663 0.8846 -287.1391 302.229)" class="st2" width="27.5" height="2.26"/>
			</g>
			<g>
				
					<rect x="453.4" y="686.86" transform="matrix(0.8846 -0.4663 0.4663 0.8846 -266.9249 297.2272)" class="st2" width="27.5" height="2.26"/>
			</g>
			<g>
				
					<rect x="453.4" y="643.51" transform="matrix(0.8846 -0.4663 0.4663 0.8846 -246.7106 292.2254)" class="st2" width="27.5" height="2.26"/>
			</g>
			<g>
				
					<rect x="453.4" y="600.16" transform="matrix(0.8845 -0.4666 0.4666 0.8845 -226.6014 287.4548)" class="st2" width="27.5" height="2.26"/>
			</g>
			<g>
				
					<rect x="453.4" y="556.82" transform="matrix(0.8845 -0.4666 0.4666 0.8845 -206.3762 282.4507)" class="st2" width="27.5" height="2.26"/>
			</g>
			<g>
				
					<rect x="453.4" y="513.47" transform="matrix(0.8845 -0.4665 0.4665 0.8845 -186.1079 277.3289)" class="st2" width="27.5" height="2.26"/>
			</g>
			<g>
				
					<rect x="453.4" y="470.12" transform="matrix(0.8845 -0.4665 0.4665 0.8845 -165.8874 272.3238)" class="st2" width="27.5" height="2.26"/>
			</g>
		</g>
	</g>
	<path class="st1" d="M794.5,793h-529c-15.19,0-27.5-12.31-27.5-27.5l0,0c0-15.19,12.31-27.5,27.5-27.5h529   c15.19,0,27.5,12.31,27.5,27.5l0,0C822,780.69,809.69,793,794.5,793z"/>
	<g>
		<g>
			<g>
				<path class="st3" d="M376.61,551.4c-0.01,0-0.01,0-0.02,0C376.67,551.43,376.68,551.44,376.61,551.4z"/>
			</g>
		</g>
	</g>
	<g>
		<path class="st6" d="M327.85,725.32l0.02,6.07c0,1.24-0.16,2.47-0.5,3.66l-0.53,1.87c-0.43,1.54,0.72,3.06,2.32,3.06    c4.14-0.01,11.21,0,13.03,0c0.3,0,0.59-0.2,0.62-0.5c0.15-1.77-4.97-2.96-8.83-4.45c-2.94-1.14-2.78-6.42-2.42-9.51    c0.14-1.17-0.84-2.16-2-2.06l0,0C328.59,723.54,327.85,724.35,327.85,725.32z"/>
		<path class="st6" d="M299.42,723.62l-2.09,6.95c-0.09,0.31-0.23,0.6-0.41,0.86l-1.48,2.2c-0.94,1.4-0.26,3.31,1.35,3.8    c0,0,2.99,1.05,6.08,2.07c3.16,1.04,7.13,0.17,7.13-0.66c0-1.85-1.73-0.38-4.62-2.32c-0.97-0.65-1.97-1.33-2.86-2.03    c-2.49-1.95-0.32-6.9,1.21-9.68c0.55-1-0.03-2.24-1.15-2.48l-0.72-0.15C300.78,721.96,299.73,722.58,299.42,723.62z"/>
		<path class="st3" d="M320.8,642.33l22.93-1.92c0,0,2.31,16.69-3.49,46.9c-2.72,14.17-8.38,41.24-8.38,41.24    c-1.4,0.61-2.83,0.77-4.28,0.41c0,0-0.43-11.94-0.69-24.8c-0.25-12.33-0.32-25.51-1.11-29.83    C324.17,665.52,320.8,642.33,320.8,642.33z"/>
		<path class="st3" d="M325.53,642.62c2.37,12.71,7.66,31.71-2.53,49.55c-10.19,17.85-20.89,36.4-20.89,36.4    c-1.38,0.06-2.63-0.44-3.79-1.33c0,0,1.79-8.09,4.37-17.54c2.95-10.81,6.7-23.52,5.63-30.15c-2-12.42-4.29-28.97-3.6-37    C305.42,634.53,324.29,635.94,325.53,642.62z"/>
		<g>
			<g>
				<g>
					<polygon class="st3" points="342.74,597.67 360.81,607.6 378.96,579.04 357.01,571.42      "/>
				</g>
			</g>
		</g>
		<g>
			<g>
				<g>
					<polygon class="st5" points="343.89,596.81 360.79,606.1 377.76,579.39 357.23,572.26      "/>
				</g>
			</g>
		</g>
		<g>
			<g>
				<g>
					<path class="st6" d="M337.7,591.81c0,0,3.15-1.5,4.53-2.29c1.38-0.79,4.93-1.87,5.22-2.12c0.29-0.26,10.53-0.89,11.15-1.42       c0.62-0.54,1.22,1.26-1.43,1.84c-2.65,0.58-6.35,2-6.55,3.04c-0.2,1.04,2.73,1.28,3.02,2.14c0.3,0.85-0.08,0.66-0.5,0.85       c-0.42,0.18-3.48-1.51-4.83-1.03c-1.35,0.48-3.41-0.19-4.44,0.17c-1.03,0.35-6.05,2.04-6.05,2.04L337.7,591.81z"/>
				</g>
			</g>
		</g>
		<g>
			<g>
				<g>
					<path class="st5" d="M343.38,594.03l1.62-0.6c0,0-2.02-4.74-2.9-4.63c-1.02,0.13-2.28,0.47-2.28,0.47L343.38,594.03z"/>
				</g>
			</g>
		</g>
		<g>
			<g>
				<g>
					<path class="st6" d="M343.75,594.85c-0.21-0.15-3.44-6.36-3.44-6.36l-6.92,0.94l3.74,7.36L343.75,594.85z"/>
				</g>
			</g>
		</g>
		<g>
			<g>
				<g>
					<path class="st6" d="M361.7,604.02c0,0,2.64-2.38,3.92-3.37c1.28-0.99,3.68-3.92,4.03-4.09c0.35-0.17,4.94-9.58,5.68-9.95       c0.75-0.38-0.71-1.64-2.29,0.63c-1.58,2.28-4.36,5.2-5.42,4.99c-1.06-0.21-0.15-3.07-0.84-3.68c-0.69-0.61-0.66-0.18-0.99,0.14       c-0.34,0.33,0.07,3.87-0.91,4.95c-0.98,1.08-1.15,3.28-1.89,4.12c-0.73,0.84-4.28,4.91-4.28,4.91L361.7,604.02z"/>
				</g>
			</g>
		</g>
		<g>
			<g>
				<g>
					<path class="st6" d="M319.57,545.33c0,0,7.93-2.96,11.59,3.08c3.66,6.04,3.3,18.12-0.69,19.6c-4,1.49-10,0.71-12.05-3.07       c-2.05-3.78-3.89-9.24-3.8-12.88C314.7,548.4,317.48,546.38,319.57,545.33z"/>
				</g>
			</g>
		</g>
		<g>
			<g>
				<g>
					<path class="st6" d="M329.6,568.28c0,0-0.64,5.69-0.09,6.75c0.55,1.05-9.9,0-9.9,0s-0.94-8.21-2.61-13.05       C315.33,557.13,329.6,568.28,329.6,568.28z"/>
				</g>
			</g>
		</g>
		<g>
			<g>
				<g>
					<path class="st3" d="M317,561.98c0,0,0.38,6.11,3.43,5.63c3.05-0.48,7.13-9.41,8.4-9.85c1.27-0.45,1.28-1.19,1.28-1.19       l0.8,1.16l1.35,0.09c0,0-1.23-3.63,0.63-5.11c1.86-1.48-1.93-11.74-11.7-8.32c0,0-7.51,2.07-7.23,6.34       C314.22,554.99,315.32,559.85,317,561.98z"/>
				</g>
			</g>
		</g>
		<g>
			<g>
				<g>
					<path class="st5" d="M330.74,576.3c0,0-0.03-2.01-0.95-2.21c-0.91-0.19-10.08-1.07-11.2-0.63v2.35       C318.59,575.81,320.75,577.13,330.74,576.3z"/>
				</g>
			</g>
		</g>
		<g>
			<g>
				<g>
					<path class="st6" d="M329.91,555.01c-0.17-0.72-1.99-2.76-2.69-0.57c-0.7,2.19,1.05,5.14,2.03,4.88       C330.23,559.07,330.35,556.82,329.91,555.01z"/>
				</g>
			</g>
		</g>
		<g>
			<g>
				<g>
					<g>
						<path class="st7" d="M303.33,651.54c0,0,4.86,1.43,13.15,2.35c8.29,0.91,29.01-0.33,29.14-1.31        c0.13-0.98-4.46-36.48-4.2-38.31c0.26-1.83,0.4-8.34,0.4-8.34c0.1,1.79,1.92,9.08,4.12,13.05c0.79,1.44,3.45,5.94,4.74,4.91        c6.21-4.95,15.82-23.63,16.43-23.79c-0.51-0.22-4.56-2.08-5.12-2.27c-0.5-0.17-4.97,4.57-7.69,7.51        c-1.21,1.31-2.07,2.26-2.07,2.26c-0.78-1.76-3.64-12.87-4.52-16.71c-2-8.67-1.69-9.03-1.69-9.03        c-6.07-1.84-15.27-5.57-15.27-5.57l-12.15-0.49c0,0-11.15,2.45-15.54,4.44c-0.42,0.19-0.42,9.95-1.56,12.51l3.64,7.68        c0,0,2.1,15.22,2.54,21.98C307.87,625.52,303.33,651.54,303.33,651.54z"/>
					</g>
				</g>
			</g>
		</g>
		<g>
			<g>
				<g>
					<path class="st7" d="M300.98,605.42c0.32,1.02,1.76,1.89,2.69,2.27c0.6,0.24,1.27,0.32,1.95,0.2l0.48-0.09v0l8.33-1.55       c0,0,1.82-20.98-11.37-26.01C302.7,580.36,298.07,596.03,300.98,605.42z"/>
				</g>
			</g>
		</g>
		<g>
			<g>
				<g>
					<path class="st3" d="M317.31,546.04c0,0-9.98,1.01-0.18,16.16L317.31,546.04z"/>
				</g>
			</g>
		</g>
		<g>
			<g>
				<g>
					<polygon class="st3" points="370.61,577.51 371.66,575.69 363.34,572.82 362.29,574.63      "/>
				</g>
			</g>
		</g>
	</g>
	<g>
		<path class="st8" d="M775.04,706.49c0,0,3.55,8.85,4.26,10.31c0.59,1.2,1.74,1.97,2.84,2.73c0.35,0.24,0.72,0.82,1.03,1.31    c0.25,0.39,0.26,0.87,0.1,1.3c-2.79,7.61-11.31,10.67-11.51,10.1c-0.36-1.03,0.9-3.1,2.69-4.14c1.8-1.04,2.84-3.04,2.91-5.11l0,0    c0.06-1.65-0.3-3.29-1.06-4.77l-3.47-6.59L775.04,706.49z"/>
		<path class="st8" d="M762.78,717.56l-2.13,9.45c-0.65,2.89-0.24,5.92,1.15,8.54c0,0,0,0,0,0c0.78,1.46,0.09,3.27-1.47,3.83    c-5.05,1.8-14.83,5.22-15.27,4.85c-2.22-1.88,3.65-4.99,8-8.26c2.93-2.2,4.05-12.46,4.31-20.34l4.66,1.17    C762.4,716.92,762.68,717.2,762.78,717.56z"/>
		<path class="st3" d="M753.84,739.05c-2.09,0.69-4.38,0.91-6.48,1.17c-0.24,0.03-0.47,0.12-0.66,0.27    c-2.01,1.56-3.03,3.13-1.85,4.13c0.47,0.4,11.97-3.67,16.45-5.28c0.94-0.34,1.35-1.42,0.88-2.3l-0.85-1.6    C758.98,736.93,756.49,738.18,753.84,739.05z"/>
		<path class="st3" d="M758.82,612.37c5.56,0.76,10.29,7.16,9.31,14.32c-0.56,4.11-4.39,18.82-8.59,30.45    c-1.61,4.46-0.96,9.52,2.07,13.18c0.49,0.6,0.92,1.21,1.26,1.84c1.75,3.23,8.5,22.31,12.47,35.04c-0.32,1.67-1.31,3.78-2.56,4.51    c-6.97-10.81-18.31-30.54-20.17-33.98c-1.04-1.91-2.17-4.11-2.99-6.19c-4.51-5.97-3.64-39.35-2.73-45.99    C747.85,618.41,753.26,611.61,758.82,612.37z"/>
		<path class="st3" d="M757.3,557.71c0,0-4.81,3.03-4.23,7.11c0,0-2.57-1.82-3.15-8.09C749.52,552.38,757.3,557.71,757.3,557.71z"/>
		<path class="st8" d="M754.53,582.57c-0.16,3.38-0.71,6.98-2.71,10.31c-0.99,1.64-2.39,3.12-4.03,4.19    c-1.64,1.08-3.48,1.73-5.27,1.98c-3.61,0.51-6.97-0.15-10.02-1.24c-3.06-1.09-5.85-2.65-8.41-4.45c-0.45-0.32-0.56-0.95-0.24-1.4    c0.28-0.4,0.81-0.53,1.24-0.33l0.01,0.01c2.71,1.25,5.52,2.2,8.34,2.73c2.8,0.51,5.66,0.6,8.05-0.14    c2.41-0.71,4.05-2.22,4.96-4.28c0.95-2.07,1.17-4.7,1.07-7.38l0-0.04c-0.07-1.93,1.45-3.56,3.38-3.62    c1.93-0.07,3.56,1.45,3.62,3.38C754.54,582.38,754.54,582.48,754.53,582.57z"/>
		<path class="st7" d="M751.92,603.72c-1.93-5.8-5.8-18.09-5.47-22.11c0.21-2.57,2.36-4.54,4.94-4.54h16.75    c2.78,0,5.05,2.2,5.13,4.98c0.14,4.85-2.09,15.9-3.35,21.68H751.92z"/>
		<path class="st3" d="M757.48,717.68c-0.26-0.16-0.41-0.46-0.4-0.77c0.35-12.32,1.1-28.03,1.37-31.04    c0.03-0.34,0.07-0.68,0.12-1.02c-2.64-14.57-3.04-45.88-3.3-51.36c-0.34-7.21,4-15.35,9.6-15.61c5.6-0.27,11.68,5.53,13.48,12.14    c1.19,4.36-3.4,27.56-8.38,44.37c-1.05,3.54-1.21,7.26-0.68,10.92c0.36,2.53,0.47,5.13,0.29,7.12c-0.27,2.96-3.59,15.02-6.7,25.35    c-0.09,0.3-0.33,0.54-0.63,0.6C760.65,718.73,758.97,718.59,757.48,717.68z"/>
		<path class="st7" d="M771.84,611.08c-0.87-2.43-1.13-5.04-0.76-7.59c0.85-5.94,2.32-17.12,2.19-21.87    c-0.07-2.54-2.15-4.55-4.69-4.55h-2.48c-0.95,2.19-2.95,3.89-6.07,3.89c-3.11,0-5.12-1.7-6.06-3.89h-2.33    c2.54,5.43,1.62,12.59-2.74,16.76c0.81,2.86,1.49,5.75,2,8.08c0.69,3.17,0.39,6.46-0.86,9.45c-2.14,5.14-3.84,13.38-3.33,16.64    c17.62,4.99,29.81-3.85,29.81-3.85L771.84,611.08z"/>
		<g>
			<polygon class="st6" points="757.3,578.22 764.9,577.42 762.5,569.1 757.58,569.71    "/>
		</g>
		<path class="st9" d="M757.58,569.71l4.92-0.61l0.75,2.6c-1.1,1.24-2.51,3.92-4.3,3.92c-0.57,0-1.08-0.16-1.55-0.46L757.58,569.71z    "/>
		<path class="st6" d="M757.41,573.73c1.67,0,3.47-0.84,5.96-3.01c1.43-1.25,2.49-3.42,2.49-4.89v-8.13h-12.51    c0,0-0.94,4.32-0.03,8.6C754,569.52,756.1,573.73,757.41,573.73z"/>
		<path class="st6" d="M763.74,564.3c0,1.59,0.76,2.87,1.7,2.87c0.94,0,1.97-2.08,1.97-3.66s-1.03-2.08-1.97-2.08    C764.5,561.43,763.74,562.71,763.74,564.3z"/>
		<path class="st3" d="M767.4,558.69c0-2.54-2.06-4.59-4.6-4.59l-4.22,0c-1.21,0-2.38-0.32-3.41-0.9c-1.49-0.85-3.37-0.56-4.39,0.82    c-1.1,1.49-1.57,3.49,1.21,5.33c1.39,0.92,3.41-0.1,4.76,0.34c0.08,0,0.16-0.02,0.24-0.02h3.72c1.29,0,2.28,1.06,2.32,2.35    c0.02,0.82,0.69,1.47,1.52,1.47h0.17l0.6-1.91l2.08,2.8V558.69z"/>
		<path class="st6" d="M726.22,590.24c0,0,2.81,2.86,2.44,4.05c-0.37,1.19-0.35,1.08-2.18,0.73c-1.83-0.35-3.91-1.21-5.1-2.27    c-1.19-1.06,0.73-3.21,1.01-3.48c0.94-0.89,4.5-1.13,5.49-0.14c0.99,0.99-3.57,2.94-3.17,2.33c0.4-0.61,2.04-1.48,2.25-2.31    C727.19,588.33,726.22,590.24,726.22,590.24z"/>
		<path class="st3" d="M754.28,557.56c0.42,1.86-0.2,2.87,5.89,5.77c6.09,2.9,8.01,1.66,9.91,4.78c0,0-0.83-5.17-4.19-6.94    c-3.36-1.77-9.19-2.93-11.06-7.04C754.83,554.13,753.99,556.3,754.28,557.56z"/>
		<g>
			<g>
				<g>
					<path class="st5" d="M687.55,541l-3.71,18.69l-3.71,18.69c0,0,21.23-6.64,45.33-1.86l1.64-8.25l1.64-8.29       C704.65,555.2,687.55,541,687.55,541z"/>
				</g>
			</g>
			<g>
				<g>
					<path class="st3" d="M722.1,596.97l-2.13-1.01l9.64-20.44l5.4,2.55l-8.17,17.33C725.93,597.32,724.02,597.88,722.1,596.97z"/>
				</g>
			</g>
			<g>
				<g>
					<polygon class="st6" points="742.12,579.97 720.87,576 724.33,558.58 745.41,563.38      "/>
				</g>
			</g>
		</g>
		<path class="st3" d="M755.45,557.91c0,0-0.23,6.25-5.7,9.26c0,0,2.41-4.73,2.24-7.82C751.83,556.26,755.81,555.77,755.45,557.91z"/>
		<path class="st3" d="M785.3,724.3c0.36-0.42,0.37-1.03,0.01-1.45c-0.29-0.34-1.06-1.29-1.64-2c-0.25-0.31-0.73-0.24-0.9,0.12    c-1.94,4.06-5.19,7.23-9.42,7.81c-1.37,0.93-2.25,3.02-1.96,3.84c0.07,0.19,1.94,0.22,3.92-0.91    C784.07,726.7,785.3,724.3,785.3,724.3z"/>
		<path class="st8" d="M773.49,579.23c0.04,0.46,0.04,0.72,0.05,1.06c0,0.32,0,0.63-0.01,0.94c-0.02,0.62-0.07,1.22-0.14,1.83    c-0.14,1.21-0.36,2.41-0.68,3.6c-0.68,2.36-1.69,4.69-3.2,6.74c-1.51,2.05-3.47,3.78-5.64,5.02c-2.17,1.25-4.5,2.03-6.82,2.43    c-4.65,0.78-9.16,0.41-13.43-0.49c-4.28-0.89-8.37-2.25-12.31-3.88c-0.51-0.21-0.76-0.8-0.54-1.31c0.19-0.45,0.67-0.7,1.14-0.6    l0.01,0c4.09,0.86,8.19,1.59,12.25,1.87c2.03,0.15,4.04,0.14,6.01,0.06c1.95-0.17,3.89-0.39,5.67-0.96    c1.77-0.55,3.43-1.25,4.84-2.24c1.41-0.98,2.55-2.21,3.45-3.62c0.92-1.39,1.52-3.02,1.92-4.72c0.19-0.86,0.34-1.73,0.42-2.61    c0.04-0.44,0.07-0.88,0.07-1.32c0.01-0.22,0.01-0.43,0.01-0.64l-0.02-0.52l-0.01-0.25c-0.06-1.93,1.46-3.54,3.39-3.6    C771.77,575.94,773.34,577.37,773.49,579.23z"/>
		<path class="st6" d="M729.08,590.75c0,0-3.83-0.93-2.92,0.9c0.91,1.82,1.9,1.27,1.9,1.27L729.08,590.75z"/>
	</g>
	<path class="st0" d="M366.68,471.25h60.01c0,0,5.11-11.63-9.87-13.68c-14.98-2.04,3.4-10.64-12.26-12   c-15.66-1.36-3.73,13.02-19.74,10.98c-16-2.04-25.16,5.11-20.24,5.79C369.49,463.02,324.37,471.25,366.68,471.25z"/>
	<path class="st0" d="M451.11,419.99h60c0,0,5.11-11.63-9.87-13.68c-14.98-2.04,3.4-10.64-12.26-12s-3.73,13.02-19.74,10.98   c-16-2.04-25.16,5.11-20.24,5.79C453.92,411.76,408.81,419.99,451.11,419.99z"/>
	<path class="st0" d="M654.44,520.07h60.01c0,0,5.11-11.63-9.87-13.68c-14.98-2.04,3.4-10.64-12.26-12   c-15.66-1.36-3.73,13.02-19.74,10.98c-16-2.04-25.16,5.11-20.24,5.79C657.26,511.84,612.14,520.07,654.44,520.07z"/>
	<path class="st0" d="M575.6,419.99h60.01c0,0,5.11-11.63-9.87-13.68c-14.98-2.04,3.4-10.64-12.26-12   c-15.66-1.36-3.73,13.02-19.74,10.98c-16.01-2.04-25.16,5.11-20.24,5.79C578.42,411.76,533.3,419.99,575.6,419.99z"/>
</g>
<ellipse class="st5" cx="717.32" cy="820.3" rx="83.6" ry="2.11"/>
<ellipse class="st5" cx="653" cy="846.73" rx="83.6" ry="2.11"/>
<ellipse class="st5" cx="492.91" cy="820.3" rx="83.6" ry="2.11"/>
<ellipse class="st5" cx="312.82" cy="820.3" rx="83.6" ry="2.11"/>
<ellipse class="st5" cx="428.59" cy="846.73" rx="83.6" ry="2.11"/>
</svg>