<svg xmlns="http://www.w3.org/2000/svg" xmlns:xlink="http://www.w3.org/1999/xlink" version="1.1" id="Layer_1" x="0px" y="0px" viewBox="0 0 823 823" style="enable-background:new 0 0 823 823;" xml:space="preserve">
<style type="text/css">
	.st0{fill:#CCE9FF;}
	.st1{fill:#2A94F4;}
	.st2{fill:#0E538C;}
	.st3{fill:#FFBE55;}
	.st4{fill:#0B4870;}
	.st5{fill:#D3D3D3;}
	.st6{opacity:0.15;fill:#D3D3D3;}
	.st7{opacity:0.5;fill:#D3D3D3;}
	.st8{fill:#EAA43F;}
	.st9{fill:#FFBA98;}
	.st10{fill:#F7F7F7;}
	.st11{fill:#B97A59;}
	.st12{fill:#A0654B;}
	.st13{fill:#254368;}
	.st14{opacity:0.3;fill:#000C38;}
</style>
<path class="st0" d="M690.7,609.5c101.6-98.8,106.8-250.3-76.6-420.2c-26.6-24.7-39.6-59.1-66-77.6c-80-56.1-192.3-44.7-263,38.6  c-38.7,45.6-54.3,108.2-94.5,152.9c-45.1,50.2-99.1,99-119.6,167.4c-13.6,45.3-11.3,94.7,4.2,139C298,649.2,508.6,661.4,690.7,609.5  z"/>
<g>
	<g>
		<g>
			<g>
				<path class="st1" d="M609.7,514c0,0-13.2,80.6,36.4,99.5c49.6,18.9,37.1-20.3,37.1-20.3s19.1-6.6-36.8-33.8      C620.1,546.6,609.7,514,609.7,514z"/>
			</g>
		</g>
	</g>
</g>
<g>
	<g>
		<g>
			<g>
				<path class="st2" d="M674.1,618.6c0,0,70,0.5,85.3-93.5c15.2-94,50.7-111.8,50.7-111.8S657.9,431.1,674.1,618.6z"/>
			</g>
		</g>
	</g>
</g>
<g>
	<g>
		<g>
			<g>
				<path class="st3" d="M672,616.1c16.3,24.2,57-49.7,44-97.4c-13-47.8-38.5-76.5-38.8-110.3C677.2,408.3,591.7,497.1,672,616.1z"/>
			</g>
		</g>
	</g>
</g>
<g>
	<g>
		<g>
			<g>
				<path class="st1" d="M18.9,534.2c0,0,17.7,79.7,70.8,78.8c53.1-0.9,26.9-32.7,26.9-32.7s15.3-13.3-46.7-17.7      C40.7,560.6,18.9,534.2,18.9,534.2z"/>
			</g>
		</g>
	</g>
</g>
<g>
	<g>
		<g>
			<g>
				<path class="st3" d="M113,608.8c0,0,53.7-16.8,37.1-76.3c-16.5-59.5,5.2-78.7,5.2-78.7S44.4,501.5,113,608.8z"/>
			</g>
		</g>
	</g>
</g>
<g>
	<g>
		<g>
			<g>
				<path class="st2" d="M107.6,606.8c24.1,16.4,34.5-67.3,4.6-106.8c-29.8-39.5-64.2-56.7-77-88C35.2,412-11.2,526.3,107.6,606.8z"/>
			</g>
		</g>
	</g>
</g>
<path class="st4" d="M380.1,609.4l12.6,16.2c0,0-16.9,18.8-11.3,17.1c5.7-1.8,36.8-26.8,36.8-26.8s-15-20.2-14.8-20.3  C403.7,595.5,380.1,609.4,380.1,609.4z"/>
<polygon class="st4" points="361.6,487.9 414.9,600.2 381,619.3 325.6,518.7 329.1,485.6 "/>
<g>
	<g>
		<polygon class="st5" points="499.7,520.6 539.6,656.5 544.2,656.4 513.5,519.8   "/>
		<polygon class="st5" points="427.6,522.8 397.2,657.3 402.6,657.2 443.3,522.4   "/>
		<polygon class="st5" points="463.1,519 467.8,655.7 474.2,655.6 477,519.2   "/>
		<polygon class="st5" points="426.2,577 517.3,572.2 517.9,581.6 419.3,587.5   "/>
		<polygon class="st6" points="427.5,522.8 426.1,529.7 441.2,529.4 443.1,522.5   "/>
		<polygon class="st6" points="463.2,522.3 463.4,528.9 476.8,528.6 477,520.7   "/>
		<polyline class="st7" points="465,574.5 465.3,584.3 459.5,584.4 457.3,574.9 466.5,574.4   "/>
		<polygon class="st7" points="476.8,574.4 476.8,584.1 481.2,583.8 482.4,574.1   "/>
	</g>
</g>
<path class="st3" d="M396.2,513c12.9-6.3,65.2-2.9,65.2-2.9s-14.8-183.3,4.3-184.8c19.1-1.5,62.3-15.2,70.1,12.5  c8.2,29.1-2.9,184.9-13.8,183.4c-24.9-3.4-101.9,5.5-125.1,0C391,519.8,396.2,513,396.2,513z"/>
<g>
	<path class="st8" d="M519.4,341c0.1,0,0.4,0.5,1.1,1.5c0.3,0.5,0.7,1.1,1.1,1.9c0.4,0.8,0.8,1.7,1.3,2.7c1.8,4.1,3.7,10.5,4.5,18.5   c0.9,8,0.9,17.6,0.8,28.2c-0.2,10.6-0.8,22.2-1.8,34.4c-1,12.2-2.1,23.8-3.2,34.3c-1.1,10.5-2.2,20-3.6,27.9   c-1.4,7.9-3.3,14.2-4.8,18.4c-1.5,4.2-2.7,6.4-2.8,6.4c-0.2-0.1,0.6-2.4,1.8-6.7c1.2-4.3,2.7-10.5,3.9-18.4   c1.2-7.9,2.1-17.3,3-27.8c1-10.5,2.1-22.1,3-34.2c0.9-12.1,1.7-23.7,2-34.3c0.3-10.5,0.5-20-0.2-27.9c-0.6-7.9-2.1-14.2-3.6-18.3   C520.4,343.3,519.2,341.1,519.4,341z"/>
</g>
<path class="st9" d="M325.7,406.9l-4.8-2.5c0,0-3.1-1.1-8.1-4.1c-1.3-0.8-2.5-1.8-3.4-2.9c-1.2-1.4-2.7-3.3-3.3-4.6  c-0.7-1.6-2.8-1.7-3.2-0.3c-0.3,1.4,1.4,5.8,5.4,9.7c4,3.9-4.4,2.7-7.5,2.4c-3.1-0.4-12.6-1.1-13.4-0.2c-1.1,1.2,0.1,2.8,3.2,3.1  c3.1,0.3,12.3,1.9,12.2,3.5c-0.1,1.6-15.8-0.5-15.8-0.5s-3.3-1-3.5,0.9c-0.4,3.3,16.3,4.4,17.9,4.4c1.1,0,1,1.8-0.2,1.7  c-1.2-0.1-15.6-2.5-16,0.9c-0.3,2.6,13.7,1,16.6,3.1c2.9,2.1-10.9,0.1-11.1,2.6c-0.1,0.9,0,1.6,7.9,1.7c8.1,0,29.9-3.5,29.9-3.5  l-3.1-15.4"/>
<g>
	<path class="st10" d="M432.8,341.6c0,0-40.9,55-50.3,57.4c-9.4,2.5-63.1,5.7-63.1,5.7l-4.8,23.2c0,0,68.7,3.6,83.8-7.5   c23.8-17.5,48.7-57.9,48.7-57.9C447.9,349.2,442.8,342.6,432.8,341.6z"/>
</g>
<path class="st2" d="M321.6,629.6l2.6,20.4c0,0-24.2,7.6-18.4,9c5.8,1.4,45.3-4.3,45.3-4.3s-2.7-25-2.4-25  C349,629.6,321.6,629.6,321.6,629.6z"/>
<path class="st2" d="M487.6,444.4c0,0,22.8,48.7-22.2,65.5l-24-52.1L487.6,444.4z"/>
<path class="st2" d="M456.3,457.4c0,0-129.8-35.7-144.4-5.7c-14.6,29.9,2.8,185.8,2.8,185.8l40.6-4.3c0,0-6.8-136.9,0-141.7  c6.8-4.8,100.3,18.8,110.1,18.4C489.3,508.9,506.2,464.3,456.3,457.4z"/>
<path class="st10" d="M459.1,326.9c-17,0.4-30.9,13.9-31.7,30.9c-0.7,14.2,0.7,33.6-3.1,50.7c-2,8.8-13.5,44.2-13.5,44.2l11.5,1.9  c17.8,3,36.1,2.1,53.5-2.6l13.1-3.5c0,0,7.6-39.4,11.8-76.4c3.6-30.9-2.3-42.9-21.1-45.6L459.1,326.9z"/>
<path class="st11" d="M450.1,329.1c0.6-3-0.4-15.6-0.4-15.6s-11.5-1.5-11.9-12.9c-0.5-11.4,0.8-37.7,0.8-37.7l21.2-9.8l22.7,17.9  l2.1,12.6l-5.3,15l-2.4,28.6L450.1,329.1z"/>
<path class="st12" d="M449.7,313.5c0,0,7.7,0.2,15.2-4.8c0,0-3.6,8.3-15,7.6L449.7,313.5z"/>
<path class="st11" d="M424.6,445.8l-5.4-0.3c0,0-3.3,0.3-9.1-0.4c-1.5-0.2-3-0.6-4.4-1.2c-1.7-0.8-3.9-1.9-4.9-2.8  c-1.3-1.2-3.3-0.4-3,1.1s3.7,4.7,9,6.6c5.3,1.9-2.9,4.4-5.8,5.3c-2.9,0.9-11.9,4.3-12.2,5.4c-0.5,1.6,1.3,2.5,4.2,1.5  c3-1,11.9-3.5,12.5-2c0.5,1.5-14.5,6.1-14.5,6.1s-3.4,0.5-2.8,2.3c1.1,3.2,16.6-2.9,18.1-3.5c1-0.4,1.7,1.2,0.6,1.6  c-1.2,0.4-15.2,4.3-14.1,7.5c0.8,2.5,12.9-4.9,16.4-4.1c3.5,0.7-9.8,4.7-9,7c0.3,0.9,0.7,1.5,7.9-1.8c7.4-3.4,25.6-15.7,25.6-15.7  l-9.3-12.7"/>
<path class="st5" d="M440.9,456.3c0,0,25.5-7.3,41.7-22.4c12.9-12,12.7-23.2,12.7-23.2l6.1-46.8L440.9,456.3z"/>
<path class="st10" d="M476.4,330.5c0,0-4.9,68.4-11.5,75.5c-6.6,7.1-50.1,38.7-50.1,38.7l8.5,22.2c0,0,59.8-34,66.6-51.5  c8.1-21.2,9.6-54.2,9.8-68.3c0.1-6-2.3-11.8-7-15.5C487.8,327.7,482.3,327.5,476.4,330.5z"/>
<g>
	<path class="st8" d="M509.6,514.9c-0.2,0.8-12-1.1-26.8-2.3c-14.7-1.2-26.8-1.3-26.8-2.1c0-0.7,12.1-1.8,27-0.6   C498,511.2,509.8,514.2,509.6,514.9z"/>
</g>
<g>
	<path class="st8" d="M505.1,394.7c-0.1,0.1-0.6,0-0.8-0.8c-0.2-0.7,0.2-1.9,1.2-2.6c0.5-0.4,1.3-0.7,2.2-0.6   c0.5,0.1,0.9,0.2,1.3,0.4c0.4,0.2,0.7,0.5,1,0.8c1.2,1.4,1.5,3.3,0.8,5.2c-0.7,1.8-2.1,3.1-3.8,3.5c-0.4,0.1-0.9,0.1-1.3,0.1   c-0.4,0-0.9-0.2-1.2-0.4c-0.7-0.4-1.2-1-1.4-1.6c-0.5-1.1-0.4-2.3,0.1-2.9c0.4-0.6,0.9-0.6,1-0.5c0.1,0.1,0,0.5,0,0.9   c0,0.4,0.1,1,0.6,1.5c0.2,0.3,0.5,0.5,0.8,0.6c0.2,0,0.3,0.1,0.4,0c0.2,0,0.4,0,0.5-0.1c0.7-0.2,1.6-1,1.9-2   c0.3-0.9,0.2-2.1-0.2-2.7c-0.5-0.7-0.9-0.8-1.6-0.6c-0.6,0.2-1,0.7-1.2,1C505.2,394.2,505.3,394.6,505.1,394.7z"/>
</g>
<g>
	<path class="st5" d="M474,352.1c0.2,0,0.3,1.6,0.3,4.4c0,2.8-0.1,7-0.4,12c-0.4,5.1-1,11.2-2.5,17.8c-1.5,6.6-4.1,13.8-8.4,20.5   c-4.4,6.6-10,11.8-15.3,16c-5.3,4.2-10.4,7.5-14.6,10.4c-8.4,5.7-13.2,9.7-13.4,9.4c-0.1-0.1,1-1.3,3.1-3.2   c2.1-1.9,5.3-4.5,9.4-7.6c4.1-3.1,9-6.5,14.2-10.7c5.1-4.2,10.5-9.3,14.6-15.6c4.1-6.4,6.7-13.3,8.2-19.7c1.6-6.4,2.4-12.4,3-17.4   C473.3,358.4,473.7,352.1,474,352.1z"/>
</g>
<polygon class="st5" points="460.2,330.8 461.1,320.6 477.7,317.6 482.7,328.4 "/>
<polyline class="st5" points="449.7,319.4 456.3,320.6 456.3,330.8 448,329.1 450,317.6 "/>
<g>
	<path class="st5" d="M429.8,367c0,10.7-1.3,21.3-3.9,31.7"/>
</g>
<g>
	<g>
		<rect x="174" y="438.9" class="st13" width="418.1" height="13.7"/>
		<polygon class="st13" points="206.7,452.6 174,658.2 190.3,658.5 246.5,452.6   "/>
		<polyline class="st13" points="561.7,450.3 580.7,662.5 565.4,662.5 524.3,459.1 522.2,444 561.7,450.3   "/>
		<polygon class="st14" points="523.4,452.6 524.9,462 562.6,460.6 561.9,452.6   "/>
		<polygon class="st14" points="206.7,452.6 205.2,462.3 244.1,461.2 246.5,452.6   "/>
	</g>
</g>
<polygon class="st5" points="236.6,362.8 262.7,438.9 380.6,438.9 379.7,435 332,433.5 310.1,362.8 "/>
<path class="st10" d="M288.9,399.6c0.8,3.1-0.6,6.2-3,6.8c-2.4,0.6-5-1.4-5.8-4.5c-0.8-3.1,0.6-6.2,3-6.8  C285.5,394.5,288.1,396.5,288.9,399.6z"/>
<g>
	<g>
		<path class="st1" d="M525.1,415.2c-3.5-11.9-5.1-28.6-6-40.9c-0.2-2.4-0.3-5,0.6-7.2c0.9-2.3,3-4.3,5.4-4.2c2,0,3.9,1.5,4.9,3.2    c1,1.8,1.4,3.8,1.8,5.8c2.2,11.5,4.5,22.9,6.7,34.4c2.1-4.1,5-7.8,8.3-10.9c1.5-1.4,3.7-2.8,5.5-1.8c1.6,0.9,1.8,3.1,1.7,5    c-0.2,5.6-0.9,11.2-2.1,16.7"/>
	</g>
	<path class="st2" d="M520.3,414c0,0-5.9,23.3,17.9,24.4c21.9,1,16.7-24.4,16.7-24.4H520.3z"/>
</g>
<g>
	<path class="st4" d="M464.9,273.5c0,0,0.2,0.1,0.5,0.3c0.3,0.2,0.8,0.5,1.4,1c1.1,0.9,2.5,2.7,2.9,5.3c0.2,1.3,0.2,2.8-0.3,4.2   c-0.5,1.5-1.3,2.9-2.7,4.1c-0.6,0.6-1.4,1.1-2.2,1.5c-0.8,0.4-1.7,0.7-2.7,0.8c-1.9,0.3-3.9-0.1-5.7-1c-1.8-1-3.2-2.5-4-4.2   c-0.4-0.9-0.7-1.8-0.8-2.7c-0.1-0.9-0.1-1.8,0-2.7c0.2-1.7,1-3.3,2-4.5c1-1.2,2.2-2,3.4-2.6c2.4-1.1,4.7-0.8,6-0.4   c0.7,0.2,1.2,0.4,1.5,0.6C464.7,273.4,464.9,273.5,464.9,273.5c0,0.1-0.7-0.4-2.1-0.7c-1.4-0.3-3.5-0.5-5.8,0.6   c-1.1,0.5-2.3,1.3-3.2,2.5c-0.9,1.2-1.6,2.6-1.8,4.2c-0.1,0.8-0.1,1.7,0,2.5c0.1,0.9,0.4,1.7,0.8,2.5c0.7,1.6,2.1,3,3.7,4   c1.7,0.9,3.6,1.2,5.4,1c0.9-0.1,1.7-0.4,2.5-0.7c0.8-0.4,1.5-0.8,2.1-1.4c1.3-1.1,2.1-2.5,2.6-3.9c0.5-1.4,0.5-2.8,0.3-4   c-0.4-2.5-1.7-4.3-2.7-5.2C465.6,273.9,464.9,273.6,464.9,273.5z"/>
</g>
<g>
	<path class="st4" d="M439.4,271.7c0,0,0.2,0,0.6,0c0.4,0,0.9,0.1,1.6,0.3c1.4,0.4,3.4,1.3,5,3.4c0.8,1.1,1.4,2.4,1.6,3.9   c0.2,1.5,0.1,3.2-0.5,4.9c-0.3,0.8-0.8,1.6-1.3,2.3c-0.6,0.7-1.2,1.4-2,1.9c-1.6,1.1-3.5,1.7-5.6,1.6c-2-0.1-3.9-0.8-5.4-2   c-0.8-0.6-1.4-1.3-1.9-2c-0.5-0.8-0.9-1.6-1.2-2.4c-0.6-1.7-0.5-3.4-0.2-4.9c0.3-1.5,1.1-2.8,1.9-3.8c1.7-2,3.8-2.8,5.2-3.1   c0.7-0.1,1.3-0.2,1.7-0.1C439.2,271.6,439.4,271.7,439.4,271.7c0,0.1-0.8,0-2.2,0.3c-1.4,0.3-3.4,1.2-5,3.1c-0.8,1-1.5,2.2-1.8,3.7   c-0.3,1.4-0.3,3.1,0.2,4.6c0.2,0.8,0.6,1.6,1.1,2.3c0.5,0.7,1.1,1.4,1.8,1.9c1.4,1.1,3.2,1.8,5.1,1.9c1.9,0,3.8-0.5,5.2-1.5   c0.7-0.5,1.4-1.1,1.9-1.8c0.5-0.7,1-1.4,1.3-2.2c0.6-1.5,0.8-3.1,0.6-4.6c-0.2-1.5-0.8-2.7-1.5-3.8c-1.5-2.1-3.4-3.1-4.7-3.5   C440.2,271.7,439.4,271.7,439.4,271.7z"/>
</g>
<g>
	<path class="st4" d="M447.9,281.7c0-0.1,0.9-0.2,2-0.2c1.1,0,1.9,0.2,1.9,0.3c0,0.1-0.9,0.2-2,0.2   C448.7,282,447.8,281.9,447.9,281.7z"/>
</g>
<g>
	<path class="st4" d="M469.2,282.5c0-0.1,2.1-0.2,4.7-0.1c2.6,0.1,4.7,0.3,4.7,0.4c0,0.1-2.1,0.2-4.7,0.1   C471.3,282.8,469.2,282.6,469.2,282.5z"/>
</g>
<g>
	<path class="st2" d="M478.5,300.5c6.1-6.7,6.7-16.4,6.8-25.5c0.1-4.4-0.2-8.9-2.4-12.7c-2.2-3.7-6-6.1-9.9-7.8   c-6-2.6-12.8-3.8-19.2-2.6s-12.5,5-15.7,10.7c0,0,29.7-0.6,31.7,0.6c2,1.2,8.1,5.5,7.6,10.8c-0.5,5.3-2,13.1-2,13.1l4.8-0.7   c0,0-0.4-7.2,1.7-7C483.9,279.8,478.5,300.5,478.5,300.5z"/>
</g>
<g>
	<path class="st11" d="M479.9,288.2c0.2,0.8,1.1,1.4,2,1.3c0.9,0,1.7-0.5,2.4-1c1.4-1.1,2.6-2.7,2.8-4.5c0.2-1.8-0.6-3.8-2.1-4.7   c-1.6-0.9-3.9-0.5-4.8,1.1L479.9,288.2z"/>
</g>
</svg>