<svg xmlns="http://www.w3.org/2000/svg" xmlns:xlink="http://www.w3.org/1999/xlink" version="1.1" id="Layer_1" x="0px" y="0px" viewBox="0 0 500 500" enable-background="new 0 0 500 500" xml:space="preserve">
<g>
	<g>
		<path fill="#F2F2F2" d="M131.352,140.982c8.015,11.226,15.446,22.933,22.554,34.875c-9.343-42.182,18.365-58.968,18.365-58.968    c10.634,48.218-4.805,65.46-11.569,70.512c4.247,7.574,8.241,15.298,12.119,23.097c1.617-44.594,33.513-53.482,33.513-53.482    c-2.489,46-19.539,59.978-28.218,64.147c6.08,12.943,11.599,26.17,16.652,39.575c5.833-47.102,40.167-52.214,40.167-52.214    c-8.426,47.837-28.585,58.372-37.048,60.709c11.317,31.596,19.789,64.189,25.001,97.009c0.659,4.145-5.786,5.02-6.445,0.868    c-3.219-20.269-7.714-40.496-13.352-60.473c-55.918-4.222-59.586-32.202-59.586-32.202c28.528-2.717,44.999,6.096,54.314,15.243    c-4.231-13.299-8.798-26.502-14.049-39.444c-2.37,2.027-24.426,18.76-71.289-15.743c0,0,31.585-22.836,71.035,15.099    c-8.455-20.76-18.309-40.888-29.245-60.268c-59.636,9.774-69.481-18.249-69.481-18.249c35.771-11.332,55.539,0.876,64.627,9.995    c-6.919-11.738-14.183-23.209-21.973-34.228c-51.416-24.775-44.475-52.586-44.475-52.586    C121.139,105.425,129.594,128.728,131.352,140.982z"/>
	</g>
</g>
<g>
	<g>
		<path fill="#F2F2F2" d="M369.039,257.409c-6.916,5.818-13.54,12.037-19.998,18.457c12.805-25.247-2.044-40.416-2.044-40.416    c-14.607,28.867-7.62,42.326-4.151,46.634c-3.93,4.114-7.723,8.365-11.456,12.683c6.242-28.564-12.551-39.403-12.551-39.403    c-5.918,29.598,2.624,41.248,7.453,45.308c-5.968,7.223-11.627,14.718-17.018,22.402c3.975-30.843-16.981-39.683-16.981-39.683    c-2.45,31.732,8.627,41.704,13.617,44.566c-12.332,18.207-23.021,37.511-31.678,57.489c-1.094,2.523,2.854,4.129,3.949,1.601    c5.347-12.339,11.496-24.443,18.33-36.202c36.175,6.434,43.064-10.724,43.064-10.724c-17.662-6.374-29.551-3.466-36.954,0.821    c4.853-7.75,9.903-15.385,15.345-22.742c1.174,1.673,12.443,15.887,47.808,1.628c0,0-16.323-19.64-47.542-1.996    c8.749-11.797,18.283-22.965,28.383-33.481c36.254,15.923,47.069-0.257,47.069-0.257c-20.854-13.022-35.389-8.496-42.643-4.19    c6.304-6.322,12.784-12.418,19.523-18.141c36.668-7.342,36.796-26.123,36.796-26.123    C381.315,236.509,372.152,249.919,369.039,257.409z"/>
	</g>
</g>
<ellipse fill="#F2F2F2" cx="250" cy="420.191" rx="196.085" ry="3.447"/>
<g>
	<g>
		<g>
			<path fill="#D3D3D3" d="M260.384,83.538l-0.04,1.834c-12.453-0.261-24.161,4.332-32.966,12.933     c-8.856,8.651-13.565,20.171-13.236,32.386l-1.877,0.047c-0.304-12.737,4.563-24.72,13.786-33.73     C235.221,88.05,247.414,83.266,260.384,83.538z"/>
		</g>
		<g>
			<path fill="#D3D3D3" d="M261.905,95.89l-0.04,1.834c-9.693-0.203-18.805,3.372-25.657,10.066     c-6.893,6.733-10.559,15.692-10.301,25.206l-1.877,0.047c-0.259-10.022,3.591-19.459,10.851-26.55     C242.098,99.442,251.696,95.677,261.905,95.89z"/>
		</g>
		<g>
			<path fill="#D3D3D3" d="M260.206,107.373l-0.04,1.833c-6.073-0.128-11.784,2.112-16.078,6.307     c-4.319,4.219-6.622,9.831-6.455,15.794l-1.877,0.047c-0.167-6.491,2.319-12.561,7.005-17.138     C247.42,109.665,253.616,107.235,260.206,107.373z"/>
		</g>
		<g>
			<path fill="#D3D3D3" d="M264.376,128.601c0,1.665-0.648,3.329-1.946,4.596c-2.595,2.534-6.815,2.534-9.409,0     c-2.594-2.534-2.594-6.657,0-9.191c2.594-2.533,6.815-2.533,9.409,0l0,0C263.728,125.272,264.376,126.936,264.376,128.601z      M252.952,128.601c0,1.195,0.466,2.39,1.397,3.299c1.862,1.819,4.892,1.819,6.755,0c1.862-1.819,1.862-4.779,0-6.598l0,0     c-1.862-1.819-4.892-1.819-6.755,0C253.418,126.211,252.952,127.405,252.952,128.601z"/>
		</g>
	</g>
</g>
<g>
	<g>
		<path fill="#FFBE55" d="M405.321,363.043c-6.41-3.897-8.379-12.406-4.39-18.968c3.989-6.562,12.45-8.73,18.86-4.833    c6.41,3.897,8.379,12.406,4.39,18.968C420.192,364.772,411.731,366.94,405.321,363.043z M419.228,340.17    c-5.91-3.593-13.711-1.594-17.39,4.456c-3.678,6.051-1.863,13.897,4.048,17.49c5.911,3.593,13.712,1.594,17.39-4.457    C426.954,351.609,425.138,343.763,419.228,340.17z"/>
	</g>
	<path fill="#FFBE55" d="M420.16,351.708c1.298-5.181-5.196-3.682-6.088-3.198c0.019-1.015-2.251-7.049-5.641-3.933   c-3.91,3.593,0.078,12.887,0.036,13.026l-0.033,0.054c0,0,0.03,0.003,0.073,0.007c0.023,0.036,0.04,0.061,0.04,0.061l0.033-0.054   C409.863,357.786,419.069,356.064,420.16,351.708z"/>
</g>
<g>
	<g>
		<path fill="#FFBE55" d="M380.642,310.779c-3.516,3.891-6.832,7.987-10.035,12.185c5.354-15.469-4.401-22.908-4.401-22.908    c-6.103,17.685-1.007,24.794,1.333,26.968c-1.933,2.673-3.777,5.412-5.58,8.185c1.313-16.823-10.367-21.464-10.367-21.464    c-1.044,17.387,4.802,23.335,7.905,25.256c-2.858,4.615-5.516,9.361-8.006,14.191c-0.174-17.937-12.939-21.259-12.939-21.259    c1.123,18.319,8.293,23.101,11.392,24.324c-5.644,11.411-10.255,23.313-13.642,35.432c-0.428,1.531,1.972,2.122,2.4,0.589    c2.092-7.485,4.665-14.902,7.66-22.179c21.331,0.695,23.926-9.669,23.926-9.669c-10.673-2.185-17.282,0.454-21.2,3.511    c2.174-4.824,4.471-9.6,7.016-14.248c0.809,0.859,8.429,8.046,27.642-3.007c0,0-10.961-9.87-27.518,2.775    c4.094-7.456,8.689-14.617,13.662-21.453c22.134,6.106,27.066-4.022,27.066-4.022c-13.04-5.718-21.043-1.937-24.874,1.118    c3.123-4.129,6.366-8.143,9.787-11.965c20.516-7.211,19.091-17.945,19.091-17.945    C386.039,297.835,381.836,306.247,380.642,310.779z"/>
	</g>
</g>
<path fill="#D4E4FE" d="M328.247,124.355l-3.478-2.378c-0.631-0.431-1.491-0.269-1.922,0.361l-4.845,7.087  c-0.431,0.631-0.269,1.491,0.361,1.922l3.478,2.378c0.63,0.431,1.491,0.269,1.922-0.361l4.845-7.087  C329.039,125.646,328.877,124.786,328.247,124.355z M339.604,133.236l-3.372-2.305c-0.667-0.456-0.803-1.385-0.294-2.013  l1.775-2.189c0.088-0.108,0.158-0.229,0.21-0.358l1.29-3.228c0.24-0.601,0.031-1.289-0.504-1.655l0,0  c-0.63-0.431-1.491-0.269-1.922,0.361l-1.624,2.376c-0.166,0.242-0.405,0.426-0.681,0.524l-5.167,1.823  c-0.277,0.098-0.516,0.281-0.681,0.524l-4.019,5.879c-0.282,0.413-0.319,0.945-0.098,1.393l1.278,2.585  c0.105,0.213,0.263,0.395,0.459,0.529l4.869,3.328c0.47,0.322,1.09,0.322,1.56,0l6.196-4.232c0.142-0.097,0.265-0.22,0.362-0.361  l0.724-1.059C340.396,134.527,340.235,133.667,339.604,133.236z"/>
<g>
	<g>
		<g>
			<g>
				<g>
					<path opacity="0.48" fill="#D2F0FF" d="M339.102,393.29c0,11.63-9.516,21.146-21.146,21.146h-121.94       c-11.63,0-21.146-9.515-21.146-21.146V175.211c0-11.63,9.515-21.146,21.146-21.146h121.94c11.63,0,21.146,9.516,21.146,21.146       V393.29z"/>
					<path fill="#D2F0FF" d="M196.016,385.162c-6.996,0-12.687-5.205-12.687-11.602V174.126c0-6.398,5.691-11.603,12.687-11.603       h121.941c6.996,0,12.688,5.204,12.688,11.603v199.433c0,6.398-5.691,11.602-12.688,11.602H196.016z"/>
					<g>
						<defs>
							<path id="SVGID_1_" d="M196.016,377.427c-2.332,0-4.229-1.736-4.229-3.868V174.126c0-2.133,1.897-3.867,4.229-3.867h121.941         c2.333,0,4.229,1.734,4.229,3.867v199.433c0,2.132-1.897,3.868-4.229,3.868H196.016z"/>
						</defs>
						<use xlink:href="#SVGID_1_" overflow="visible" fill="#FFFFFF"/>
						<clipPath id="SVGID_2_">
							<use xlink:href="#SVGID_1_" overflow="visible"/>
						</clipPath>
						<rect x="176.391" y="331.122" opacity="0.48" clip-path="url(#SVGID_2_)" fill="#D2F0FF" width="154.254" height="69.375"/>
						<rect x="176.391" y="167.433" opacity="0.48" clip-path="url(#SVGID_2_)" fill="#D2F0FF" width="154.254" height="33.985"/>
					</g>
					<path fill="#FFFFFF" d="M251.107,399.556c0,4.162,3.374,7.536,7.536,7.536c4.162,0,7.536-3.374,7.536-7.536       c0-4.162-3.374-7.536-7.536-7.536C254.481,392.02,251.107,395.394,251.107,399.556z"/>
					<g>
						<path fill="#FFFFFF" d="M246.333,399.556c0.36,6.68,5.339,12.31,12.31,12.31c6.674,0,12.34-5.615,12.31-12.31        c-0.029-6.479-5.228-11.968-11.71-12.278C252.04,386.934,246.706,392.632,246.333,399.556c-0.09,1.674,2.514,1.669,2.604,0        c0.669-12.425,19.412-12.541,19.412,0c0,12.541-18.743,12.435-19.412,0C248.848,397.889,246.243,397.879,246.333,399.556z"/>
					</g>
				</g>
			</g>
		</g>
		<path fill="#41B4E6" d="M302.396,354.851h-88.421c-0.952,0-1.723,0.772-1.723,1.723c0,0.952,0.772,1.724,1.723,1.724h88.421    c0.952,0,1.723-0.772,1.723-1.724C304.119,355.623,303.347,354.851,302.396,354.851z"/>
		<path fill-rule="evenodd" clip-rule="evenodd" fill="#41B4E6" d="M206.437,354.093c-1.371,0-2.482,1.111-2.482,2.482    c0,1.371,1.111,2.482,2.482,2.482c1.371,0,2.482-1.111,2.482-2.482C208.919,355.204,207.807,354.093,206.437,354.093z"/>
		<path fill-rule="evenodd" clip-rule="evenodd" fill="#41B4E6" d="M206.437,363.473c-1.371,0-2.482,1.111-2.482,2.482    c0,1.371,1.111,2.482,2.482,2.482c1.371,0,2.482-1.111,2.482-2.482C208.919,364.584,207.807,363.473,206.437,363.473z"/>
		<path fill="#41B4E6" d="M302.396,364.232h-88.421c-0.952,0-1.723,0.772-1.723,1.723c0,0.952,0.772,1.724,1.723,1.724h88.421    c0.952,0,1.723-0.772,1.723-1.724C304.119,365.003,303.347,364.232,302.396,364.232z"/>
		<path fill="#41B4E6" d="M302.396,180.853h-88.421c-0.952,0-1.723,0.772-1.723,1.723s0.772,1.723,1.723,1.723h88.421    c0.952,0,1.723-0.772,1.723-1.723S303.347,180.853,302.396,180.853z"/>
		<path fill="#41B4E6" d="M302.396,190.233h-88.421c-0.952,0-1.723,0.772-1.723,1.723c0,0.952,0.772,1.724,1.723,1.724h88.421    c0.952,0,1.723-0.772,1.723-1.724C304.119,191.005,303.347,190.233,302.396,190.233z"/>
	</g>
	<g>
		<defs>
			<rect id="SVGID_3_" x="145.145" y="153.084" width="217.545" height="178.66"/>
		</defs>
		<clipPath id="SVGID_4_">
			<use xlink:href="#SVGID_3_" overflow="visible"/>
		</clipPath>
		<g clip-path="url(#SVGID_4_)">
			<g>
				<g>
					<path fill="#222B54" d="M238.453,490.296c-2.224-2.044-3.279-3.546-3.279-3.546c-1.742-0.584-10.735,0.597-11.689,1.455       c-0.953,0.858,1.566,4.309,1.566,4.309s2.826-1.767,1.84,1.631c-0.986,3.399,7.557,19.023,9.244,21.53       c1.687,2.507-1.686-9.442-1.768-15.372C234.286,494.374,238.453,490.296,238.453,490.296z"/>
				</g>
			</g>
			<g>
				<g>
					<g>
						<path fill="#FFFFFF" d="M313.709,427.54c5.451-16.325-22.853-70.89-22.853-70.89s-37.13-63.015-45.559-37.98        c-8.429,25.035,28.124,88.948,31.695,93.695c3.57,4.747,2.396,9.127,2.396,9.127c-20.888,13.359-39.398,61-39.398,61        c4.278,4.214,5.333,5.373,5.333,5.373C254.971,473.25,308.258,443.865,313.709,427.54z"/>
						<path fill="#BACEDB" d="M245.376,488.476l-0.329-0.362c-0.01-0.013-1.106-1.213-5.318-5.357l-0.182-0.179l0.09-0.232        c0.186-0.476,18.717-47.714,39.414-61.092c0.149-0.75,0.71-4.588-2.359-8.668c-2.868-3.813-40.278-68.724-31.753-94.044        c1.29-3.831,3.341-5.886,6.096-6.107c13.404-1.077,39.058,42.19,40.143,44.033c1.17,2.252,28.327,54.915,22.888,71.202l0,0        c-3.096,9.269-21.005,22.388-38.325,35.075c-13.322,9.758-25.905,18.975-30.104,25.335L245.376,488.476z M264.373,321.138        c-4.889-4.925-9.602-8.246-13.255-7.953c-2.437,0.196-4.275,2.085-5.464,5.615c-8.435,25.055,28.784,89.552,31.635,93.344        c3.642,4.842,2.512,9.269,2.461,9.455l-0.036,0.137l-0.118,0.076c-19.806,12.667-37.73,56.984-39.164,60.596        c2.914,2.873,4.279,4.274,4.836,4.858c4.507-6.448,16.906-15.53,30.017-25.134c17.229-12.62,35.044-25.669,38.066-34.719l0,0        c5.339-15.988-22.546-70.051-22.829-70.595C290.341,356.509,276.79,333.647,264.373,321.138z"/>
					</g>
				</g>
			</g>
			<g>
				<g>
					<g>
						<path fill="#FFFFFF" d="M238.807,329.207c-20.687,22.264-3.59,62.333,0.223,69.85c5.872,11.576,2.493,22.426,2.493,22.426        c-15.297,44.129,3.795,82.334,3.795,82.334c2.466,3.529,4.753,1.413,4.753,1.413c2.341-24.328,18.763-76.146,27.341-107.938        c7.83-29.018-0.601-62.463-1.815-67.667L238.807,329.207z"/>
						<path fill="#BACEDB" d="M275.274,329.624c1.183,4.665,9.466,39.136,1.792,67.574c-2.173,8.053-4.844,17.374-7.673,27.244        c-8.381,29.242-17.876,62.373-19.664,80.602c-0.228,0.166-0.825,0.529-1.594,0.443c-0.872-0.098-1.722-0.725-2.497-1.832        c-0.19-0.381-18.845-38.584-3.773-82.067c0.034-0.11,3.354-11.121-2.516-22.694c-3.773-7.44-20.022-48.862-0.495-69.734        l-0.881-0.046c-19.342,25-3.062,62.612,0.738,70.104c5.733,11.305,2.503,22.051,2.474,22.147        c-15.171,43.765,3.621,82.227,3.84,82.655c0.264,0.379,0.536,0.708,0.816,0.99c0.701,0.707,1.448,1.105,2.229,1.19        c1.31,0.141,2.208-0.673,2.245-0.707l0.1-0.093l0.012-0.136c1.745-18.131,11.26-51.332,19.655-80.624        c2.829-9.872,5.501-19.197,7.676-27.255c7.717-28.596-0.482-62.07-1.797-67.76H275.274z"/>
					</g>
				</g>
			</g>
			<g>
				<g>
					<path fill="#222B54" d="M256.506,511.082c-5.353-2.683-6.981-8.397-6.981-8.397c-2.911,1.086-4.77,1.354-4.77,1.354       c-1.37,1.323-4.682,10.109-4.377,11.381c0.306,1.272,4.622,0.57,4.622,0.57s-0.21-3.41,2.356-0.926       c2.566,2.484,20.716,1.928,23.782,1.549C274.203,516.235,261.859,513.765,256.506,511.082z"/>
				</g>
			</g>
			<g>
				<g>
					<g>
						<path fill="#41B4E6" d="M272.054,246.892c-7.9-1.548-15.977-2.357-24.025-1.96c-0.904,0.045-1.807,0.104-2.71,0.18        c-7.631,0.64-17.967,1.798-23.389,7.561c-4.175,4.437-6.668,10.909-5.859,17.031c0.811,6.135,7.454,9.006,9.47,14.975        c4.791,14.182,8.468,46.515,9.277,48.61c0,0,21.401,16.514,38.352,0.608c1.669-1.566,4.953-12.62,5.753-15.073        c1.34-4.111,2.69-8.219,3.971-12.348c2.639-8.506,5.047-17.11,6.556-25.896c1.235-7.189,3.937-19.359,1.212-26.396        C288.398,248.338,277.568,247.972,272.054,246.892z"/>
					</g>
				</g>
			</g>
			<path fill="#D2F0FF" d="M191.814,276.964c0.599,0.09,1.196,0.175,1.789,0.256c6.343,0.863,12.722,1.367,19.083,2.07     c5.097,0.564,10.456,1.69,15.308-0.61c5.407-2.564,4.119-8.405,4.537-14.374c0.354-5.058,3.28-13.687-1.596-16.16     c-4.472-2.268-25.203,8.806-35.698,3.249c-5.983-3.168-28.795-35.082-32.253-32.599c-1.912,1.373-3.915,3.439-3.794,5.445     c0.294,4.859,5.292,13.266,7.202,17.449C169.344,248.152,181.762,275.453,191.814,276.964z"/>
			<g>
				<g>
					<path fill="#FFBE55" d="M263.729,216.022c-1.789-2.673-23.072,9.708-24.599,14.135c-1.527,4.427,8.101,11.067,9.689,11.475       c1.589,0.408,16.571-2.65,19.045-6.704c2.473-4.054-0.861-13.898-0.861-13.898S265.517,218.696,263.729,216.022z"/>
				</g>
			</g>
			<g>
				<g>
					<g>
						<path fill="#414C96" d="M264.718,209.633c-1.319,0.573-4.531,0.4-1.789-2.673c2.743-3.073-4.185-6.024-15.148,0.149        c-10.963,6.173-9.921,10.739-10.094,13.951c-0.173,3.212-1.493,3.785-0.685,6.728c0.808,2.943-0.885,4.462,3.438,7.916        c4.324,3.454,7.501,4.27,6.928,2.951c-0.573-1.319-6.928-2.951-5.47-6.093c1.458-3.143,4.697,2.508,4.835-0.061        c0.139-2.569,0.312-5.781,0.312-5.781c6.051,1.293,13.333-8.3,13.333-8.3c2.023,4.297,6.485,5.182,6.485,5.182l0.2,2.266        l0.842,2.3l1.016-0.912c0,0-0.869-7.778-1.104-9.401c-0.235-1.623,0.712-1.25,1.119-2.839c0.408-1.589-2.908,0.165-2.839-1.12        c0.069-1.285,3.047-2.735,3.116-4.019C269.283,208.591,266.037,209.06,264.718,209.633z"/>
					</g>
				</g>
			</g>
			<g>
				<g>
					<g>
						<path fill="#414C96" d="M270.502,233.782c-0.773-3.585-1.581-6.528-1.581-6.528l-1.016,0.912l0.269,0.981        c0,0,0.235,1.623-0.477,2.873c-0.712,1.25-7.743,0.227-11.874,5.158c-4.131,4.931-9.089-4.678-9.089-4.678l-1.378,0.202        c0,0,4.582,6.091,2.012,5.953c-2.569-0.139-4.543-1.225-4.543-1.225s3.52,8.256,10.717,12.187        c7.197,3.931,21.606-0.445,23.064-3.588C278.064,242.887,271.275,237.367,270.502,233.782z"/>
					</g>
				</g>
			</g>
			<path fill="#D2F0FF" d="M288.272,251.201c0,0-16.999,14.601-5.409,44.121c11.591,29.521,24.835,21.019,24.835,21.019     s1.121-4.17-4.83-33.863C296.917,252.784,288.272,251.201,288.272,251.201z"/>
			<g>
				<g>
					<path fill="#D2F0FF" d="M315.233,240.254c0.01,0.01-0.028,0.091-0.031,0.097c-5.366,12.802-11.447,25.317-16.936,38.07       c-3.201,7.439-6.462,14.904-9.087,22.571c-2.96,8.647,3.654,16.23,11.947,17.451c6.657,0.98,11.63-3.216,14.163-9.107       c8.373-19.478,5.433-67.838,5.433-67.838C318.031,242.226,315.234,240.254,315.233,240.254z"/>
				</g>
			</g>
			<path fill="#FFBE55" d="M160.86,223.247c1.099-0.753,2.133-1.63,3.232-2.383c0.622-0.427,1.263-0.689,1.884-0.785     c0.104-1.556,0.092-3.343-0.197-5.18c-0.833-5.292-3.757-8.685-3.847-6.113c-0.09,2.573,1.452,6.216,0.466,8.162     c-0.986,1.945-8.454-7.34-8.508-9.05c-0.054-1.71-2.227-3.614-2.71,0.974c-0.484,4.587,5.325,14.422,8.196,16.105     c0.06,0.035,0.12,0.05,0.18,0.082C159.818,224.321,160.255,223.662,160.86,223.247z"/>
			<path fill="#2A94F4" d="M322.44,249.721l2.668-0.943c1.831-0.647,2.79-2.656,2.144-4.487l-8.075-22.872     c-0.647-1.832-2.657-2.792-4.488-2.145l-2.669,0.943c-1.831,0.647-2.79,2.656-2.144,4.487l8.076,22.872     C318.599,249.408,320.609,250.368,322.44,249.721z"/>
			<g>
				<g>
					<path fill="#FFBE55" d="M323.074,229.892c-3.988-2.452-5.818,6.869-2.567,9.25C327.048,243.931,327.79,232.792,323.074,229.892       z"/>
				</g>
			</g>
			<g>
				<g>
					<path fill="#FFBE55" d="M314.349,237.396c-0.216-1.115-0.812-3.006,0.061-3.926c0.497-0.524,1.183-0.864,1.591-1.459       c0.408-0.596,0.317-1.633-0.386-1.797c-0.24-0.056-0.492,0.006-0.726,0.084c-4.553,1.501-3.328,5.918-1.553,9.278       c0.229,0.434,0.494,0.871,0.902,1.146c0.301,0.202,0.625,0.277,0.965,0.164C315.288,239.788,314.568,238.525,314.349,237.396z"/>
				</g>
			</g>
			<polygon fill="#0B4870" points="333.262,218.776 363.557,224.445 344.644,167.798 323.959,192.418    "/>
			
				<rect x="305.004" y="195.672" transform="matrix(-0.9428 0.3333 -0.3333 -0.9428 686.0531 301.5885)" fill="#2A94F4" width="24.301" height="27.951"/>
			
				<rect x="302.123" y="200.336" transform="matrix(-0.9428 0.3334 -0.3334 -0.9428 661.9828 315.0363)" fill="#0B4870" width="3.682" height="27.951"/>
			
				<rect x="297.221" y="207.492" transform="matrix(-0.9428 0.3334 -0.3334 -0.9428 654.3805 319.2868)" fill="#2A94F4" width="5.155" height="16.585"/>
		</g>
	</g>
</g>
<g>
	<path fill="#D2F0FF" d="M335.217,336.965c1.427,0.555,2.869,1.482,4.317,2.829c11.043,10.285-2.527,49.874-10.361,63.054   l-10.069,12.047c0.286-6.318-6.092-39.691-6.227-48.048c-0.208-12.9,9.682-33.226,21.183-30.264   C334.439,336.682,334.826,336.808,335.217,336.965z"/>
	<path fill="#41B4E6" d="M359.516,338.36c0.087,0.046,0.176,0.101,0.265,0.155c0.937,0.574,1.749,1.339,2.502,2.155   c5.895,6.411,8.036,16.053,5.405,24.356c-0.932,2.945-2.403,5.689-3.979,8.347c-7.742,13.055-18.25,24.451-30.612,33.261   l-13.993,8.26c2.348-3.758,7.808-24.053,9.227-28.243c2.105-6.239,2.799-12.854,3.818-19.356   c1.022-6.507,2.425-13.099,5.766-18.769c3.34-5.678,8.933-10.37,15.479-11.126c1.781-0.205,3.653-0.101,5.307,0.576   C358.979,338.085,359.252,338.212,359.516,338.36z"/>
	<path fill="#D9FDFF" d="M319.878,414.105c-0.264,0.277-0.522,0.541-0.775,0.789C319.358,414.645,319.617,414.381,319.878,414.105z"/>
	<path fill="#D9FDFF" d="M319.878,414.105c0.079-0.083,0.161-0.174,0.24-0.259C320.038,413.932,319.958,414.022,319.878,414.105z"/>
	<path fill="#D9FDFF" d="M346.225,371.557c3.127-6.107,6.35-12.375,8.251-18.99c1.4-4.889,2.11-10.004,4.225-14.591   c0.279,0.11,0.551,0.237,0.815,0.385c0.087,0.046,0.176,0.101,0.265,0.155c-2.385,5.128-2.973,10.988-4.75,16.368   c-2.269,6.874-5.695,13.459-9.077,19.837c-4.99,9.414-17.814,30.547-25.835,39.126   C328.683,404.646,340.967,381.835,346.225,371.557z"/>
	<path fill="#FFFFFF" d="M328.664,368.641c-2.284,9.445-5.796,37.306-9.56,46.253c4.042-9.658,6.718-39.044,9.013-49.268   c1.393-6.195,2.346-12.441,3.191-18.726c0.496-3.663,1.119-7.323,2.472-10.692c0.382,0.101,0.771,0.228,1.165,0.385   c-1.695,4.156-2.191,8.777-2.787,13.267C331.321,356.179,330.159,362.448,328.664,368.641z"/>
	<path fill="#2A94F4" d="M386.813,374.996c0.171,0.385,0.326,0.791,0.463,1.211c1.484,4.459,1.008,10.432-3.283,16.868   c-8.264,12.396-58.385,21.145-64.89,21.818l9.553-11.66c5.982-6.55,41.215-34.079,48.559-34.859   C380.954,367.975,384.878,370.59,386.813,374.996z"/>
	<path fill="#FFFFFF" d="M376.824,382.729c3.461-2.4,6.75-5.04,9.989-7.732c0.171,0.385,0.326,0.791,0.463,1.211   c-3.031,2.509-6.1,4.969-9.32,7.224c-4.718,3.307-9.698,5.804-14.975,8.087c-7.911,3.422-15.766,6.993-23.355,11.066   c8.009-4.699,16.101-9.245,21.046-11.396C366.318,388.729,371.743,386.251,376.824,382.729z"/>
	<path fill="#407BDB" d="M319.104,414.894l13.718-8.471c2.239-1.334,4.511-2.606,6.805-3.837   C331.632,407.277,323.719,412.122,319.104,414.894z"/>
</g>
<g>
	<g>
		<g>
			<path fill="#41B4E6" d="M103.485,403.111c-0.442-0.242-0.881-0.487-1.317-0.738l0.499-0.867c0.429,0.247,0.862,0.49,1.298,0.729     L103.485,403.111z"/>
		</g>
		<g>
			<path fill="#41B4E6" d="M126.258,409.778c-0.221-0.002-0.441-0.007-0.661-0.014c-0.769-0.024-1.557-0.074-2.341-0.146     l0.093-0.996c0.764,0.071,1.531,0.119,2.279,0.143c0.213,0.007,0.426,0.012,0.639,0.014L126.258,409.778z M129.262,409.684     l-0.075-0.998c0.966-0.072,1.941-0.189,2.899-0.348l0.163,0.986C131.262,409.487,130.257,409.608,129.262,409.684z      M120.28,409.227c-0.973-0.165-1.961-0.368-2.938-0.603l0.234-0.973c0.954,0.229,1.92,0.428,2.87,0.589L120.28,409.227z      M135.193,408.694l-0.254-0.967c0.944-0.248,1.88-0.541,2.782-0.873l0.346,0.938     C137.135,408.136,136.168,408.439,135.193,408.694z M114.454,407.831c-0.929-0.286-1.882-0.611-2.833-0.966l0.35-0.938     c0.933,0.349,1.868,0.667,2.779,0.948L114.454,407.831z M140.84,406.608l-0.44-0.898c0.877-0.43,1.731-0.908,2.538-1.42     l0.536,0.844C142.636,405.666,141.749,406.162,140.84,406.608z M108.846,405.746c-0.901-0.392-1.813-0.814-2.711-1.257     l0.441-0.896c0.884,0.435,1.782,0.851,2.668,1.235L108.846,405.746z M145.925,403.366l-0.633-0.775     c0.752-0.614,1.469-1.277,2.128-1.97l0.725,0.689C147.457,402.033,146.71,402.725,145.925,403.366z M150.075,398.971l-0.814-0.58     c0.557-0.782,1.066-1.612,1.512-2.467l0.887,0.463C151.191,397.282,150.658,398.151,150.075,398.971z M152.878,393.612     l-0.94-0.34c0.328-0.908,0.595-1.845,0.793-2.783l0.979,0.207C153.501,391.68,153.222,392.66,152.878,393.612z M154.124,387.69     l-0.998-0.064c0.027-0.411,0.04-0.822,0.04-1.233c0-0.555-0.025-1.11-0.074-1.651l0.996-0.09     c0.051,0.571,0.078,1.157,0.078,1.741C154.166,386.825,154.152,387.258,154.124,387.69z M152.601,381.905     c-0.244-0.934-0.569-1.843-0.968-2.704l0.907-0.42c0.423,0.915,0.769,1.881,1.028,2.87L152.601,381.905z M150.207,376.703     c-0.527-0.773-1.133-1.532-1.799-2.257l0.735-0.678c0.7,0.761,1.335,1.558,1.89,2.37L150.207,376.703z M146.314,372.435     c-0.697-0.599-1.472-1.203-2.301-1.797l0.582-0.813c0.853,0.61,1.651,1.232,2.371,1.85L146.314,372.435z M141.574,369.005     c-0.825-0.521-1.669-1.025-2.522-1.523l0.504-0.863c0.863,0.504,1.717,1.015,2.552,1.541L141.574,369.005z M136.485,366.009     l0.247-0.435l-0.274,0.419c-0.852-0.483-1.705-0.969-2.552-1.463l0.504-0.863c0.843,0.491,1.694,0.975,2.542,1.457     L136.485,366.009z M131.35,362.994c-0.922-0.577-1.739-1.118-2.497-1.654l0.577-0.816c0.743,0.525,1.544,1.056,2.45,1.623     L131.35,362.994z M126.465,359.516c-0.798-0.664-1.543-1.352-2.215-2.044l0.718-0.697c0.647,0.668,1.367,1.331,2.137,1.974     L126.465,359.516z M122.289,355.16c-0.592-0.808-1.135-1.671-1.616-2.566l0.882-0.473c0.458,0.854,0.976,1.678,1.541,2.447     L122.289,355.16z M119.425,349.832c-0.351-0.936-0.645-1.911-0.875-2.898l0.974-0.227c0.221,0.945,0.503,1.879,0.838,2.775     L119.425,349.832z M118.045,343.953c-0.092-0.866-0.139-1.751-0.14-2.629l0.003-0.393l1,0.016l-0.003,0.377     c0,0.843,0.045,1.691,0.134,2.523L118.045,343.953z M119.131,338.055l-0.99-0.139c0.139-1.002,0.342-1.999,0.602-2.965     l0.966,0.26C119.459,336.137,119.265,337.093,119.131,338.055z M120.64,332.468l-0.924-0.383     c0.389-0.938,0.842-1.853,1.347-2.715l0.863,0.504C121.444,330.698,121.011,331.571,120.64,332.468z M123.559,327.488     l-0.782-0.623c0.178-0.224,0.36-0.443,0.547-0.659c0.46-0.531,0.962-1.062,1.49-1.576l0.697,0.717     c-0.508,0.494-0.99,1.004-1.432,1.515C123.9,327.066,123.728,327.276,123.559,327.488z M127.698,323.414l-0.63-0.777     c0.707-0.571,1.487-1.163,2.386-1.809l0.583,0.813C129.153,322.274,128.388,322.854,127.698,323.414z M132.462,319.959     l-0.561-0.828l2.457-1.658l0.563,0.826L132.462,319.959z M137.361,316.584l-0.591-0.807c0.864-0.633,1.621-1.222,2.313-1.803     l0.642,0.768C139.016,315.336,138.243,315.938,137.361,316.584z M141.925,312.67l-0.729-0.684     c0.669-0.714,1.292-1.465,1.85-2.235l0.81,0.588C143.272,311.142,142.623,311.927,141.925,312.67z M145.461,307.762l-0.886-0.465     c0.462-0.88,0.837-1.771,1.116-2.647l0.953,0.303C146.348,305.885,145.95,306.83,145.461,307.762z M147.251,301.942l-0.997-0.082     c0.024-0.296,0.037-0.592,0.037-0.89c0-0.655-0.062-1.302-0.185-1.924l0.981-0.193c0.135,0.685,0.204,1.397,0.204,2.117     C147.291,301.296,147.278,301.619,147.251,301.942z M145.161,296.404c-0.426-0.8-0.983-1.571-1.654-2.292l0.732-0.682     c0.729,0.784,1.336,1.626,1.804,2.503L145.161,296.404z M141.355,292.219c-0.717-0.527-1.517-1.042-2.444-1.57l0.495-0.869     c0.961,0.549,1.792,1.083,2.542,1.635L141.355,292.219z"/>
		</g>
		<g>
			<path fill="#41B4E6" d="M136.243,289.254c-0.45-0.22-0.9-0.435-1.347-0.646l0.428-0.904c0.45,0.213,0.904,0.43,1.358,0.651     L136.243,289.254z"/>
		</g>
	</g>
	<g>
		<path fill="#41B4E6" d="M126.256,330.733c-2.777-1.848-6.393-1.848-9.17,0l-21.185,14.095c-0.792,0.527-1.268,1.415-1.268,2.367    v32.766h54.076v-32.766c0-0.952-0.476-1.84-1.268-2.367L126.256,330.733z"/>
		<path fill="#FFFFFF" d="M148.709,346.777l-22.478,17.841c-2.798-1.75-6.323-1.75-9.121,0l-22.478-17.842v0.847l21.889,17.375    l-21.889,14.564v0.398h0.599l22.038-14.663c2.674-1.778,6.129-1.778,8.803,0l22.037,14.663h0.599v-0.398l-21.889-14.564    l21.889-17.375V346.777z"/>
		<g>
			<g>
				<path fill="#FFFFFF" stroke="#FFFFFF" stroke-width="0.25" stroke-miterlimit="10" d="M117.111,364.618      c2.798-1.75,6.323-1.75,9.121,0l16.905-13.418v-19.572l-7.109-7.109h-35.821V351.2L117.111,364.618z"/>
			</g>
			
				<polygon fill="#D3D3D3" stroke="#D7DDEF" stroke-width="0.25" stroke-linecap="round" stroke-linejoin="round" stroke-miterlimit="10" points="     136.027,331.628 143.136,331.628 136.027,324.519    "/>
		</g>
		<g>
			
				<rect x="108.496" y="336.448" fill="#D3D3D3" stroke="#D7DDEF" stroke-width="0.25" stroke-linecap="round" stroke-linejoin="round" stroke-miterlimit="10" width="26.222" height="2.108"/>
			
				<rect x="108.496" y="340.309" fill="#D3D3D3" stroke="#D7DDEF" stroke-width="0.25" stroke-linecap="round" stroke-linejoin="round" stroke-miterlimit="10" width="26.222" height="2.108"/>
			
				<rect x="108.496" y="344.171" fill="#D3D3D3" stroke="#D7DDEF" stroke-width="0.25" stroke-linecap="round" stroke-linejoin="round" stroke-miterlimit="10" width="26.222" height="2.108"/>
			
				<rect x="108.496" y="348.032" fill="#D3D3D3" stroke="#D7DDEF" stroke-width="0.25" stroke-linecap="round" stroke-linejoin="round" stroke-miterlimit="10" width="26.222" height="2.108"/>
			
				<rect x="108.496" y="351.893" fill="#D3D3D3" stroke="#D7DDEF" stroke-width="0.25" stroke-linecap="round" stroke-linejoin="round" stroke-miterlimit="10" width="26.222" height="2.108"/>
		</g>
	</g>
	<g>
		<polygon fill="#41B4E6" points="130.821,286.258 130.821,280.245 97.09,267.31   "/>
		<polygon fill="#225DD9" points="129.741,282.77 130.821,286.258 97.09,267.31   "/>
		<path fill="#0B4870" d="M129.741,282.77l-6.467,15.119L97.09,267.31L129.741,282.77z M130.821,280.245l5.15-12.04L97.09,267.31    L130.821,280.245z"/>
	</g>
</g>
</svg>