<svg xmlns="http://www.w3.org/2000/svg" xmlns:xlink="http://www.w3.org/1999/xlink" version="1.1" id="Layer_1" x="0px" y="0px" viewBox="0 0 1080 1080" enable-background="new 0 0 1080 1080" xml:space="preserve">
<path opacity="0.05" fill="#2A94F4" d="M227,712.615C227,550.456,358.456,419,520.615,419s293.615,131.456,293.615,293.615"/>
<g>
	<g>
		<g>
			<rect x="425.659" y="644.932" fill="#FFBE55" width="27.166" height="68.202"/>
		</g>
	</g>
</g>
<g>
	<g>
		<g>
			<rect x="486.875" y="585.06" fill="#2A94F4" width="27.168" height="128.075"/>
		</g>
	</g>
</g>
<g>
	<g>
		<g>
			<rect x="548.094" y="598.303" fill="#FFBE55" width="27.166" height="114.831"/>
		</g>
	</g>
</g>
<g>
	<g>
		<g>
			<rect x="609.311" y="533.469" fill="#2A94F4" width="27.167" height="179.666"/>
		</g>
	</g>
</g>
<path fill="#D3D3D3" d="M887,761H172c-13.255,0-24-10.745-24-24l0,0c0-13.255,10.745-24,24-24h715c13.255,0,24,10.745,24,24l0,0  C911,750.255,900.255,761,887,761z"/>
<path fill="#FA968C" d="M485.093,421.591c-0.139-2.324-4.159-7.057-3.546-7.65c0.441-0.426,2.006,1.037,2.851,1.892  c0.099,0.1,0.246,0.133,0.378,0.085c0.132-0.048,0.223-0.168,0.234-0.308c0.184-2.283,0.755-8.673,1.393-8.733  c0.646-0.061,0.969,3.981,1.059,5.338c0.003,0.041,0.034,0.075,0.075,0.08c0.041,0.005,0.08-0.019,0.093-0.058  c0.497-1.436,2.173-6.071,2.892-5.476c0.684,0.566-0.377,5.005-0.817,6.713c-0.011,0.042,0.011,0.086,0.052,0.102  c0.04,0.016,0.086,0,0.108-0.038c0.865-1.53,3.147-5.409,3.763-4.914c0.627,0.505-1.14,4.71-1.795,6.202  c-0.017,0.039-0.003,0.085,0.033,0.108c0.036,0.023,0.083,0.016,0.112-0.016c0.988-1.116,3.575-3.96,3.56-3.124  c-0.018,1.033-4.562,9.625-6.05,11.063C488,424.298,485.093,421.591,485.093,421.591z"/>
<g>
	<path fill="#FA968C" d="M444.299,450.349c3.08,6.824,7.512,14.575,12.871,19.895c10.427,10.32,23.809,7.624,28.48-16.511   c0.813-3.637,1.38-7.258,1.857-10.872c0.971-7.22,1.346-14.418,1.679-21.594c0.05-1.086-0.79-2.008-1.876-2.058   c-0.984-0.046-1.832,0.639-2.021,1.575l-0.008,0.04c-1.413,6.967-2.834,13.92-4.656,20.684c-0.937,3.37-1.908,6.712-3.039,9.933   c-0.981,3.051-4.922,12.53-7.987,13.458c-0.101-0.017-0.201,0.115-0.26,0.058c-0.056-0.052-0.085-0.057-0.12-0.026   c-0.057-0.076-0.096-0.109-0.146-0.099c-0.169-0.136-0.366-0.159-0.729-0.454c-0.668-0.438-1.582-1.302-2.45-2.38   c-1.779-2.108-3.435-4.894-4.892-7.786c-2.528-4.905-3.993-8.432-3.993-8.432c-3.112-8.533-16.019-4.447-12.903,4.097   C444.163,450.032,444.232,450.2,444.299,450.349z"/>
	<path fill="#FFBE55" d="M464.985,459.533c-0.011-0.017-0.024-0.033-0.036-0.05c-1.574-2.304-3.034-4.711-4.38-7.18   c-1.334-2.409-2.694-5.086-3.646-7.364l-0.047-0.114c-0.077-0.182-0.162-0.362-0.255-0.54c-1.77-3.362-5.929-4.652-9.291-2.883   c-3.362,1.77-4.652,5.929-2.883,9.291c1.66,3.153,3.267,5.732,5.102,8.446c1.242,1.791,2.564,3.529,3.925,5.24   C454.488,463.297,462.563,460.401,464.985,459.533z"/>
	<path fill="#FAB9AF" d="M458.248,507.307c-5.985,6.867-40.53,9.733-40.53,9.733c-2.549-2.959,1.178-16.408,2.077-30.06   c0.972-14.761,1.532-31.053,1.788-39.856c0.106-3.633,3.08-6.515,6.714-6.515h21.922c3.379,0,6.192,2.578,6.47,5.946   c0.575,6.97,1.576,19.084,2.563,30.961C460.253,489.566,463.421,501.371,458.248,507.307z"/>
	<path fill="#FA968C" d="M438.32,622.066l0.05,13.587l-1.18,6.617c-0.204,1.146,0.643,2.206,1.807,2.241   c5.562,0.171,19.805,0.546,20.186-0.071c1.791-2.897-6.304-4.012-12.226-6.304c-5.922-2.292-1.836-24.778-1.836-24.778   L438.32,622.066z"/>
	<path fill="#0B4870" d="M446.957,638.136c-0.032-0.012-0.059-0.033-0.09-0.047c-1.411,0.527-2.999,0.837-4.789,0.837   c-1.535,0-2.926-0.222-4.182-0.615l-0.706,3.959c-0.204,1.146,0.643,2.206,1.807,2.241c5.562,0.171,19.805,0.546,20.186-0.071   C460.973,641.544,452.878,640.428,446.957,638.136z"/>
	<path fill="#0091C8" d="M458.239,512.259c0.214,9.444-3.5,69.357-10.837,69.523c-7.337,0.166-15.517-59.477-15.732-68.921   c-0.214-9.444,5.56-17.234,12.896-17.4C451.904,495.295,458.025,502.815,458.239,512.259z"/>
	<path fill="#0B4870" d="M437.269,569.336c-0.728,5.198-0.846,38.504,0.324,55.424h6.679c3.587-16.413,7.42-48.222,8.132-53.304   c0.009-0.065,0.013-0.128,0.021-0.193c3.991-17.658,5.972-52.041,5.814-59.004c-0.214-9.444-6.336-16.964-13.672-16.798   c-7.337,0.167-13.11,7.957-12.896,17.4C431.805,518.79,437.614,566.874,437.269,569.336z"/>
	<path fill="#FA968C" d="M422.29,622.066l0.05,13.587l-1.18,6.617c-0.204,1.146,0.643,2.206,1.807,2.241   c5.562,0.171,19.805,0.546,20.186-0.071c1.791-2.897-6.304-4.012-12.226-6.304c-5.922-2.292-1.836-24.778-1.836-24.778   L422.29,622.066z"/>
	<path fill="#0B4870" d="M430.927,638.136c-0.032-0.012-0.059-0.033-0.09-0.047c-1.411,0.527-2.999,0.837-4.789,0.837   c-1.535,0-2.926-0.222-4.182-0.615l-0.706,3.959c-0.204,1.146,0.643,2.206,1.807,2.241c5.562,0.171,19.804,0.546,20.186-0.071   C444.944,641.544,436.849,640.428,430.927,638.136z"/>
	<path fill="#0091C8" d="M442.21,512.259c0.214,9.444-3.5,69.357-10.837,69.523c-7.337,0.166-13.93-59.697-14.145-69.141   c-0.214-9.444,3.973-17.014,11.309-17.18C435.874,495.295,441.995,502.815,442.21,512.259z"/>
	<path fill="#0B4870" d="M421.239,569.336c-0.728,5.198-0.846,38.504,0.324,55.424h6.679c3.587-16.413,7.42-48.222,8.132-53.304   c0.009-0.065,0.013-0.128,0.021-0.193c3.991-17.658,7.559-52.261,7.401-59.224c-0.214-9.444-7.922-16.744-15.259-16.578   c-7.337,0.167-11.524,7.737-11.309,17.18C417.363,518.57,421.584,566.874,421.239,569.336z"/>
	<path fill="#FFBE55" d="M450.426,440.61h-3.562c-1.24,2.871-3.864,5.09-7.936,5.09c-4.079,0-6.702-2.218-7.94-5.09h-3.251   c-3.323,0-6.044,2.628-6.139,5.95c-0.248,8.656-0.811,25.338-1.804,40.42c-0.899,13.652-4.626,26.338-2.077,30.06   c0,0,34.545-2.867,40.53-9.733c5.173-5.936,2.005-17.741,1.003-29.791c-0.997-11.992-2.008-24.227-2.58-31.163   C456.404,443.103,453.688,440.61,450.426,440.61z"/>
	<path fill="#0B4870" d="M437.984,432.632L437.984,432.632c-3.357,0.746-6.682-1.37-7.429-4.727l-1.771-7.962l6.077-1.351   L437.984,432.632z"/>
	<g>
		<polygon fill="#FAB9AF" points="443.413,440.61 431.951,440.61 435.256,429.182 443.069,430.149   "/>
	</g>
	<path fill="#FA968C" d="M443.069,430.149l-7.813-0.967l-1.54,5.326c1.749,1.972,4.343,5.033,7.186,5.033   c0.902,0,1.724-0.254,2.463-0.723L443.069,430.149z"/>
	<path fill="#FAB9AF" d="M444.252,436.223L444.252,436.223c-5.146,1.144-10.246-2.1-11.39-7.246l-2.308-10.38l15.982-3.554   c0,0,1.802,8.103,1.854,13.831C448.428,433.171,446.875,435.639,444.252,436.223z"/>
	
		<rect x="430.701" y="422.417" transform="matrix(0.9762 -0.2171 0.2171 0.9762 -81.5403 103.9167)" fill="#41378C" width="3.077" height="1.395"/>
	<path fill="#FAB9AF" d="M435.135,426.411c0.45,2.025-0.154,3.883-1.35,4.149c-1.196,0.266-3.105-2.096-3.555-4.121   c-0.45-2.025,0.729-2.948,1.924-3.214C433.35,422.959,434.684,424.385,435.135,426.411z"/>
	<path fill="#0B4870" d="M448.593,419.065c0.086-1.376-0.138-2.753-0.656-4.031l0,0c-1.285-3.17-4.835-4.534-8.065-3.41   c-0.33,0.115-0.68,0.215-1.05,0.297l-5.394,1.197c-3.242,0.72-5.286,3.931-4.565,7.173l0.28,1.257l3.198,1.855l1.303,2.27   l0.211-0.047c1.029-0.229,1.693-1.217,1.532-2.245c-0.265-1.695,0.577-3.35,2.252-3.723l4.787-1.065   c2.914-0.648,4.777,0.58,5.262,2.759l0.261,1.877L448.593,419.065z"/>
	<path fill="#0B4870" d="M432.453,415.28c-0.366,2.961,10.276,6.713,13.083,7.06c2.807,0.347,5.378-1.773,5.744-4.734   c0.366-2.961-1.613-5.643-4.42-5.989C444.054,411.27,432.819,412.319,432.453,415.28z"/>
	<path fill="#FAB9AF" d="M420.293,451.784c3.53,4.812,9.582,11.14,16.827,16.604c22.16,16.161,45.876,17.795,65.216-0.498   c0.791-0.748,0.826-1.996,0.078-2.788c-0.64-0.676-1.645-0.8-2.417-0.354l-0.089,0.052c-12.613,7.28-23.906,10.268-38.124,4.295   c-18.64-8.032-31.864-27.356-30.472-25.513c-2.286-3.027-6.593-3.627-9.62-1.341C418.691,444.507,418.078,448.762,420.293,451.784z   "/>
	<g>
		<path fill="#FFBE55" d="M441.48,454.678c-4.615-4.142-10.484-12.303-10.484-12.303s-2.782-3.288-8.507-0.89    c-4.572,1.915-3.646,7.317-3.646,7.317c0.111,0.752,1.639,9.663,12.151,17.544C430.994,466.345,442.255,455.373,441.48,454.678z"/>
	</g>
</g>
<g>
	<path fill="#FFBE55" d="M517.317,356.345c-23.902,0.028-43.306,19.407-43.306,43.313c0,11.489,5.845,21.409,11.766,30.302   c13.082,19.651,5.649,30.297,13.2,30.297h18.315h18.41c7.558,0,0.103-10.647,13.191-30.297   c5.918-8.891,11.749-18.502,11.749-29.987C560.645,376.062,541.22,356.373,517.317,356.345z"/>
	<path fill="#0B4870" d="M496.204,415.923c-0.463-0.582-1.315-0.678-1.892-0.218c-0.582,0.466-0.676,1.313-0.214,1.894   c0.238,0.297,0.509,0.585,0.802,0.867l14.364,43.824c0.189,0.567,0.713,0.928,1.281,0.928c0.137,0,0.278-0.022,0.419-0.068   c0.707-0.233,1.09-0.989,0.856-1.7l-13.266-40.489c3.22,1.57,7.249,2.289,10.535,1.244c0.711-0.227,1.356-0.527,1.94-0.895   c1.607,1.052,3.572,1.679,5.657,1.679c2.467,0,4.797-0.79,6.564-2.2c0.986,0.527,2.13,0.963,3.404,1.283   c3.767,0.955,7.098,0.724,9.872-0.631l-13.119,40.011c-0.228,0.708,0.156,1.468,0.856,1.698c0.142,0.048,0.286,0.067,0.426,0.067   c0.567,0,1.095-0.359,1.281-0.925l14.385-43.895c0.118-0.143,0.257-0.262,0.374-0.412c0.457-0.585,0.356-1.433-0.229-1.89   c-0.587-0.46-1.432-0.357-1.887,0.229c-2.603,3.324-6.407,4.381-11.298,3.142c-0.551-0.139-1.353-0.383-2.181-0.757   c0.813-1.274,1.215-2.723,1.148-4.191c-0.118-2.926-1.112-5.072-2.726-5.893c-0.943-0.478-1.989-0.418-2.862,0.162   c-1.416,0.945-2.109,3.095-1.893,5.894c0.131,1.7,0.872,3.21,2.142,4.449c-2.204,1.376-5.515,1.524-7.883,0.254   c0.899-1.269,1.423-2.869,1.526-4.735c0.146-2.614-0.661-4.731-2.156-5.658c-0.955-0.594-2.1-0.623-3.067-0.069   c-1.528,0.862-2.371,2.93-2.328,5.673c0.029,1.773,0.717,3.438,1.852,4.811c-0.197,0.089-0.402,0.166-0.619,0.234   C504.248,420.919,498.378,418.654,496.204,415.923z M522.194,411.023c0.025-0.017,0.038-0.028,0.06-0.028   c0.021,0,0.046,0.009,0.084,0.028c0.394,0.2,1.159,1.211,1.256,3.605c0.042,0.907-0.213,1.804-0.718,2.615   c-0.747-0.713-1.299-1.625-1.387-2.773C521.33,412.393,521.821,411.27,522.194,411.023z M510.692,411.263   c0.049-0.03,0.094-0.046,0.146-0.046c0.049,0,0.105,0.019,0.18,0.062c0.378,0.237,0.995,1.183,0.882,3.221   c-0.069,1.281-0.385,2.344-0.935,3.182c-0.756-0.913-1.214-1.996-1.233-3.128C509.697,412.404,510.32,411.473,510.692,411.263z"/>
	<g>
		<g>
			<path fill="#0B4870" d="M532.568,460.257h-30.516c-1.771,0-3.206,3.262-3.206,5.036c0,1.773,1.436,5.036,3.206,5.036h10.227     l-11.201,2.088c-1.681,0.544-2.605,1.581-2.06,3.266c0.437,1.357,1.697,1.836,3.053,1.836c0.325,0,0.659-0.249,0.989-0.35     l30.504-9.992c1.497-0.487,2.423-2.324,2.177-3.882C535.489,461.735,534.146,460.257,532.568,460.257z"/>
			<path fill="#0B4870" d="M532.531,482.919h-10.198l11.188-5.058c1.682-0.543,2.606-3.066,2.059-4.753     c-0.547-1.681-2.353-2.966-4.04-2.42l-30.48,9.714c-1.503,0.491-2.424,2.646-2.178,4.204c0.243,1.56,1.591,3.349,3.17,3.349     h2.771l4.849,7.555h15.123l4.925-7.555h2.811c1.773,0,3.204-0.747,3.204-2.518C535.735,483.665,534.304,482.919,532.531,482.919z     "/>
		</g>
	</g>
</g>
<g>
	<g>
		<g>
			<g>
				<polygon fill="#FFBE55" points="428.032,610.599 412.612,592.176 487.737,529.027 553.064,539.915 627.18,482.667       630.17,485.352 559.5,564.025 495.406,550.101     "/>
			</g>
		</g>
	</g>
	<g>
		<g>
			<g>
				<polygon fill="#FFBE55" points="631.229,520.672 588.247,479.455 643.736,464.608     "/>
			</g>
		</g>
	</g>
</g>
<path fill="#FAB9AF" d="M498.593,465.631c1.515-1.767,1.914-7.965,2.766-7.965c0.613,0,0.722,2.14,0.735,3.342  c0.001,0.14,0.085,0.267,0.213,0.324c0.128,0.057,0.278,0.034,0.383-0.059c1.719-1.514,6.57-5.712,7.07-5.312  c0.507,0.405-2.07,3.536-2.948,4.575c-0.027,0.031-0.027,0.077-0.002,0.11c0.026,0.032,0.07,0.042,0.107,0.024  c1.356-0.687,5.782-2.855,5.885-1.927c0.098,0.882-3.75,3.337-5.253,4.259c-0.037,0.023-0.052,0.069-0.034,0.109  c0.018,0.04,0.062,0.06,0.104,0.048c1.685-0.499,6.022-1.703,6.12-0.918c0.1,0.799-4.093,2.594-5.6,3.212  c-0.04,0.016-0.061,0.059-0.052,0.1c0.01,0.042,0.049,0.07,0.091,0.066c1.486-0.116,5.322-0.363,4.731,0.228  c-0.731,0.731-9.969,3.751-12.038,3.751C498.803,469.598,498.593,465.631,498.593,465.631z"/>
<g>
	<path fill="#0B4870" d="M653.099,643.61c9.144,9.144,23.956,9.131,33.101,0c9.144-9.144,9.144-23.956,0-33.101   c-9.144-9.144-23.956-9.158-33.101,0C643.955,619.64,643.955,634.465,653.099,643.61z M656.795,614.205   c7.105-7.105,18.604-7.105,25.708,0c7.105,7.091,7.105,18.604,0,25.708c-7.091,7.105-18.604,7.105-25.708,0   C649.69,632.809,649.69,621.296,656.795,614.205z"/>
	<path opacity="0.25" fill="#FFFFFF" d="M655.207,633.001c-0.205-4.257,1.328-8.597,4.586-11.841c6.133-6.147,16.057-6.147,22.19,0   c1.615,1.615,2.806,3.491,3.573,5.503c-0.192-3.751-1.711-7.461-4.586-10.322c-6.133-6.133-16.057-6.133-22.19,0   C654.276,620.845,653.072,627.402,655.207,633.001z"/>
	<path fill="#0B4870" d="M709.822,667.081L709.822,667.081c1.183-1.183,1.183-3.102,0-4.286l-22.292-22.292l-4.286,4.286   l22.292,22.292C706.72,668.264,708.638,668.264,709.822,667.081z"/>
	<path fill="#FFBE55" d="M713.562,670.82L713.562,670.82c1.645-1.645,1.645-4.312,0-5.956l-20.621-20.621   c-0.461-0.461-1.209-0.461-1.671,0l-4.286,4.286c-0.461,0.461-0.461,1.209,0,1.671l20.621,20.621   C709.25,672.465,711.917,672.465,713.562,670.82z"/>
</g>
<g>
	
		<ellipse transform="matrix(0.998 -0.0636 0.0636 0.998 -40.6222 25.0344)" fill="#FFBE55" cx="372.943" cy="650.635" rx="22.824" ry="22.824"/>
	<path fill="#FFFFFF" d="M382.69,640.018l-3.923-1.463c-0.655-0.244-1.384,0.089-1.629,0.744l-5.331,14.293   c-0.239,0.641-0.944,0.976-1.593,0.757l-6.122-2.074c-0.662-0.224-1.381,0.13-1.606,0.793l-1.344,3.966   c-0.224,0.662,0.131,1.381,0.793,1.606l12.296,4.166c0.648,0.22,1.353-0.116,1.593-0.757l7.609-20.401   C383.678,640.992,383.345,640.263,382.69,640.018z"/>
</g>
<ellipse fill="#D3D3D3" cx="249" cy="786" rx="69" ry="2"/>
<ellipse fill="#D3D3D3" cx="351" cy="808" rx="69" ry="2"/>
<ellipse fill="#D3D3D3" cx="477" cy="786" rx="69" ry="2"/>
<ellipse fill="#D3D3D3" cx="579" cy="808" rx="69" ry="2"/>
<ellipse fill="#D3D3D3" cx="699" cy="786" rx="69" ry="2"/>
<ellipse fill="#D3D3D3" cx="801" cy="808" rx="69" ry="2"/>
<g>
	<path opacity="0.4" fill="#2A94F4" d="M762.398,490.853c5.065,11.558-0.198,25.033-11.755,30.098   c-11.558,5.065-25.033-0.198-30.098-11.755c-5.065-11.558,0.198-25.033,11.756-30.098   C743.858,474.032,757.333,479.295,762.398,490.853z"/>
	<path fill="#FFFFFF" d="M727.363,491.973l17.752-7.78c1.686-0.739,3.67,0.036,4.409,1.722l7.78,17.752   c0.739,1.686-0.036,3.669-1.722,4.408l-17.752,7.78c-1.686,0.739-3.67-0.035-4.409-1.721l-7.78-17.752   C724.902,494.696,725.677,492.712,727.363,491.973z M742.858,488.344c-0.592,0.26-0.863,0.956-0.604,1.548l1.127,2.573   c0.259,0.592,0.955,0.864,1.547,0.605l2.699-1.183c0.591-0.259,0.863-0.955,0.604-1.547l-1.127-2.573   c-0.259-0.592-0.956-0.864-1.547-0.605L742.858,488.344z M749.906,494.132l-2.101,0.921c0.484,0.564,0.894,1.202,1.206,1.916   c1.74,3.971-0.173,8.649-4.273,10.446c-4.099,1.796-8.836,0.033-10.577-3.938c-0.313-0.714-0.504-1.448-0.591-2.186l-2.193,0.961   l4.422,10.089c0.229,0.523,0.842,0.76,1.365,0.531l16.631-7.289c0.523-0.229,0.762-0.84,0.533-1.363L749.906,494.132z    M739.436,495.315c-2.649,1.161-3.885,4.182-2.759,6.75c1.124,2.565,4.184,3.706,6.833,2.545c2.649-1.161,3.884-4.184,2.76-6.749   C745.143,495.293,742.084,494.154,739.436,495.315z"/>
</g>
<g>
	<circle opacity="0.4" fill="#2A94F4" cx="286.799" cy="538.782" r="23.57"/>
	<polygon fill="#FFFFFF" points="280,526.997 297.454,538.782 280,550.568  "/>
</g>
<g>
	<path opacity="0.4" fill="#2A94F4" d="M244.38,628.866v-17.772c-1.808,0.039-3.368,0.309-5.131,0.882   c-4.602,1.495-8.347,4.693-10.543,9.005c-2.126,4.172-2.556,8.905-1.227,13.377L244.38,628.866z"/>
	<path fill="#2A94F4" d="M252.886,632.308l-8.04-2.612l-17.081,5.55c1.926,5.508,5.889,9.371,11.482,11.189   c1.822,0.592,3.706,0.892,5.602,0.892c7.714,0,14.518-4.835,17.076-12.081L252.886,632.308z"/>
	<path opacity="0.1" fill="#2A94F4" d="M255.87,614.827l-10.268,14.132l16.613,5.398C264.4,627.039,261.939,619.464,255.87,614.827z   "/>
	<path opacity="0.62" fill="#2A94F4" d="M245.314,627.768l9.801-13.49c-3.006-2.086-6.143-3.105-9.801-3.185V627.768z"/>
</g>
<g>
	<circle opacity="0.62" fill="#2A94F4" cx="337.626" cy="440.682" r="27.103"/>
	<path fill="#FFFFFF" d="M344.6,437.614l-2.983-5.579l-5.06,3.607l-2.326-3.263c-1.054-1.479-1.36-2.782,0.761-4.293l2.703-1.928   l-3.257-4.57c-0.511,0.271-2.215,1.275-4.085,2.608c-3.902,2.781-4.873,7.065-1.756,11.437l2.686,3.768l-4.412,3.145l3.642,5.11   l4.412-3.145l9.344,13.109l5.275-3.76l-9.344-13.109L344.6,437.614z"/>
</g>
<g>
	<path opacity="0.62" fill="#2A94F4" d="M684.477,411.927c0,14.122-11.449,25.571-25.571,25.571   c-14.123,0-25.572-11.448-25.572-25.571c0-14.123,11.449-25.572,25.572-25.572C673.029,386.355,684.477,397.804,684.477,411.927z"/>
	<g>
		<path fill="#FFFFFF" d="M665.668,424.786c-0.338,0.469-0.783,0.809-1.27,1.039l-1.32-12.423l10.891-1.042    c-0.036,0.6-0.227,1.199-0.604,1.723L665.668,424.786z"/>
		<path fill="#FFFFFF" d="M658.728,412.373l15.506-1.483c-0.238-0.495-0.581-0.941-1.056-1.282l-16.425-11.811    c-0.475-0.342-1.01-0.527-1.553-0.593L658.728,412.373z"/>
		<path fill="#FFFFFF" d="M661.745,413.779l-3.59,0.345c-0.21,0.019-0.41-0.04-0.572-0.156c-0.16-0.115-0.281-0.286-0.329-0.492    l-0.816-3.513l-12.635,2.802c0.229,0.564,0.609,1.076,1.14,1.458l16.425,11.811c0.532,0.382,1.138,0.579,1.745,0.617    L661.745,413.779z"/>
		<path fill="#FFFFFF" d="M653.519,397.418c-0.57,0.232-1.087,0.613-1.472,1.149l-7.873,10.949c-0.346,0.48-0.532,1.021-0.596,1.568    l12.476-2.765L653.519,397.418z"/>
	</g>
</g>
<g>
	<g>
		<g>
			<path fill="#2A94F4" d="M772.165,638.718c0,0,5.089,5.421,9.665,9.913c4.576,4.493,10.711,8.385,10.711,8.385     s2.193-0.799,5.881-2.898c3.689-2.099,4.002-2.985,4.002-2.985s-1.523-4.535-4.456-4.439c-0.599-1.785-1.691-4.003-3.992-3.88     c-0.372-2.01-2.266-5.968-5.264-6.346c-0.055-2.278-1.397-4.091-1.397-4.091L772.165,638.718z"/>
		</g>
		<g>
			<path fill="#2A94F4" d="M792.126,631.187l3.147,5.703c0,0-0.613,0.808-1.63,1.141c-1.017,0.332-3.529-2.141-4.266-3.408     c-0.737-1.267-1.455-2.952-1.455-2.952L792.126,631.187z"/>
		</g>
		<g>
			<g>
				<path fill="#2A94F4" d="M755.791,627.241c0,0-0.047,0.894,0.377,2.581c-1.568,1.61-2.037,4.092-0.987,6.223      c1.05,2.131,3.304,3.272,5.536,3.009c1.08,1.363,1.817,1.871,1.817,1.871l5.003-1.093l-3.916-7.946l-3.916-7.946      L755.791,627.241z"/>
			</g>
			<g>
				<path fill="#CCE9FF" d="M787.764,599.975c-4.747,9.531-15.488,15.69-20.474,18.407c-4.986,2.717-6.516,2.951-7.498,4.475      c-0.982,1.523,3.004,9.436,3.004,9.436s3.847,7.981,5.653,8.131c1.807,0.149,2.925-0.922,8.117-3.22      c5.192-2.299,16.62-7.064,27.069-5.022c10.45,2.042,15.829,3.463,15.829,3.463l-12.402-25.166l-12.401-25.166      C794.661,585.313,792.511,590.444,787.764,599.975z"/>
			</g>
		</g>
		<g>
			<g>
				<path fill="#2A94F4" d="M823.664,628.918c0.832,2.964,0.192,5.211-2.165,6.373l0,0c-2.357,1.161-4.558,0.384-6.373-2.166      c0,0-2.415-2.068-11.679-20.866c-9.264-18.798-9.432-21.973-9.432-21.973c-0.388-3.08-0.192-5.211,2.165-6.372l0,0      c2.358-1.162,4.203-0.396,6.373,2.165c0,0,3.155,3.57,11.678,20.866C822.756,624.241,823.664,628.918,823.664,628.918z"/>
			</g>
			<g>
				<path fill="#FFFFFF" d="M813.408,607.351c6.268,12.719,9.065,24.156,9.065,24.156s-7.366-9.185-13.633-21.904      c-6.268-12.719-9.065-24.155-9.065-24.155S807.141,594.632,813.408,607.351z"/>
			</g>
		</g>
	</g>
	<g>
		<path fill="#2A94F4" d="M818.19,583.179c-0.289,0-0.578-0.091-0.825-0.279c-0.597-0.457-0.71-1.31-0.254-1.907l16.405-21.459    c0.456-0.598,1.309-0.71,1.907-0.255c0.597,0.457,0.71,1.31,0.254,1.907l-16.405,21.459    C819.004,582.996,818.599,583.179,818.19,583.179z"/>
	</g>
	<g>
		<path fill="#2A94F4" d="M824.38,590.7c-0.42,0-0.833-0.194-1.1-0.558c-0.443-0.607-0.31-1.458,0.297-1.901l17.706-12.927    c0.606-0.444,1.458-0.31,1.901,0.297c0.443,0.607,0.31,1.458-0.297,1.901l-17.706,12.927    C824.939,590.615,824.658,590.7,824.38,590.7z"/>
	</g>
	<g>
		<path fill="#2A94F4" d="M828.897,601.346c-0.572,0-1.104-0.363-1.292-0.936c-0.235-0.714,0.153-1.483,0.867-1.717l30.358-9.986    c0.715-0.236,1.483,0.154,1.717,0.867c0.235,0.714-0.153,1.483-0.867,1.717l-30.358,9.986    C829.181,601.324,829.038,601.346,828.897,601.346z"/>
	</g>
	<g>
		<path fill="#2A94F4" d="M833.965,614.656c-0.686,0-1.276-0.518-1.351-1.216c-0.08-0.747,0.461-1.417,1.208-1.497l23.113-2.466    c0.734-0.073,1.417,0.461,1.497,1.208c0.08,0.747-0.461,1.417-1.208,1.497l-23.113,2.466    C834.062,614.654,834.013,614.656,833.965,614.656z"/>
	</g>
</g>
<path fill="none" stroke="#00AEF0" stroke-width="3" stroke-linecap="round" stroke-miterlimit="10" d="M344.834,556.108"/>
</svg>