<svg xmlns="http://www.w3.org/2000/svg" xmlns:xlink="http://www.w3.org/1999/xlink" version="1.1" id="Layer_1" x="0px" y="0px" viewBox="0 0 2000 2000" style="enable-background:new 0 0 2000 2000;" xml:space="preserve">
<style type="text/css">
	.st0{opacity:0.46;fill:#FFBE55;}
	.st1{fill:#0B4870;}
	.st2{fill:#2A94F4;}
	.st3{fill:#F2F2F2;}
	.st4{fill:#F7F7F7;}
	.st5{fill:#FFBE55;}
	.st6{fill:#EFB68F;}
	.st7{fill:#0E538C;}
	.st8{opacity:0.5;}
</style>
<g id="Floor">
	<path class="st0" d="M1145,582c0,0,82.3-68.6,128.3-73.5c46-4.9,50.9,35.3,76.4,36.3c25.5,1,41.1-59.8,86.2-72.5   c45.1-12.7,193,107.8,193,107.8L1145,582z"/>
	<path class="st0" d="M189,756h412c0,0-33.9-67.5-92.9-63.6c-59,4-63.8-69.2-141.4-62.4C289.2,636.8,189,756,189,756z"/>
	<ellipse class="st1" cx="1000" cy="1491.5" rx="812" ry="69.5"/>
</g>
<g id="Mail_Sent">
	<path class="st2" d="M1475.2,1470.9H524.8c-38,0-68.8-30.8-68.8-68.8V892.9c0-38,30.8-68.8,68.8-68.8h950.4   c38,0,68.8,30.8,68.8,68.8v509.3C1544,1440.1,1513.2,1470.9,1475.2,1470.9z"/>
	<path class="st3" d="M1463,574.2V952H536V574.2c0-26.6,22.3-48.2,49.9-48.2h827.2C1440.7,526,1463,547.6,1463,574.2z"/>
	<path class="st4" d="M1463,952v151.9c0,26.6-22.3,48.2-49.9,48.2L1028,1292.4c-18.3,6.7-38.6,6.7-56.9,0l-385.2-140.3   c-27.5,0-49.9-21.6-49.9-48.2V952H1463z"/>
	<path class="st4" d="M787,1362H540c-6.6,0-12-5.4-12-12v-11c0-6.6,5.4-12,12-12h247c6.6,0,12,5.4,12,12v11   C799,1356.6,793.6,1362,787,1362z"/>
	<g>
		<path class="st5" d="M792,1053.2H394c-6.6,0-12-5.4-12-12V847c0-6.6,5.4-12,12-12h398c6.6,0,12,5.4,12,12v194.2    C804,1047.8,798.6,1053.2,792,1053.2z"/>
		<polygon class="st5" points="737.2,1032.9 804,1110.4 804,944.1   "/>
		<path class="st4" d="M759.6,895.8H441.9c-6,0-11-5-11-11v-4.2c0-6,5-11,11-11h317.7c6,0,11,5,11,11v4.2    C770.6,890.8,765.7,895.8,759.6,895.8z"/>
		<path class="st4" d="M759.6,947.1H441.9c-6,0-11-5-11-11v-4.2c0-6,5-11,11-11h317.7c6,0,11,5,11,11v4.2    C770.6,942.1,765.7,947.1,759.6,947.1z"/>
		<path class="st4" d="M613,998.3H441.9c-6,0-11-5-11-11v-4.2c0-6,5-11,11-11H613c6,0,11,5,11,11v4.2C624,993.4,619,998.3,613,998.3    z"/>
	</g>
	<g>
		<circle class="st5" cx="988.5" cy="618.5" r="179.5"/>
		<g>
			<path class="st4" d="M954.7,716.4l-72.6-67.5c-9-8.3-9.5-22.3-1.2-31.3c8.3-9,22.3-9.5,31.3-1.2l42.8,39.8l119.6-108.6     c9.1-8.2,23.1-7.6,31.3,1.5c8.2,9.1,7.6,23.1-1.5,31.3L954.7,716.4z"/>
		</g>
	</g>
</g>
<g id="Person">
	<path class="st6" d="M1277.3,869.6c0,0-35.1,62-55.8,57.9C1194,922,1156,915,1149,907s-22.5-24.5-25.5-23.5s7,15,6,18s-18,5-29,10   c-7.7,3.5-18.8,10.3,0,7c23-4,7,5,42,2c13.4-1.1,78.9,39.8,95,36c17-4,66-72,66-72l-26-15"/>
	<g>
		<path class="st6" d="M1286.1,1434.7c1.1,13.7,1.9,24.5,2.4,30c6.6,0.8,13.3,1.9,20,2.2l3.5-31.8    C1303.4,1434.9,1294.7,1434.7,1286.1,1434.7z"/>
		<path class="st7" d="M1288.8,1468.5c0,0-68.8,10.7-52.6,17.5c16.2,6.8,69.7,4.7,69.7,4.7l2.6-23.9c-6.7-0.3-13.4-1.4-20-2.2    C1288.7,1467.2,1288.8,1468.5,1288.8,1468.5z"/>
		<path class="st1" d="M1345.5,1102.5l13-85h-75c0,0-13,229-10,283c1.9,34.4,6.7,97.4,9.9,138.4c10.1,0,20.2,0.2,30.3,0.4    l13.9-126.9L1345.5,1102.5z"/>
		<path class="st7" d="M1396.5,1467.7c0,0-50,14-53.5,26.3h78c0,0-1-9.2-2.6-23.4c-7.5-0.9-14.9-2.7-22.4-4.5    C1396.3,1467.2,1396.5,1467.7,1396.5,1467.7z"/>
		<path class="st6" d="M1386.1,1433.9c4.8,15.9,8.6,28.1,9.9,32.3c7.5,1.8,14.9,3.6,22.4,4.5c-1.2-10.6-2.6-23.9-4.2-38.3    C1404.9,1433.1,1395.5,1433.6,1386.1,1433.9z"/>
		<path class="st1" d="M1405,1313c-1-32-2-299-2-299l-102.5,9.5l4,42l13,32c0,0,20.5,173.5,34.5,228.5    c8.3,32.7,22.5,80.5,32.6,113.9c10.7-0.3,21.5-0.8,32.1-1.8C1411.6,1389.6,1405.6,1330.9,1405,1313z"/>
		<path class="st2" d="M1268.5,873.5l25,25c0,0,38-25,34-46s-14.9-16.8-23-11C1290.5,851.5,1268.5,873.5,1268.5,873.5z"/>
		<path class="st2" d="M1333.5,829.5c0,0-24,17-33,31s-16,68-18,86s-10,79-9,83S1384,1046,1396,1036s-3-47-3-87s-9.5-61.5-11.5-74.5    s-14-45-31-45S1333.5,829.5,1333.5,829.5z"/>
		<path class="st6" d="M1308.5,762.5c0,0-5,57,18,60v16c0,0,12,4,26,0.1l7-69.1c0,0-13-13-14-13S1308.5,762.5,1308.5,762.5z"/>
		<path class="st1" d="M1349.5,786.5h-4c0,0,4-16-1-18s-29,15-41,2s1-23,8-27s35-7,40,5c0,0,2-2,7,1s8,59-9,67l1-20    c0,0,6.3-5.1,3-15C1351.5,775.5,1349.5,786.5,1349.5,786.5z"/>
		<path class="st6" d="M1374.5,882.3c0,0,10.2,65.5,17.5,106.7c3,17,5.6,102.5,7.5,124c0,0,0,11.2,2,24.6c2,13.4,3-6.7,3-9    c0-2.2,1.4,10.4,4,23.5c2,10.1,7,19,8,3.4c1-15.7,1-43.7-2-52.6s3-69.4,0-119.8c-3-50.4-11.5-102.1-11.5-102.1L1374.5,882.3z"/>
		<path class="st2" d="M1370.5,888.5c0,0-11-36,0-43s35,16,38,39L1370.5,888.5z"/>
	</g>
</g>
<g id="Plant">
	<g class="st8">
		<path class="st2" d="M379.6,1312.2c-34.4-2.1-63.6-31.6-63.8-56.4c-0.2-20.5,19.5-25.8,20.1-51.7c0.6-22.3-13.9-27.3-11.4-46.3    c2.6-20,22.1-42.9,45.7-43c27-0.1,45.4,30.2,47,54.4c1.1,16.5-9,18.7-8.7,34.3c0.6,31.7,40.2,40.8,39.6,64.5    C447.6,1289.6,413.5,1314.3,379.6,1312.2z"/>
	</g>
	<g>
		<rect x="377.3" y="1148.3" class="st4" width="2" height="180.7"/>
	</g>
	<g>
		<path class="st4" d="M378.1,1211c-16.7-1.1-19-25.7-19.1-26.7l2-0.2c0,0.2,2.3,23.9,17.3,24.9L378.1,1211z"/>
	</g>
	<g>
		<path class="st2" d="M354,1327.6h47.9c4.7,0,8.4,3.9,8.2,8.6l-6.5,120.9c-0.2,4.2-3.6,7.6-7.8,7.7l-34.9,1.4    c-4.5,0.2-8.3-3.3-8.5-7.7l-6.5-122.3C345.6,1331.5,349.3,1327.6,354,1327.6z"/>
	</g>
	<g>
		<path class="st4" d="M378.1,1274.1c-12-0.8-13.6-18.2-13.7-19l2-0.2c0,0.2,1.6,16.5,11.8,17.2L378.1,1274.1z"/>
	</g>
	<g>
		<path class="st4" d="M377.4,1247.9l-0.1-2c14-0.7,16.1-16.4,16.1-16.5l2,0.2C395.4,1229.8,393.1,1247.2,377.4,1247.9z"/>
	</g>
	<g>
		<path class="st4" d="M378.1,1294.3l-0.1-2c9.9-0.5,11.3-11.3,11.4-11.7l2,0.2C391.4,1280.9,389.7,1293.7,378.1,1294.3z"/>
	</g>
</g>
</svg>