<svg xmlns="http://www.w3.org/2000/svg" xmlns:xlink="http://www.w3.org/1999/xlink" version="1.1" id="Layer_1" x="0px" y="0px" viewBox="0 0 595.3 582.4" style="enable-background:new 0 0 595.3 582.4;" xml:space="preserve">
<style type="text/css">
	.st0{opacity:0.41;}
	.st1{fill:#CDEAFB;}
	.st2{fill:#01384F;}
	.st3{fill:#FFFFFF;}
	.st4{fill:#EDEDED;}
	.st5{opacity:0.4;}
	.st6{fill:#AF9CCB;}
	.st7{fill:#253762;}
	.st8{fill:#004970;}
	.st9{fill:#498CCA;}
	.st10{fill:#FACBB6;}
	.st11{opacity:0.46;fill:#F6B7A0;}
	.st12{fill:#FABB58;}
	.st13{fill:#F4A8B4;}
	.st14{fill:#F6B7A0;}
	.st15{fill:none;stroke:#4A2A14;stroke-width:0.776;stroke-linecap:round;stroke-linejoin:round;stroke-miterlimit:10;}
</style>
<g>
	<g>
		<g>
			<g class="st0">
				<g>
					<path class="st1" d="M73.9,370.5c-2.5-54.6,25.6-101.6,68.1-128c7.9-4.9,13.1-13.1,14.2-22.2c0.1-0.5,0.1-1,0.2-1.5       c7.8-60,66.1-102.2,128.3-94c59.4,7.8,102.2,38,95.9,96.1c0,0.3-0.1,0.7-0.1,1.2c-1.1,15.8,11.8,29.2,28.3,29.5       c3.5,0.1,6.9,0.3,10.4,0.6c70.9,7.1,122.4,68.4,114.8,136.8c-3.5,31.3-18.8,58.7-41.2,78.5H123.1       C95,441.7,75.6,405.8,73.9,370.5z"/>
				</g>
			</g>
		</g>
	</g>
	<g>
		<g>
			<path class="st2" d="M458.2,438.4H165.4V258.4c0-6.9,5.6-12.4,12.4-12.4h267.9c6.9,0,12.4,5.6,12.4,12.4V438.4z"/>
			<path class="st2" d="M458.9,439.2H164.7V258.4c0-7.3,5.9-13.2,13.2-13.2h267.9c7.3,0,13.2,5.9,13.2,13.2V439.2z"/>
		</g>
		<rect x="182.9" y="264.3" class="st3" width="258.8" height="172.9"/>
		<rect x="182.9" y="264.3" class="st4" width="258.8" height="16.3"/>
		<g class="st5">
			<path class="st1" d="M426.8,424.3H279.7c-2.2,0-3.9-1.8-3.9-3.9v-65.7c0-2.2,1.8-3.9,3.9-3.9h147.1c2.2,0,3.9,1.8,3.9,3.9v65.7     C430.7,422.6,429,424.3,426.8,424.3z"/>
			<g>
				<path class="st3" d="M237.7,321.8L237.7,321.8c0.6,0,1.1,0.5,1.1,1v2.1c0,0.6-0.5,1-1,1h-7.7c-0.6,0-1-0.5-1-1v-2.1      c0-0.6,0.5-1,1-1h0c0.6,0,1-0.5,1-1v-6.3c0-0.6-0.5-1-1-1l0,0c-0.6,0-1-0.5-1-1v-2.1c0-0.6,0.5-1,1-1h5.6c0.6,0,1,0.5,1,1v10.5      C236.7,321.3,237.1,321.8,237.7,321.8z"/>
			</g>
			<rect x="203.5" y="396.6" class="st6" width="55.6" height="1.4"/>
			<rect x="342.1" y="311.6" class="st6" width="55.7" height="1.4"/>
			<line class="st3" x1="410.5" y1="399.3" x2="410.5" y2="400.7"/>
			<line class="st3" x1="354.8" y1="400.7" x2="354.8" y2="399.3"/>
		</g>
		<path class="st7" d="M323,258.3c-1.1,0-1.9-0.9-1.9-1.9c0-1.1,0.9-1.9,1.9-1.9c1.1,0,1.9,0.9,1.9,1.9    C324.9,257.4,324,258.3,323,258.3z M323,255.9c-0.3,0-0.5,0.2-0.5,0.5c0,0.3,0.2,0.5,0.5,0.5c0.3,0,0.5-0.2,0.5-0.5    C323.5,256.1,323.2,255.9,323,255.9z"/>
		<path class="st8" d="M487.3,466H136.3c-1.6,0-2.9-1.3-2.9-2.9V447c0-4.7,3.8-8.6,8.6-8.6h339.5c4.7,0,8.6,3.8,8.6,8.6v16.1    C490.1,464.7,488.8,466,487.3,466z"/>
	</g>
	<g>
		<g>
			<g>
				<path class="st9" d="M276.6,305.8H125.9c-3.6,0-6.4,3.7-6.4,8.3v77.2c0,4.6,2.9,8.3,6.4,8.3h108.4l18.6,24.1v-24.1h23.7      c3.6,0,6.4-3.7,6.4-8.3v-77.2C283,309.5,280.1,305.8,276.6,305.8z"/>
			</g>
		</g>
		<g>
			<g>
				<path class="st8" d="M225,295.2c-0.2-2-1.1-3.9-2.5-5.2c-1.4-1.4-2.6-3-3.5-4.7c-0.2-0.9-0.6-1.8-1.2-2.6      c-0.8-2-1.3-4.1-1.5-6.2l-0.4-3.8c0-0.1,0-0.1,0-0.2l-0.2-1.8c-0.4-3.9-2.2-7.3-4.8-9.8c-3.7-4.5-9.1-7.5-15.4-8.1l0,0      c-7.2-0.6-13.8,2.2-18.4,7.2c-5.3,2.9-8.7,8.8-8.1,15.2l0.3,2.7c-1.6,1.3-2.7,3.2-2.9,5.5v0c-0.1,1.7,0.3,3.4,1.1,4.8      c-3.1,3.3-5.1,7.6-5.6,12.4c-1,11.4,7.5,21.5,18.9,22.4c7,0.6,13.4-2.3,17.6-7.3c2.1,1.7,4.8,2.8,7.7,3h0      c7.9,0.7,14.9-5.2,15.6-13.2l0,0c0.1-1,0.1-2,0-2.9C224,300.9,225.3,298.1,225,295.2z"/>
				<g>
					<g>
						<path class="st10" d="M231.8,295.6c0,0-0.8-2.9,0-6.2l2.6-5.6c0.4-0.9,1.4-1.4,2.4-1.1c0,0,0,0,0,0l3-3.6        c0.4-0.5,4.5-4.9,4.8-5.4c0.4-0.6,2-1.2,2.3,0c0.5,2.1-3.6,8.1-3.6,8.1s2,0.9,2.4,2c0.4,1.1,0.5,1.5,0.5,1.5s1.1,1.1,1.5,2.8        l0.2,0.5c0,0,0.5-0.1,1.2,2c0.4,1.1,0,1.9-0.4,2.4c-0.4,0.5-0.9,0.8-1.5,1l-1,0.4l1.1,7.1l-14.6-0.8L231.8,295.6z"/>
					</g>
					<path class="st1" d="M252.7,341.5c-0.5-4.9-0.9-9.9-1.3-14.8c-0.3-4.2-1.5-21.5-2-27.5c-0.1-1.2-1.1-2-2.3-1.9l-15,1.6       c-1.3,0.1-2.3,1.4-2.1,2.7c1.5,9.8,2.8,34.4,2.8,34.4l-7.5-7.6c-1.9-1.9-3.7-4-5.5-6c-3.2-3.5-7.4-6.2-11.6-8.6l-0.5-0.4l0,0.2       c-1.2-0.7-2.5-1.3-3.8-1.8l-26-0.1c-1.3,0-2.6,0.2-3.9,0.4c-10.5,2-19.3,11.7-21.5,24.2c-0.3,2-0.5,4-0.5,6l-0.9,9.5       c2.2,19.2,18.5,34,38.2,34c17.4,0,32-11.5,36.8-27.3c3.5,1.3,7.1,2.4,10.1,2.5c3,0.1,5.9-0.8,8.6-2.1c2.5-1.2,4.9-2.8,6.4-5.3       C253.5,350,253.1,345.6,252.7,341.5z"/>
				</g>
				<g>
					<g>
						<path class="st10" d="M215.8,289.8l-1.7-16.3c-0.3-3.1-1.7-5.9-3.7-8.1c-0.8,7.3-7,13-14.5,13h-13.3l1.6,14.8        c0.1,0.7,0.2,1.4,0.4,2.1l-2.5,13.6c-1.2,6.4,2.7,12.6,8.9,13.8c6.1,1.2,12.1-3,13.4-9.4l1.5-8        C212.3,302.9,216.5,296.7,215.8,289.8z"/>
						<path class="st11" d="M200.8,306.2c-6.4,0.7-12.3-2.7-15-8l-0.2,1.1c-0.7,4.2,3.4,8.4,9,9.2h0c4.1,0.6,7.9-0.6,9.9-3        c-0.7,0.2-1.4,0.3-2.1,0.4L200.8,306.2z"/>
					</g>
				</g>
				<g>
					<path class="st12" d="M211.6,259h-17.5c-7.8,0-14.2,6.4-14.2,14.2v4.8c-0.1,0-0.1,0-0.2,0l0,0c-2.5,0.4-4.3,2.8-3.9,5.3       l0.9,5.4c0.4,2.5,2.8,4.3,5.3,3.9c0.7-0.1,1.3-0.4,1.8-0.7l3.8,4.9c0.8,1.1,2.1,1.7,3.5,1.7h5.2c0.3,0,0.5-0.2,0.5-0.5       c0-0.3-0.2-0.5-0.5-0.5h-5.2c-1,0-2-0.5-2.7-1.3l-3.8-4.9c1-1,1.5-2.5,1.2-3.9l-0.9-5.4c-0.3-2-1.9-3.5-3.7-3.8v-4.9       c0-7,5.7-12.8,12.8-12.8h17.5c0.4,0,0.7-0.3,0.7-0.7C212.3,259.3,212,259,211.6,259z"/>
					<g>
						<path class="st13" d="M197.3,299.2h-2.1c-0.6,0-1.1-0.5-1.1-1.1l0,0c0-0.6,0.5-1.1,1.1-1.1h2.1c0.6,0,1.1,0.5,1.1,1.1l0,0        C198.4,298.7,197.9,299.2,197.3,299.2z"/>
						<path class="st12" d="M197.3,299.8h-2.1c-0.9,0-1.7-0.7-1.7-1.7c0-0.9,0.7-1.7,1.7-1.7h2.1c0.9,0,1.7,0.7,1.7,1.7        C198.9,299,198.2,299.8,197.3,299.8z"/>
					</g>
				</g>
			</g>
		</g>
	</g>
	<g>
		<path class="st12" d="M463.5,230.2h-134c-2.9,0-5.3,3.7-5.3,8.3v83.6c0,4.6,2.4,8.3,5.3,8.3h13.8l1.8,23.6l15.1-23.6h103.3    c2.9,0,5.3-3.7,5.3-8.3v-83.6C468.9,233.9,466.5,230.2,463.5,230.2z"/>
	</g>
	<g>
		<g>
			<path class="st13" d="M465.4,399.4"/>
			<path class="st13" d="M432.7,399.4"/>
		</g>
		<g>
			<path class="st2" d="M457.1,391.6"/>
			<path class="st13" d="M432.7,391.6"/>
		</g>
	</g>
</g>
<g>
	<g>
		<path class="st10" d="M400.9,248.9l-0.8-20.8l-16.2-0.5l-1,24.4c-0.1,2.7,2.2,2.2,4.8,2.1l8.9-0.5    C399.1,253.5,401,251.3,400.9,248.9z"/>
	</g>
	<polygon class="st14" points="384.5,232.4 400.7,242 400.1,228  "/>
	<g>
		<path class="st10" d="M419.4,213.2c0,3.4-2.7,6.1-6.1,6.1c-3.3,0-6.1-2.8-6.1-6.1c0-3.4,2.7-6.1,6.1-6.1    C416.7,207,419.4,209.8,419.4,213.2z"/>
		<path class="st15" d="M415.3,211.2"/>
		<path class="st15" d="M409.9,214.5"/>
	</g>
	<g>
		<path class="st10" d="M365.5,213.2c0,3.4,2.7,6.1,6.1,6.1c3.3,0,6.1-2.8,6.1-6.1c0-3.4-2.7-6.1-6.1-6.1    C368.2,207,365.5,209.8,365.5,213.2z"/>
		<path class="st15" d="M369.6,211.2"/>
		<path class="st15" d="M375,214.5"/>
	</g>
	<path class="st10" d="M411.3,202.2c0,7.8-1.1,14.6-2.2,19.4c-1.1,4.7-4.2,8-8.5,10.6l-0.8,0.5c-4.6,2.8-10.5,2.9-15.2,0.2l0,0   c-4.7-2.7-8-6.3-9-11.3c-1.8-9.2-2-19.3-2-19.3s-1.8-19.8,18.6-19.4C412.5,183.2,411.3,202.2,411.3,202.2z"/>
	<g>
		<path class="st2" d="M374.7,210.2c0,0,4.3-14,1.2-23.1C375.8,187.1,366.1,192,374.7,210.2z"/>
		<path class="st2" d="M410.5,210.2c0,0-5.4-14-2.3-23.1C408.2,187.1,418,190.9,410.5,210.2z"/>
		<g>
			<path class="st2" d="M374.4,189.2c0,0,26.9,14,37.3,2.9c0,0,8.5-8.7-0.9-15.5c-9.4-6.7-30.9,5.1-30.9,5.1     S375.1,182.9,374.4,189.2z"/>
			<path class="st2" d="M374.4,189.2c0,0-5-9,9.3-13.5c0,0,3.5,3.6-1.5,8.4C377.2,188.9,374.4,189.2,374.4,189.2z"/>
		</g>
	</g>
</g>
<g>
	<path class="st7" d="M434.1,269.3L434.1,269.3l-7.3-42.1L424,228l-11.3,3l-2.1,0.5l2.4,16.6c-0.7-0.1-1.5-0.2-2.3-0.3l-32.3-2.2   c-10.5-0.7-19.9,7-21.9,17.9l-0.6,3.4c-3.2,17.3,5.3,35,21.2,42.3c0.7,0.3,1.4,0.6,2,0.9c17.2,6.8,37.2,1,48-14.1   c3.5-4.9,5.8-10.2,6.9-15.7C434.7,276.7,434.7,272.9,434.1,269.3z"/>
	<g>
		<path class="st2" d="M407.6,229.4l-2.4-0.7c-0.4-0.1-0.7-0.6-0.6-1l6.4-22.7c0.1-0.4,0.6-0.7,1-0.6l2.4,0.7c0.4,0.1,0.7,0.6,0.6,1    l-6.4,22.7C408.5,229.2,408,229.5,407.6,229.4z"/>
		<g>
			<path class="st14" d="M416.4,210.5c0,0-4.5-2.9-5.9,1.3c-0.9,2.6-0.5,3.1,0,3.2c-0.6,0.3-1.5,1.1-1.5,3.7c0,2.9,0.7,3,1,2.9     c-0.7,0.4-3.4,2.1-1.5,5c0.7,1.1,2.6,2.6,4.9,4.2l11.6-1.5C425.8,222.2,425,212.6,416.4,210.5z"/>
		</g>
	</g>
</g>
<path class="st10" d="M380.1,245.4l24.6,1.7c0,0-1.8,10.4-12.1,10.8c-10.3,0.4-15.2-6.6-15.3-12.7"/>
</svg>