<svg xmlns="http://www.w3.org/2000/svg" xmlns:xlink="http://www.w3.org/1999/xlink" version="1.1" id="Opening_a_door" x="0px" y="0px" viewBox="0 0 1920 1080" style="enable-background:new 0 0 1920 1080;" xml:space="preserve">
<style type="text/css">
	.st0{opacity:0.1;fill:#2A94F4;}
	.st1{fill:#FFBE55;}
	.st2{fill:#F7F7F7;}
	.st3{fill:#FFE3CA;}
	.st4{fill:#0B4870;}
	.st5{fill:#0E538C;}
	.st6{opacity:0.54;fill:#F7F7F7;}
</style>
<g>
	<polygon class="st0" points="856.7,1080 454.1,1079.8 977.3,919.9 1379.9,932.6  "/>
	<rect x="977.3" class="st0" width="402.6" height="920"/>
	<g>
		<polygon class="st1" points="1125.8,1009.3 1379.9,932.6 1379.9,0 1107.2,76.6   "/>
		<polygon class="st2" points="1107.2,1009.3 1125.8,1009.3 1125.8,76.8 1106.2,76.6   "/>
	</g>
	<g>
		<path class="st3" d="M1125.4,499c0,0,0.7,3.7,4.1-0.3c8.8-10.6,17.9-13.2,27.1-6.9c13.8,9.4-24,33.8-39.6,29.4    c-15.6-4.4-4.4-23.1,4.4-27.1c4.4-2,7.3-7.4,8.1-4.5C1130.3,492.6,1125.4,499,1125.4,499z"/>
		<g>
			<path class="st4" d="M951.3,264.6c0,0-3.6-40.7-48.5-33.5c-23.6,3.8-18.6,17.7-28.1,22.5c-21.6,11-19.2,24.1-14.8,44.1     c4.4,20,26.2,52.5,67,31.7C960.3,312.3,951.3,264.6,951.3,264.6z"/>
			<path class="st5" d="M823.9,593.7c0,0-12.5,61.6-10.6,100c1.9,38.4-2.8,129.4-10.3,148.1c-7.5,18.8,0,140.6,0,140.6h20.9     c0,0,12.8-82.5,19.4-113.4c6.6-30.9,42.5-168.8,41.9-179.1c0,0,41.6,94.7,55.6,119.1c14.1,24.4,39.4,161.7,47.8,173.9l24.4-0.9     c0,0-14.1-190.8-40.3-273.3c-26.3-82.5-38.8-115-38.8-115H823.9z"/>
			<path class="st1" d="M828.2,374.3c0,0-22.4,16.6-30.6,105.7c-3.1,33.8,48.1,116.2,48.1,116.2l26.3-49.4L828.2,374.3z"/>
			<path class="st3" d="M937,289.5c-2.6,0.4-5.1,1.4-6.9,3.4c-2.5,2.7-5,7.1-4.4,13.3c1.3,11.3-1.9,20.6-17.5,25     c-15.6,4.4-23.1,0.4-23.1,0.4v29l35,6.9l-1.3-21.9c0,0,11.4-0.6,17.5-3c8.6-3.3,27.1-14.5,14.9-78.1     C951.3,264.6,951.1,287.2,937,289.5z"/>
			<path class="st1" d="M885.1,350.6c0,0-43.1,8.8-56.9,23.8c-13.8,15-8,180.6-8.6,238.8c0,0,69.5,46.9,125.1,11.2     c0,0-7.8-184.7-2.2-242.5C933.9,368.7,922.6,355,885.1,350.6z"/>
			<path class="st4" d="M1012.9,965.1c0,0,2.8,7.5,12.2,7.5c9.4,0,27.2-2.8,35.6,4.7s6.7,22.5,6.7,22.5h-87.1c0,0-1.9-22.3,3.6-27.5     C989.5,967,997,991.4,1012.9,965.1z"/>
			<path class="st4" d="M827.8,965.1c0,0,2.8,7.5,12.2,7.5c9.4,0,27.2-2.8,35.6,4.7s6.7,22.5,6.7,22.5h-87.1c0,0-1.9-22.3,3.6-27.5     C804.4,967,811.9,991.4,827.8,965.1z"/>
			<path class="st1" d="M937.9,375.9c0,0,22.8,14.2,24.9,37.7s2.4,62,15.2,80.5c12.8,18.5,122.6,15.1,133.2,7.3l5.7,19.8     c0,0-119,31.7-161.7,12.5C912.6,514.5,918.7,454.1,937.9,375.9z"/>
		</g>
	</g>
</g>
<polygon class="st6" points="1125.8,76.8 1379.9,6.9 1379.9,0 1107.2,76.6 "/>
</svg>