<svg xmlns="http://www.w3.org/2000/svg" xmlns:xlink="http://www.w3.org/1999/xlink" version="1.1" x="0px" y="0px" width="500px" height="421px" viewBox="0 0 500 421" enable-background="new 0 0 500 421" xml:space="preserve">
<g id="BACKGROUND">
</g>
<g id="OBJECTS">
</g>
<g id="DESIGNED_BY_FREEPIK">
	<polygon opacity="0.2" fill="#FFBE55" points="350.672,230.234 350.672,171.266 334.006,171.266 334.006,201.971 333.799,201.971    320.148,157.084 310.725,201.971 310.582,201.971 310.582,202.652 310.582,238.65 292.107,238.65 292.107,145.326 271.033,145.326    271.033,175.643 256.65,175.643 256.65,203.23 232.455,203.23 232.455,226.826 212.795,226.826 212.795,192.496 189.5,192.496    189.5,171.266 182.57,171.266 182.57,134.225 179.445,134.225 179.445,171.266 172.836,171.266 172.836,201.971 149.41,201.971    149.41,230.164 130.938,230.164 130.938,279.234 132.107,279.234 309.262,279.234 373.834,279.234 373.834,230.234  "/>
	<line fill="none" stroke="#CCE9FF" stroke-width="2" stroke-miterlimit="10" x1="112.279" y1="151.219" x2="388.49" y2="151.219"/>
	<line fill="none" stroke="#CCE9FF" stroke-width="2" stroke-miterlimit="10" x1="155.432" y1="98.773" x2="155.432" y2="279.236"/>
	<line fill="none" stroke="#CCE9FF" stroke-width="2" stroke-miterlimit="10" x1="344.166" y1="98.773" x2="344.166" y2="279.236"/>
	<line fill="none" stroke="#CCE9FF" stroke-width="2" stroke-miterlimit="10" x1="281.555" y1="98.773" x2="281.555" y2="279.236"/>
	<line fill="none" stroke="#CCE9FF" stroke-width="2" stroke-miterlimit="10" x1="215.779" y1="98.773" x2="215.779" y2="279.236"/>
	<line fill="none" stroke="#CCE9FF" stroke-width="2" stroke-miterlimit="10" x1="112.279" y1="199.289" x2="388.49" y2="199.289"/>
	<line fill="none" stroke="#CCE9FF" stroke-width="2" stroke-miterlimit="10" x1="112.279" y1="247.357" x2="388.49" y2="247.357"/>
	<polygon fill="#CCE9FF" points="419.672,322.227 80.328,322.227 112.279,279.238 386.996,279.238  "/>
	<g>
		<rect x="240.869" y="195.225" fill="#F7F7F7" width="16.137" height="37.762"/>
		<g>
			<path fill="#0B4870" d="M260.236,230.912c0,0-10.393,0.031-20.608-0.146c-0.31-0.005-0.576,0.217-0.845,0.342     c0,0-0.018,0.116-0.047,0.341c-0.072,0.513-0.222,1.586-0.413,3.046c-0.032,0.245-0.068,0.503-0.105,0.767     c-1,7.504-2.498,18.409-2.782,23.729c-0.378,6.981-0.769,7.976-0.769,9.286c0,3.54-2.132,33.335-2.132,33.335     s3.878,1.129,7.165,0c0,0,3-29.555,3.672-31.743c0.674-2.186,5.436-22.113,6.276-22.209c0.845-0.095,3.18,21.06,3.355,23.935     c0.177,2.875-0.865,29.559,0.094,30.029c0.961,0.479,6.615,0.527,6.902-0.422c0,0,0.266-27.123,0.266-29.977     c0-2.852,0.933-25.07,0.85-26.021C261.115,245.203,261.38,238.226,260.236,230.912z"/>
		</g>
		<g>
			<polygon fill="#F1B99E" points="249.966,196.835 249.981,196.866 249.981,196.877 249.956,196.877 249.956,196.866    "/>
			<path fill="#F1B99E" d="M250.456,195.493l0.365,0.677h-1.732l0.364-0.693l0.138-0.252l-3.169-2.305     c0.21-0.315,0.544-1.219,0.185-3.613c0,0,0,0,0-0.004c-0.032-0.207-0.069-0.423-0.11-0.65c-0.714-3.894,7.416-0.026,7.416-0.026     s-0.062,0.338-0.101,0.851c0,0.006,0,0.006,0,0.006c-0.068,0.781-0.09,1.986,0.218,3.058l-3.705,2.705L250.456,195.493z"/>
			<polygon fill="#F2F2F2" points="255.017,193.217 254.879,194.035 254.63,195.499 253.79,196.217 252.406,197.395      251.762,197.944 251.73,197.887 251.604,197.648 251.208,196.903 250.984,196.486 250.906,196.328 250.821,196.17      250.456,195.493 250.324,195.245 254.029,192.54 254.287,192.351 254.989,193.18    "/>
			<g>
				<path fill="#F1B99E" d="M251.207,172.83c0,0,5.691,0.922,4.827,10.04c-0.87,9.122-5.894,8.376-6.229,8.367      c-0.337-0.011-5.044,0.166-5.41-10.972C244.396,180.266,244.234,172.031,251.207,172.83z"/>
			</g>
			<g>
				<path fill="#F1B99E" d="M256.119,180.294c0,0,0.625-0.681,0.854,0.012c0.229,0.688-0.811,3.662-0.889,3.913      c0,0-0.115,0.265-0.264,0.119C255.672,184.191,256.119,180.294,256.119,180.294z"/>
			</g>
			<g>
				<path fill="#F1B99E" d="M244.531,180.179c0,0-0.609-0.692-0.852-0.007c-0.24,0.687,0.766,3.813,0.813,3.93      c0,0,0.111,0.271,0.265,0.126C244.908,184.082,244.531,180.179,244.531,180.179z"/>
			</g>
			<g>
				<path fill="#FFBE55" d="M256.116,181.695l-0.812,1.115c0,0,0.022-2.447-0.109-2.829c-0.13-0.385,0.156-1.721,0.047-1.997      c-0.109-0.273-3.205,2.956-9.411,2.324c0,0,0,0-0.404,0.156c-0.404,0.157-0.207,2.865-0.207,2.865l-0.668-0.775      c0,0-0.758-4.625-0.686-5.397c0.1-1.029-0.252-5.829,8.484-5.006c1,0.095,1.961,0.462,2.756,1.085      c0.897,0.701,1.822,1.793,1.737,3.295C256.731,178.517,256.116,181.695,256.116,181.695z"/>
			</g>
			<path fill="#A77860" d="M247.211,190.028c0,0,2.349,2.743,6.079,0c0,0-1.048,2.08-3.239,2.13     C247.858,192.207,247.211,190.028,247.211,190.028z"/>
		</g>
		<g>
			<path fill="#0B4870" d="M232.542,303.139c0,0-1.633,1.164-2.535,1.981c-0.906,0.817-2.138,1.704-2.891,3.788     c-0.765,2.111-1.604,3.498,0.438,3.625c2.042,0.123,7.215-1.293,7.519-3.162c0.303-1.85,2.701-1.635,3.016-2.949     c0.31-1.319-0.104-2.939-0.104-2.939L232.542,303.139z"/>
		</g>
		<g>
			<path fill="#EEA886" d="M232.818,301.606l-0.276,1.532c0,0,0.843,1.558,5.442,0.344l-0.24-1.508L232.818,301.606z"/>
		</g>
		<g>
			<path fill="#0B4870" d="M260.969,303.139c0,0,1.633,1.164,2.54,1.981c0.903,0.817,2.135,1.704,2.888,3.788     c0.763,2.111,1.604,3.498-0.438,3.625c-2.044,0.123-7.218-1.293-7.521-3.162c-0.304-1.85-2.702-1.635-3.015-2.949     c-0.311-1.319,0.105-2.939,0.105-2.939L260.969,303.139z"/>
		</g>
		<g>
			<path fill="#EEA886" d="M260.693,301.606l0.275,1.532c0,0-0.842,1.558-5.439,0.344l0.237-1.508L260.693,301.606z"/>
		</g>
		<path fill="#0B4870" d="M242.86,227.727h0.006c0.062-0.058,0.122-0.126,0.163-0.211    C242.977,227.594,242.925,227.669,242.86,227.727z M243.029,227.511c0.053-0.08,0.092-0.169,0.123-0.275v-0.016    C243.121,227.33,243.078,227.427,243.029,227.511z M256.395,227.241c-0.006,0.01,0,0.016,0,0.021    c0.006,0.026,0.021,0.042,0.031,0.067C256.416,227.299,256.406,227.273,256.395,227.241z M256.685,227.632    c-0.053-0.017-0.104-0.042-0.153-0.073c0.007,0.016,0.018,0.025,0.021,0.042c0.059,0.078,0.122,0.147,0.196,0.2    C256.706,227.701,256.685,227.632,256.685,227.632z"/>
		<path fill="#FFBD95" d="M245.053,193.043c-0.184,0.078-0.485,0.164-0.834,0.252l-0.174-0.157l-0.086-0.074l0.34-0.005    L245.053,193.043z"/>
		<polygon fill="#FFBD95" points="255.038,193.105 255.017,193.217 254.989,193.18   "/>
		<path fill="#0B4870" d="M242.86,227.727c0.064-0.058,0.116-0.133,0.169-0.211c-0.041,0.085-0.101,0.153-0.163,0.211H242.86z"/>
		<path fill="#0B4870" d="M243.152,227.22v0.016c-0.031,0.106-0.07,0.195-0.123,0.275    C243.078,227.427,243.121,227.33,243.152,227.22z"/>
		<path fill="#0B4870" d="M256.785,227.833h-0.026c0-0.012-0.005-0.022-0.01-0.032C256.759,227.817,256.769,227.821,256.785,227.833    z"/>
		<path fill="#0B4870" d="M259.771,224.41c-0.958,0.185-1.913,0.401-2.115,0.575c-0.047,0.038-0.089,0.08-0.126,0.116    c-0.344,0.354-0.455,0.766-0.618,0.978c-0.053,0.069-0.492,0.724-0.518,1.062c-0.01,0.037-0.006,0.074,0,0.101    c0.012,0.032,0.021,0.058,0.031,0.089c0.027,0.08,0.059,0.16,0.102,0.223c-0.016-0.006-0.027-0.01-0.043-0.021    c-0.175-0.11-0.312-0.3-0.391-0.57c-0.074-0.274,0.459-1.046,0.518-1.119c0.164-0.201,0.275-0.598,0.617-0.94    c0.037-0.038,0.08-0.074,0.129-0.111c0.198-0.169,1.154-0.375,2.111-0.555c0.096-0.017,0.196-0.037,0.291-0.053    C259.764,224.257,259.764,224.335,259.771,224.41z"/>
		<polygon fill="#303030" points="248.941,196.476 248.708,196.908 248.708,196.387   "/>
		<polygon fill="#D3D3D3" points="249.812,196.17 249.089,196.17 249.453,195.477 249.591,195.225   "/>
		<polygon fill="#0E538C" points="249.981,196.866 249.981,196.877 249.966,196.877 249.956,196.866 249.966,196.835   "/>
		<polygon fill="#0E538C" points="249.966,196.835 249.981,196.866 249.966,196.877 249.956,196.877 249.956,196.866   "/>
		<polygon fill="#D3D3D3" points="250.456,195.493 250.821,196.17 250.113,196.17 250.324,195.245   "/>
		<g>
			<path fill="#0B4870" d="M239.887,228.572c0,0.074-0.005,0.148-0.005,0.223c-0.006,0.295-0.01,0.586-0.01,0.871     c-0.091-0.074-0.187-0.153-0.271-0.217c-0.085-0.063-0.153-0.117-0.205-0.148c-0.086-0.047-0.218-0.11-0.376-0.2     c-0.159-0.09-0.348-0.2-0.54-0.359c0.176-0.095,0.359-0.185,0.556-0.179c0.117,0,0.231,0.005,0.349,0.005     C239.554,228.572,239.719,228.572,239.887,228.572z"/>
		</g>
		<g>
			<path fill="#FCD2B1" d="M238.957,224.05l-0.983,4.168c-0.443-0.511-1.202-1.431-1.758-2.097c-0.386-0.47-0.671-0.819-0.671-0.819     l0.074-0.031l1.611-0.692l0.903-0.633l0.026-0.016c0,0,0.052,0.004,0.142,0.021C238.439,223.972,238.673,224.008,238.957,224.05z     "/>
			<path fill="#F1B99E" d="M239.887,228.572c0,0.074-0.005,0.148-0.005,0.223c-0.006,0.295-0.01,0.586-0.01,0.871     c-0.091-0.074-0.187-0.153-0.271-0.217c-0.085-0.063-0.153-0.117-0.205-0.148c-0.086-0.047-0.218-0.11-0.376-0.2     c-0.159-0.09-0.348-0.2-0.54-0.359c0.176-0.095,0.359-0.185,0.556-0.179c0.117,0,0.231,0.005,0.349,0.005     C239.554,228.572,239.719,228.572,239.887,228.572z"/>
			<path fill="#F1B99E" d="M242.866,227.727c0.068,0,0.132,0,0.2,0.006l-0.006,0.006c-0.068-0.006-0.132-0.006-0.2-0.006v-0.006     c0.064-0.058,0.116-0.133,0.169-0.211C242.988,227.601,242.929,227.669,242.866,227.727z"/>
			<path fill="#F1B99E" d="M243.152,227.22v0.016c-0.031,0.106-0.07,0.195-0.123,0.275     C243.078,227.427,243.121,227.33,243.152,227.22z"/>
		</g>
		<g>
			<path fill="#F1B99E" d="M256.785,227.833h-0.026c0-0.012-0.005-0.022-0.01-0.032     C256.759,227.817,256.769,227.821,256.785,227.833z"/>
			<path fill="#F1B99E" d="M259.771,224.41c-0.958,0.185-1.913,0.401-2.115,0.575c-0.047,0.038-0.089,0.08-0.126,0.116     c-0.344,0.354-0.455,0.766-0.618,0.978c-0.053,0.069-0.492,0.724-0.518,1.062c-0.01,0.037-0.006,0.074,0,0.101     c0.012,0.032,0.021,0.058,0.031,0.089c0.027,0.08,0.064,0.16,0.102,0.223c-0.016-0.006-0.027-0.01-0.043-0.021     c-0.175-0.11-0.312-0.3-0.391-0.57c-0.074-0.274,0.459-1.046,0.518-1.119c0.164-0.201,0.275-0.598,0.617-0.94     c0.037-0.038,0.08-0.074,0.129-0.111c0.198-0.169,1.154-0.375,2.111-0.555c0.096-0.017,0.196-0.037,0.291-0.053     C259.764,224.257,259.764,224.335,259.771,224.41z"/>
			<path fill="#F1B99E" d="M264.123,225.514c0,0-0.164,0.195-0.412,0.491l-2.065-2.129h0.011l0.132,0.091l0.809,0.564l1.442,0.93     L264.123,225.514z"/>
		</g>
		<path fill="#FFBE55" d="M250.858,196.333l-0.1-0.163h-1.67l-0.079,0.147l-0.068,0.158l-0.233,0.433l-0.222,0.418l-0.175,0.332    v0.746h2.896v-1.485L250.858,196.333z M249.785,196.894h-0.031v-0.011l0.016-0.032l0.016,0.032V196.894z"/>
		<polygon fill="#F2F2F2" points="249.591,195.225 249.453,195.477 249.089,196.17 249.01,196.317 248.941,196.476 248.708,196.908     248.486,197.326 248.312,197.658 248.186,197.896 248.16,197.944 245.904,196.017 245.678,194.59 245.65,194.41 245.635,194.357     245.232,192.831 245.641,192.351 246.422,192.92   "/>
		<polygon fill="#FFBE55" points="249.966,196.835 249.981,196.866 249.981,196.877 249.956,196.877 249.956,196.866   "/>
		<path fill="#0B4870" d="M275.845,211.299c-0.005-0.012-0.016-0.021-0.016-0.031c0-0.006-0.011-0.012-0.016-0.017    c-0.042-0.096-0.101-0.2-0.169-0.285c-0.165-0.254-0.439-0.607-0.771-1.02c-0.867-1.067-2.16-2.536-3.207-3.725    c-0.798-0.897-1.447-1.622-1.674-1.917c-0.629-0.798-2.013-3.122-4.507-6.102c-0.749-0.909-1.532-1.611-2.292-2.103    c-0.006-0.042-0.01-0.068-0.021-0.09c-0.01-0.021-0.021-0.042-0.041-0.062l-0.006-0.006c-0.08-0.138-0.237-0.274-0.445-0.407    c-0.517-0.327-1.372-0.628-2.328-0.935l0,0l-5.313-1.495l-0.021,0.111l-0.138,0.818l-0.249,1.464l-0.259,1.521l-0.228,1.357v0.012    l-0.855,40.362c0.392-0.037,0.809-0.073,1.242-0.12l0.121-0.012l7.428-0.876l0.121-0.297l-0.327-9.28    c-0.121,0.137-0.228,0.253-0.296,0.327c-0.011,0.016-0.021,0.026-0.032,0.037c-0.08,0.084-0.164,0.158-0.249,0.222    c-0.12,0.101-0.247,0.185-0.363,0.254c-0.222,0.132-0.412,0.222-0.523,0.285c-0.048,0.031-0.122,0.084-0.206,0.147    c-0.095,0.074-0.206,0.158-0.301,0.237c-0.143,0.123-0.264,0.232-0.296,0.26c-0.006,0.004-0.006,0.004-0.006,0.004    c-0.2,0.148-0.702,0.244-0.702,0.244c-0.428-0.021-0.707-0.687-0.707-0.687c-0.504-0.147-0.729-0.593-0.803-0.782    c-0.021-0.053-0.031-0.085-0.031-0.085c-0.061-0.036-0.117-0.084-0.171-0.137c-0.2-0.195-0.343-0.475-0.428-0.66    c0-0.012-0.005-0.022-0.01-0.032c-0.074-0.053-0.138-0.122-0.196-0.2c-0.004-0.017-0.015-0.026-0.021-0.042l-0.004-0.006    c-0.016-0.006-0.027-0.01-0.043-0.021c-0.175-0.11-0.312-0.3-0.391-0.57c-0.074-0.274,0.459-1.046,0.518-1.119    c0.164-0.201,0.275-0.598,0.617-0.94c0.037-0.038,0.08-0.074,0.129-0.111c0.198-0.169,1.154-0.375,2.111-0.555    c0.096-0.017,0.196-0.037,0.291-0.053c0.406-0.074,0.803-0.138,1.126-0.185l-0.28-1.189l1.04,1.067l2.065,2.129l1.211,1.246    c0,0,6.296-7.896,9.143-11.098c0.169-0.19,0.322-0.37,0.459-0.544h0.006c1.141-1.38,1.639-2.403,1.732-3.206    C276.178,212.022,276.029,211.646,275.845,211.299z M267.521,214.706c-1.337,1.648-6.155,6.835-7,7.744l-1.157-4.908v-0.005    c-0.004-0.105-0.01-0.201-0.01-0.291c-0.012-0.236,0-0.417,0.037-0.517c0.179-0.539,0.939-7.438,1.738-10.724    c0.078-0.307,0.157-0.607,0.227-0.92c1.991,2.61,4.42,5.13,6.153,6.789c0.508,0.495,0.939,0.897,1.295,1.225    C268.291,213.718,267.848,214.305,267.521,214.706z"/>
		<path fill="#0B4870" d="M262.079,237.743c-0.091,0.016-0.181,0.026-0.274,0.036c-1.982,0.254-4.792,0.604-7.153,0.84    L262.079,237.743z"/>
		<path fill="#0B4870" d="M245.945,196.28v-0.017l-0.041-0.247l-0.227-1.427l-0.027-0.18l-0.016-0.053l-0.402-1.526l-0.016-0.068    l-0.918,0.296l-0.254,0.079l-3.91,1.257l-0.438,0.137l-0.301,0.096c-0.471,0.147-0.908,0.296-1.291,0.449    c-0.432,0.174-0.791,0.354-1.039,0.544c-0.005,0.005-0.011,0.005-0.017,0.016c-0.84,0.492-1.711,1.252-2.535,2.261    c-2.494,3.022-3.877,5.379-4.506,6.181c-0.228,0.296-0.877,1.03-1.675,1.938c-1.041,1.205-2.34,2.695-3.201,3.771    c-0.338,0.418-0.612,0.777-0.771,1.031c-0.072,0.09-0.127,0.195-0.174,0.29c0,0.011-0.016,0.016-0.016,0.021    c0,0.011-0.006,0.017-0.016,0.026c-0.186,0.354-0.334,0.735-0.418,1.12c0.096,0.814,0.592,1.85,1.732,3.244h0.006    c0.143,0.18,0.296,0.358,0.459,0.555c2.853,3.237,9.148,11.23,9.148,11.23l1.132-1.184l2.086-2.17l0.903-0.947l0.211-0.222    l-0.315,1.295c0.28,0.042,0.606,0.101,0.939,0.158c0.175,0.031,0.344,0.063,0.519,0.095c0.871,0.164,1.684,0.354,1.87,0.508    c0.047,0.031,0.084,0.074,0.12,0.105c0.343,0.343,0.455,0.739,0.613,0.936c0.063,0.072,0.587,0.84,0.518,1.108    c-0.062,0.217-0.164,0.38-0.291,0.497c-0.089,0.078-0.189,0.138-0.295,0.174c0,0-0.012,0.027-0.027,0.074l-0.006,0.006    c-0.062,0.168-0.231,0.564-0.506,0.808c-0.026,0.026-0.054,0.048-0.085,0.068c-0.016,0.011-0.026,0.021-0.041,0.032    c0,0-0.196,0.671-0.83,0.86c0,0-0.281,0.661-0.703,0.682c0,0-0.28-0.058-0.502-0.142c-0.078-0.032-0.142-0.063-0.194-0.102    c0,0-0.154-0.132-0.327-0.279c-0.091-0.074-0.187-0.153-0.271-0.217c-0.085-0.063-0.153-0.117-0.205-0.148    c-0.086-0.047-0.218-0.11-0.376-0.2c-0.159-0.09-0.348-0.2-0.54-0.359c-0.068-0.059-0.142-0.121-0.21-0.195    c-0.047-0.047-0.121-0.132-0.218-0.237l-0.834,9.148l9.472,1.306c0.048,0.005,0.101,0.01,0.147,0.01L245.945,196.28z     M240.504,217.495l-1.141,4.823c-1.093-1.188-5.594-6.111-6.877-7.713c-0.328-0.407-0.771-0.999-1.29-1.628    c0.355-0.326,0.787-0.739,1.295-1.24c1.695-1.638,4.057-4.115,6.022-6.693c0.11,0.47,0.216,0.93,0.326,1.39    c0.757,3.169,1.485,9.915,1.654,10.438C240.537,216.982,240.537,217.193,240.504,217.495z"/>
		<path fill="#FCD2B1" d="M243.162,225.879c-0.158-0.196-0.271-0.593-0.613-0.936c-0.036-0.031-0.073-0.074-0.12-0.105    c-0.187-0.153-0.999-0.344-1.87-0.508c-0.175-0.031-0.344-0.063-0.519-0.095c-0.392-0.068-0.767-0.132-1.083-0.186l-0.983,4.168    c0.132,0.149,0.233,0.265,0.297,0.328c0.068,0.074,0.142,0.137,0.21,0.195c0.176-0.095,0.359-0.185,0.556-0.179    c0.117,0,0.231,0.005,0.349,0.005c0.169,0.005,0.334,0.005,0.502,0.005c0,0.074-0.005,0.148-0.005,0.223    c-0.006,0.295-0.01,0.586-0.01,0.871c0.173,0.147,0.327,0.279,0.327,0.279c0.053,0.038,0.116,0.069,0.194,0.102    c0.222,0.084,0.502,0.142,0.502,0.142c0.422-0.021,0.703-0.682,0.703-0.682c0.634-0.189,0.83-0.86,0.83-0.86    c0.015-0.011,0.025-0.021,0.041-0.032c0.031-0.021,0.059-0.042,0.085-0.068c0.274-0.243,0.443-0.64,0.506-0.808    c-0.068-0.006-0.132-0.006-0.2-0.006v-0.006c0.064-0.058,0.116-0.133,0.169-0.211c-0.041,0.085-0.101,0.153-0.163,0.211    c0.068,0,0.132,0,0.2,0.006c0.016-0.047,0.027-0.074,0.027-0.074c0.105-0.036,0.206-0.096,0.295-0.174    c0.127-0.117,0.229-0.28,0.291-0.497C243.749,226.719,243.226,225.951,243.162,225.879z M243.152,227.235    c-0.031,0.106-0.07,0.195-0.123,0.275c0.049-0.084,0.092-0.181,0.123-0.291V227.235z"/>
		<path fill="#0E538C" d="M239.887,228.572c0,0.074-0.005,0.148-0.005,0.223c-0.006,0.295-0.01,0.586-0.01,0.871    c-0.091-0.074-0.187-0.153-0.271-0.217c-0.085-0.063-0.153-0.117-0.205-0.148c-0.086-0.047-0.218-0.11-0.376-0.2    c-0.159-0.09-0.348-0.2-0.54-0.359c0.176-0.095,0.359-0.185,0.556-0.179c0.117,0,0.231,0.005,0.349,0.005    C239.554,228.572,239.719,228.572,239.887,228.572z"/>
		<path fill="#0E538C" d="M243.066,227.732l-0.006,0.006c-0.068-0.006-0.132-0.006-0.2-0.006v-0.006h0.006    C242.935,227.727,242.998,227.727,243.066,227.732z"/>
		<path fill="#0B4870" d="M243.029,227.516c-0.041,0.085-0.101,0.153-0.163,0.211h-0.006    C242.925,227.669,242.977,227.594,243.029,227.516z"/>
		<path fill="#0B4870" d="M243.152,227.22v0.016c-0.031,0.106-0.07,0.195-0.123,0.275    C243.078,227.427,243.121,227.33,243.152,227.22z"/>
		<path fill="#FCD2B1" d="M263.711,226.005c-0.496,0.597-1.342,1.596-1.838,2.161c-0.121,0.137-0.228,0.253-0.296,0.327    c-0.011,0.016-0.021,0.026-0.032,0.037c-0.08,0.084-0.164,0.158-0.249,0.222c-0.12,0.101-0.247,0.185-0.363,0.254    c-0.222,0.132-0.412,0.222-0.523,0.285c-0.048,0.031-0.122,0.084-0.206,0.147c-0.095,0.074-0.206,0.158-0.301,0.237    c-0.143,0.123-0.264,0.232-0.296,0.26c-0.006,0.004-0.006,0.004-0.006,0.004c-0.2,0.148-0.702,0.244-0.702,0.244    c-0.428-0.021-0.707-0.687-0.707-0.687c-0.504-0.147-0.729-0.593-0.803-0.782c-0.021-0.053-0.031-0.085-0.031-0.085    c-0.061-0.036-0.117-0.084-0.171-0.137c-0.2-0.195-0.343-0.475-0.428-0.66h0.026c-0.017-0.012-0.026-0.016-0.036-0.032    c-0.043-0.1-0.064-0.169-0.064-0.169c-0.053-0.017-0.104-0.042-0.153-0.073l-0.004-0.006c-0.037-0.062-0.074-0.143-0.102-0.223    c-0.01-0.031-0.02-0.057-0.031-0.089c-0.006-0.026-0.01-0.063,0-0.101c0.025-0.338,0.465-0.992,0.518-1.062    c0.163-0.212,0.274-0.624,0.618-0.978c0.037-0.036,0.079-0.078,0.126-0.116c0.202-0.174,1.157-0.391,2.115-0.575    c-0.008-0.075-0.008-0.153-0.012-0.228c0.406-0.074,0.803-0.138,1.126-0.185c0.406-0.068,0.702-0.111,0.76-0.122L263.711,226.005z    "/>
		<path fill="#0B4870" d="M256.749,227.801c-0.074-0.053-0.138-0.122-0.196-0.2c-0.004-0.017-0.015-0.026-0.021-0.042    c0.049,0.031,0.101,0.057,0.153,0.073C256.685,227.632,256.706,227.701,256.749,227.801z"/>
		<path fill="#0B4870" d="M256.785,227.833h-0.026c0-0.012-0.005-0.022-0.01-0.032C256.759,227.817,256.769,227.821,256.785,227.833    z"/>
		<path fill="#0B4870" d="M259.771,224.41c-0.958,0.185-1.913,0.401-2.115,0.575c-0.047,0.038-0.089,0.08-0.126,0.116    c-0.344,0.354-0.455,0.766-0.618,0.978c-0.053,0.069-0.492,0.724-0.518,1.062c-0.01,0.037-0.006,0.074,0,0.101    c0.012,0.032,0.021,0.058,0.031,0.089c0.027,0.08,0.064,0.16,0.102,0.223c-0.016-0.006-0.027-0.01-0.043-0.021    c-0.175-0.11-0.312-0.3-0.391-0.57c-0.074-0.274,0.459-1.046,0.518-1.119c0.164-0.201,0.275-0.598,0.617-0.94    c0.037-0.038,0.08-0.074,0.129-0.111c0.198-0.169,1.154-0.375,2.111-0.555c0.096-0.017,0.196-0.037,0.291-0.053    C259.764,224.257,259.764,224.335,259.771,224.41z"/>
		<path fill="#FCD2B1" d="M243.162,225.879c0.063,0.072,0.587,0.84,0.518,1.108c-0.062,0.217-0.164,0.38-0.291,0.497    c-0.089,0.078-0.189,0.138-0.295,0.174c0,0-0.012,0.027-0.027,0.074l-0.006,0.006c-0.062,0.168-0.231,0.564-0.506,0.808    c-0.026,0.026-0.054,0.048-0.085,0.068c-0.016,0.011-0.026,0.021-0.041,0.032c0,0-0.196,0.671-0.83,0.86    c0,0-0.281,0.661-0.703,0.682c0,0-0.28-0.058-0.502-0.142c-0.078-0.032-0.142-0.063-0.194-0.102c0,0-0.154-0.132-0.327-0.279    c-0.091-0.074-0.187-0.153-0.271-0.217c-0.085-0.063-0.153-0.117-0.205-0.148c-0.086-0.047-0.218-0.11-0.376-0.2    c-0.159-0.09-0.348-0.2-0.54-0.359c-0.068-0.059-0.142-0.121-0.21-0.195c-0.047-0.047-0.121-0.132-0.218-0.237l1.048-4.231    c0.28,0.042,0.606,0.101,0.939,0.158c0.175,0.031,0.344,0.063,0.519,0.095c0.871,0.164,1.684,0.354,1.87,0.508    c0.047,0.031,0.084,0.074,0.12,0.105C242.892,225.286,243.004,225.683,243.162,225.879z"/>
		<polygon fill="#FFBE55" points="248.941,198.404 247.806,222.764 249.812,226.594 252.163,222.698 250.468,198.404   "/>
	</g>
</g>
</svg>