<svg xmlns="http://www.w3.org/2000/svg" xmlns:xlink="http://www.w3.org/1999/xlink" version="1.1" id="Layer_2" x="0px" y="0px" viewBox="0 0 1080 1080" style="enable-background:new 0 0 1080 1080;" xml:space="preserve">
<style type="text/css">
	.st0{fill:#F2F2F2;}
	.st1{opacity:0.21;fill:#FFBE55;}
	.st2{opacity:0.75;fill:none;stroke:#FFBE55;stroke-width:5;stroke-miterlimit:10;}
	.st3{opacity:0.85;fill:none;stroke:#FFBE55;stroke-width:3;stroke-miterlimit:10;stroke-dasharray:12;}
	.st4{fill:#0B4870;}
	.st5{fill:#FFE3CA;}
	.st6{fill:#FCD2B1;}
	.st7{fill:#FFBE55;}
	.st8{fill:#FFDEC2;}
	.st9{fill:#B0E1FF;}
	.st10{fill:#E9F7FF;}
	.st11{fill:#FFFFFF;}
	.st12{fill:#2A94F4;}
	.st13{fill:none;stroke:#FCAD00;stroke-miterlimit:10;}
	.st14{fill:none;stroke:#FFBE55;stroke-miterlimit:10;}
</style>
<path class="st0" d="M1024.09,1052.61H55.91c-6.28,0-11.41-5.14-11.41-11.41v-56.78c0-6.28,5.14-11.41,11.41-11.41h968.17  c6.28,0,11.41,5.14,11.41,11.41v56.78C1035.5,1047.47,1030.36,1052.61,1024.09,1052.61z"/>
<circle class="st1" cx="578.5" cy="289.5" r="205.5"/>
<circle class="st2" cx="762" cy="415" r="72"/>
<circle class="st3" cx="394.5" cy="224.5" r="84"/>
<path class="st4" d="M458.26,996.73c-13.77,3.26-32.95,12.72-44.13,18.62c-3.78,1.99-2.28,6.05,2.45,6.63  c14.99,1.84,41.3,3.86,58.61-1.68c21.77-8.13,2.72-24.74,2.72-24.74L458.26,996.73z"/>
<path class="st4" d="M584.76,982.53c-8.69,8.22-18.41,24.68-23.89,34.65c-1.85,3.38,1.24,6.96,5.05,5.87  c12.08-3.47,32.69-10.79,42.92-22.59c12.3-16.02-9.98-26.13-9.98-26.13L584.76,982.53z"/>
<path class="st5" d="M492,720c22,56,77,220,96,262c2,4,6.99,3.54,9,3c6.84-1.85,5-7,5-7s-23-133-34-149c-6-21-6-87-25-125  S492,720,492,720z"/>
<path class="st5" d="M443.33,620.48c0.39,49.25,10.51,262.13,14.51,315.74s5.34,60.77,5.34,60.77s4.32,7.44,15.93,1.5  c1.66-39.02,14.3-151.95,6.22-172.8c6.67-31.69,25.55-207.9,25.55-207.9L443.33,620.48z"/>
<path class="st4" d="M646,721c-30,75-202,109-251,26c0-66.86,37.76-185.34,64.01-221.66c3.96-5.48,7.64-10.52,10.85-15.1  c2.66-3.78,5-7.25,6.92-10.38c1.79-2.91,3.22-5.53,4.22-7.86c0.92-2.15,1.67-4.33,2.27-6.53C490.49,459.12,476,431,476,431v3  c-123,108-72-81-72-81h12c0,0-10,49,1,76s57-76,64-83s33-6,50-8l22-3c0,0,37,8,46,14c7.61,5.08,3.78,5.14,21.79,40.76  c26.3,52.03,17.96,115.1-21.4,158.1C593.31,554.5,589,558,589,558l-6-12c18-22,23-44,27-73s-25-51-25-51s-6,10-23,45  c-1.25,2.58-2.02,5.57-2.38,8.93c-0.52,4.84-0.16,10.43,0.89,16.65c0.56,3.36,1.32,6.89,2.26,10.59c1.16,4.56,2.59,9.35,4.22,14.35  C583.02,566.53,638.39,671.85,646,721z"/>
<g>
	<path class="st4" d="M554.8,214.26c2.75-11.16,10.81-20.6,20.77-26.35c9.95-5.74,21.65-8.01,33.14-7.9   c10.61,0.1,21.64,2.37,29.91,9.01c8.27,6.64,12.99,18.43,9.12,28.3c-2.17,5.52-6.84,10.6-5.93,16.46c0.59,3.81,3.51,6.88,6.82,8.86   c3.31,1.97,7.04,3.08,10.58,4.61c5.02,2.17,9.73,5.3,13.03,9.66c3.3,4.36,5.06,10.05,4,15.41c-1.27,6.39-6.15,11.32-10.5,16.18   c-4.34,4.85-8.58,10.69-8.08,17.18c0.81,10.58,13.66,17.5,13.72,28.1c0.04,6.56-5.42,12.35-11.79,13.93   c-6.37,1.58-13.23-0.49-18.6-4.25c-5.37-3.77-9.45-9.08-13.07-14.55c-2.61-3.94-5.06-8.11-6.01-12.74   c-0.94-4.63-0.14-9.85,3.11-13.28c1.89-2,4.5-3.31,6.01-5.61c3.07-4.67,0.19-11.15-4.06-14.79s-9.68-5.72-13.78-9.53   s-6.48-10.62-2.89-14.91c1.84-2.2,4.99-3.43,5.82-6.17c1.01-3.35-2.41-6.65-5.87-7.12c-3.47-0.47-6.88,0.9-10.27,1.76   c-9.08,2.31-19.04,0.92-27.15-3.78c-8.1-4.7-14.25-12.66-16.75-21.69L554.8,214.26z"/>
</g>
<path class="st4" d="M518.05,260.75c-2.63,23.77,11.69,44.86,31.99,47.11c20.3,2.25,38.89-15.2,41.52-38.97  c2.63-23.77-11.85-43.69-31.99-47.11C520.13,215.09,520.68,236.98,518.05,260.75z"/>
<polygon class="st6" points="534.8,311.98 534.31,342.05 534.73,386.97 555.5,339.83 561.1,297.21 540.32,291.3 "/>
<path class="st5" d="M516.32,276.35c-2.04,18.4,5.17,41.25,20.05,42.9s31.81-18.53,33.85-36.93c2.04-18.4-8.38-34.66-23.26-36.31  C532.08,244.36,518.36,257.94,516.32,276.35z"/>
<path class="st4" d="M499.97,244.77c-1.11,10.01,19.09,28.9,35.32,30.7c16.23,1.8,30.28-4.87,31.39-14.88  c1.11-10.01-11.15-19.59-27.37-21.38S501.08,234.76,499.97,244.77z"/>
<ellipse transform="matrix(0.11 -0.9939 0.9939 0.11 228.5045 813.1841)" class="st5" cx="568.33" cy="279" rx="9.26" ry="7.16"/>
<g>
	<g>
		<path class="st7" d="M570.17,306.11c-0.33,0-0.67-0.02-1-0.06c-2.4-0.27-4.55-1.45-6.06-3.33c-1.51-1.88-2.19-4.24-1.93-6.64    l0.5,0.06l-0.5-0.06c0.27-2.4,1.45-4.55,3.33-6.06c1.88-1.51,4.24-2.19,6.64-1.93c2.4,0.27,4.55,1.45,6.06,3.33    s2.19,4.24,1.93,6.64C578.63,302.68,574.71,306.11,570.17,306.11z M570.15,289.04c-1.82,0-3.57,0.61-5.01,1.76    c-1.67,1.34-2.73,3.25-2.96,5.39l0,0c-0.24,2.13,0.37,4.23,1.71,5.91c1.34,1.68,3.25,2.73,5.39,2.96c4.41,0.49,8.38-2.7,8.87-7.1    c0.24-2.13-0.37-4.23-1.71-5.91c-1.34-1.68-3.26-2.73-5.39-2.96C570.75,289.05,570.45,289.04,570.15,289.04z"/>
	</g>
	<g>
		<circle class="st7" cx="569.79" cy="286.04" r="2.55"/>
	</g>
</g>
<path class="st7" d="M560.51,492.58c-24.72,13.42-59.77,11.18-83.73,7.28c1.79-2.91,3.22-5.53,4.22-7.86  c0.92-2.15,1.67-4.33,2.27-6.53c22.79,4.27,57.45,0.22,76.35-9.54C559.1,480.77,559.46,486.36,560.51,492.58z"/>
<path class="st5" d="M583.86,547.72L577,553l-15,2c0,0-1,16,8,18c7-5,10-10,10-10l7.69-7.61L583.86,547.72z"/>
<path class="st5" d="M430.49,306.88L424,331c0,0,0,0,2,4c0.92,1.84-0.7,4.31-2.71,6.44c-0.01,0-0.01,0-0.01,0  C420.92,343.95,418,346,418,346l-2,7h-9.97l0.97-7c0,0-6-8-3-14c0.24-0.48,0.73-1.31,2-2.16l15-2.84c1.7-3.4,5.57-16.19,8.53-20.57  C429.87,305.93,430.65,306.29,430.49,306.88z"/>
<path class="st8" d="M421,327c0,0-1,10-4,11s-12-4-12-4l1-4.16L421,327z"/>
<path class="st8" d="M423.29,341.44C423.28,341.44,423.28,341.44,423.29,341.44c-0.01,0-2.29-7.44-2.66-11.84  c-0.05-0.54,1.37-0.6,3.37,1.4c0,0,0,0,2,4C426.92,336.84,425.3,339.31,423.29,341.44z"/>
<g>
	<g>
		<path class="st9" d="M449.38,246.97c0,1.31-0.5,2.51-1.31,3.43c0.82,0.91,1.31,2.12,1.31,3.43v4.28c0,0.93-0.25,1.81-0.69,2.57    c0.44,0.76,0.69,1.64,0.69,2.57v4.28c0,2.83-2.31,5.14-5.14,5.14h-44.55c-2.83,0-5.14-2.31-5.14-5.14v-4.28    c0-0.93,0.25-1.81,0.69-2.57c-0.44-0.76-0.69-1.64-0.69-2.57v-4.28c0-1.31,0.5-2.51,1.31-3.43c-0.82-0.91-1.31-2.12-1.31-3.43    v-4.28c0-2.83,2.31-5.14,5.14-5.14h44.55c2.83,0,5.14,2.31,5.14,5.14V246.97z"/>
	</g>
	<g>
		<path class="st7" d="M484.93,149.96c0,24.95-14.51,46.51-35.55,56.7v23.23c0,1.74-1.43,3.17-3.17,3.17h-48.49    c-1.74,0-3.17-1.43-3.17-3.17v-23.23c-21.04-10.19-35.55-31.75-35.55-56.7C359,115.19,387.19,87,421.96,87    S484.93,115.19,484.93,149.96z"/>
	</g>
	<g>
		<path class="st10" d="M443.41,251.45h-42.21c-0.38,0-0.69-0.31-0.69-0.69s0.31-0.69,0.69-0.69h42.21c0.38,0,0.69,0.31,0.69,0.69    S443.8,251.45,443.41,251.45z"/>
	</g>
	<g>
		<path class="st10" d="M443.41,261.13h-42.21c-0.38,0-0.69-0.31-0.69-0.69s0.31-0.69,0.69-0.69h42.21c0.38,0,0.69,0.31,0.69,0.69    S443.8,261.13,443.41,261.13z"/>
	</g>
	<g>
		<g>
			<path class="st11" d="M432.76,157.72c-0.8-0.71-1.87-1.04-3.02-0.93c-1.44,0.15-2.86,0.95-3.72,2.12     c-0.77,1.04-1.19,2.27-1.42,3.46c-0.64-0.33-1.29-0.7-1.95-1.09l-0.24-0.15h-0.87l-0.24,0.15c-0.66,0.39-1.31,0.76-1.95,1.09     c-0.23-1.19-0.64-2.41-1.42-3.46c-0.86-1.17-2.29-1.98-3.72-2.12c-1.16-0.11-2.23,0.21-3.02,0.93c-1.04,0.94-1.41,2.34-1,3.83     c0.53,1.92,2.17,3.51,4,3.88c1.17,0.24,2.31,0.15,3.43-0.15v0.03c1.74,22.45,2.39,45.23,1.92,67.75h2.08     c0.46-22.57-0.17-45.4-1.92-67.9c-0.01-0.2-0.03-0.4-0.05-0.62c0.8-0.37,1.58-0.8,2.35-1.24c0.77,0.44,1.54,0.87,2.35,1.24     c-0.02,0.21-0.03,0.42-0.05,0.62c-1.75,22.49-2.39,45.33-1.92,67.9h2.08c-0.47-22.52,0.17-45.3,1.92-67.75v-0.03     c1.12,0.3,2.26,0.39,3.43,0.15c1.83-0.37,3.47-1.97,4-3.88C434.17,160.06,433.8,158.66,432.76,157.72z M414.57,163.4     c-1.06-0.21-2.09-1.25-2.4-2.39c-0.14-0.51-0.19-1.22,0.39-1.74c0.37-0.33,0.81-0.42,1.18-0.42c0.08,0,0.17,0.01,0.25,0.01     c0.85,0.08,1.74,0.59,2.26,1.29c0.63,0.84,0.94,1.88,1.12,3.04C416.43,163.48,415.5,163.59,414.57,163.4z M431.76,161.01     c-0.31,1.15-1.34,2.18-2.4,2.39c-0.92,0.19-1.85,0.08-2.8-0.21c0.18-1.17,0.49-2.2,1.12-3.04c0.51-0.7,1.4-1.2,2.26-1.29     c0.41-0.04,0.98-0.01,1.43,0.4C431.94,159.78,431.89,160.5,431.76,161.01z"/>
		</g>
	</g>
	<g>
		<path class="st11" d="M365.23,158.04c-0.72,0-1.33-0.56-1.38-1.3c-2.08-32.51,22.16-53.4,38.96-59.51    c0.72-0.26,1.51,0.11,1.77,0.83c0.26,0.72-0.11,1.51-0.83,1.77c-8.86,3.22-18.17,10.14-24.91,18.51    c-6.2,7.7-13.36,20.59-12.24,38.22c0.05,0.76-0.53,1.42-1.29,1.47C365.29,158.04,365.26,158.04,365.23,158.04z"/>
	</g>
</g>
<g>
	<g>
		<g>
			<path class="st12" d="M941.07,894.91c-11.4-53.18-46.55-100.81-94-127.4c25.39,47.95,55.78,93.25,90.53,134.92L941.07,894.91z"/>
		</g>
		<g>
			<path class="st12" d="M953.79,914.9c-45.22-63.22-67.89-142.23-63.07-219.81c29.3,71.61,51.44,146.15,65.97,222.14L953.79,914.9z     "/>
		</g>
		<g>
			<path class="st12" d="M940.86,917.06c-1.38-38.9-2.75-78.08,3.35-116.52c6.1-38.44,20.23-76.54,46.38-105.37     c3.98,79.63-15.29,160.29-54.83,229.52L940.86,917.06z"/>
		</g>
		<g>
			<path class="st4" d="M942.72,920.53C917.26,846.98,921.43,763.64,954.1,693c20.43,73.8,2.35,152.14-15.74,226.55L942.72,920.53z"/>
		</g>
		<g>
			<path class="st12" d="M946.09,893.29c7.03-64.52,50.08-123.91,109.21-150.66c-23.99,64.37-65,122.32-117.72,166.36L946.09,893.29     z"/>
		</g>
	</g>
	<path class="st7" d="M1007.01,881.98l-7.32,125.3c0,6.04-4.94,10.98-10.98,10.98h-86.89c-6.04,0-10.98-4.94-10.98-10.98   l-1.66-28.33l-5.66-96.98c0-6.04,4.94-10.98,10.98-10.98h101.52c3.96,0,7.45,2.13,9.38,5.3v0.01   C1006.42,877.97,1007.01,879.92,1007.01,881.98z"/>
</g>
<g>
	<g>
		<g>
			<path class="st12" d="M121.8,926.54c-8.16-38.04-33.29-72.1-67.23-91.12c18.16,34.3,39.9,66.7,64.75,96.5L121.8,926.54z"/>
		</g>
		<g>
			<path class="st12" d="M130.9,940.83C98.56,895.61,82.34,839.1,85.79,783.61c20.96,51.22,36.79,104.53,47.18,158.88L130.9,940.83z     "/>
		</g>
		<g>
			<path class="st12" d="M121.65,942.38c-0.99-27.82-1.97-55.85,2.4-83.34s14.47-54.74,33.17-75.37     c2.85,56.95-10.93,114.64-39.22,164.16L121.65,942.38z"/>
		</g>
		<g>
			<path class="st9" d="M122.98,944.86c-18.21-52.6-15.23-112.21,8.14-162.74c14.61,52.78,1.68,108.82-11.26,162.04L122.98,944.86z"/>
		</g>
		<g>
			<path class="st12" d="M125.39,925.38c5.03-46.14,35.82-88.62,78.11-107.75c-17.16,46.04-46.49,87.49-84.2,118.99L125.39,925.38z"/>
		</g>
	</g>
	<path class="st7" d="M168.96,917.29l-5.23,89.62c0,4.32-3.53,7.85-7.85,7.85H93.73c-4.32,0-7.85-3.53-7.85-7.85l-1.18-20.26   l-4.05-69.36c0-4.32,3.53-7.85,7.85-7.85h72.61c2.83,0,5.33,1.52,6.71,3.79v0.01C168.54,914.42,168.96,915.81,168.96,917.29z"/>
</g>
<circle class="st7" cx="326.5" cy="153.5" r="17.5"/>
<circle class="st7" cx="476.5" cy="68.5" r="10.5"/>
<circle class="st13" cx="373" cy="73" r="6.5"/>
<circle class="st14" cx="512" cy="158" r="17.5"/>
</svg>