<svg xmlns="http://www.w3.org/2000/svg" xmlns:xlink="http://www.w3.org/1999/xlink" version="1.1" id="Defense" x="0px" y="0px" viewBox="0 0 1920 1080" style="enable-background:new 0 0 1920 1080;" xml:space="preserve">
<style type="text/css">
	.st0{opacity:0.1;fill:#2A94F4;}
	.st1{fill:#0E538C;}
	.st2{fill:#0B4870;}
	.st3{fill:#DBA17B;}
	.st4{fill:#2A94F4;}
	.st5{fill:#FFBE55;}
</style>
<path class="st0" d="M1213.8,1013.7h0.4V287.6C1214.1,128.7,1085.4,0,926.6,0h0C767.7,0,639,128.7,639,287.6v726.1h26.1  c-50.5,7-80.9,16-80.9,25.8c0,22.4,159,40.5,355.2,40.5s355.2-18.2,355.2-40.5C1294.6,1029.7,1264.3,1020.7,1213.8,1013.7z"/>
<g>
	<path class="st1" d="M1060.7,567h-88.4h-98.6c-24.4,38.1-75.3,221.5-93.2,233s-166.3,212.3-166.3,212.3l53.7-15   c0,0,134.3-127,157.3-143.6c23-16.6,79.3-162.4,106.1-190.5c10.7-11.2,20.2-22.2,27.7-31.4c10.7-13,29.8-15.1,43.1-4.7   c49,38.4,154.8,122.5,169.6,129.5c0,0-28,122-21.7,255.8h38.4c0,0,48-213.6,48-263.5C1236.5,706.7,1060.7,567,1060.7,567z"/>
	<path class="st2" d="M1185,1004.4c0,0,15.2,12.4,29.2,9.3c13.9-3.1,51.4,5.4,57.5,24.1v12.4h-121.9v-48.9c0,0,6.1,5.4,17.4,6.2   S1185,1004.4,1185,1004.4z"/>
	<path class="st2" d="M668,997.4c0,0,5.9,16.3,18.8,22.4s33.8-8,41.5,30.4h-11.3h-38.5c-7.6,0-14.9-2.3-21.1-6.7l-45.3-31.7   l30.1-38.6c0,0,1.5,8,9.9,15.6S668,997.4,668,997.4z"/>
	<g>
		<g>
			<g>
				<path class="st3" d="M871.1,251.5l15.7,48.9c0,0-91.5,46.3-105.8,60.1c-14.3,13.8-53.2,134.2-53.2,134.2l-26.3-1.9      c0,0,23.4-120,44.2-152.6C766.5,307.5,871.1,251.5,871.1,251.5z"/>
				<path class="st3" d="M692.3,502.8c0,0-11.7,16.5-9.6,28.4c2.1,11.9,17.5,27,35.7,17.8c18.2-9.2,11.8-16.2,12.3-19.5      c0.5-3.2-2.2-37.5-2.2-37.5l-27.1,0.7L692.3,502.8z"/>
			</g>
			<path class="st2" d="M1124.8,91.3L1124.8,91.3c-2.3-17.6-14.9-31.4-31.3-34.1c-32.3-5.4-82.6-10.5-91.2,7.7     c-17.1,10.4-21.2,32.6-24.8,54.9c-6.2,38.7,36.1,83.7,46.2,81.4c29.1-6.8,56.9,0.6,69.7-26.6c9.2-5.6,17.3-17.2,23.4-30.1     C1124.5,127.9,1127.1,109.3,1124.8,91.3z"/>
			<path class="st4" d="M1084.3,234.8c12.3,6.5,55.2,28.4,57.8,42.1c1.6,8.4,16,28.9,17.1,40.7c1.9,21.7-45.1,27.4-51.2,51.5     c-14.2,56.4-47.1,197.9-47.1,197.9h-187c0,0,48.3-135,46.7-192.3c-2.1-74.6,1.4-141.4,14.5-154.8     C946.6,207.9,1028.3,205.4,1084.3,234.8z"/>
			<path class="st3" d="M1009.8,172.7l-6.5,40.5c-2.3,14.2,7.4,27.6,21.6,29.9l0,0c14.2,2.3,27.6-7.4,29.9-21.6l6.5-40.5     L1009.8,172.7z"/>
			<path class="st3" d="M1092.4,179.2c-12.9,27.8-26.2,40.7-63.4,28c-37.3-12.7-35.7-44.1-37-51.8c0,0-6.9,1.8-7.1-10.4     c-0.2-12.1,5.1-34.2,14.8-25.5c5.6,5,4.2,15.4,4.2,15.4l6.1,2.2c0,0,10.5-37.3,19-46.9c8.6-9.6,34.4-2.2,44.7,11.8     s16.2,11.5,18.8,5.9C1095.3,101.7,1121.5,116.1,1092.4,179.2z"/>
		</g>
		<path class="st4" d="M958.6,214.3c0,0-23.7-5.3-45.4,4.2c-21.7,9.5-71.6,46.3-71.6,46.3l23.8,52.7c0,0,69.6-1.5,82.4-18.1    C960.4,282.8,986,221.6,958.6,214.3z"/>
	</g>
	<g>
		<path class="st5" d="M1064.7,244.5l-79.8,67.3V396c0,76.5,34.4,148.9,93.6,197.3l86,70.2l86-70.2c59.3-48.4,93.6-120.8,93.6-197.3    v-84.2l-79.8-67.3v12c0,16.5-13.4,29.9-29.9,29.9h0c-16.5,0-29.9-13.4-29.9-29.9v-32.9h-79.9v32.9c0,16.5-13.4,29.9-29.9,29.9h0    c-16.5,0-29.9-13.4-29.9-29.9V244.5z"/>
	</g>
</g>
</svg>