<svg xmlns="http://www.w3.org/2000/svg" xmlns:xlink="http://www.w3.org/1999/xlink" version="1.1" id="Layer_1" x="0px" y="0px" viewBox="0 0 705 787" style="enable-background:new 0 0 705 787;" xml:space="preserve">
<style type="text/css">
	.st0{fill:#CCE9FF;}
	.st1{fill:#0E538C;}
	.st2{fill:#2A94F4;}
	.st3{fill:#FFBE55;}
	.st4{fill:#FFFFFF;}
	.st5{fill:#FFE3CA;}
	.st6{fill:#0B4870;}
	.st7{fill:#EEA886;}
	.st8{fill:#FCD2B1;}
	.st9{clip-path:url(#SVGID_2_);fill:#2A94F4;}
	.st10{clip-path:url(#SVGID_4_);fill:#2A94F4;}
</style>
<g>
	<path class="st0" d="M102.4,557.4c37.4,21.9,69.7,56.4,104,128.3c0,0,77.3,130.4,279.3,22.5c66.8-35.7,130.3-89.1,179.8-150.8   H102.4z"/>
	<g>
		<g>
			<g>
				<g>
					<path class="st1" d="M194.1,510.7c0,0,41.7,64.5,5.7,98.3c-36,33.7-39.8-4.3-39.8-4.3s-19.1,1.1,19.2-42       C197.3,542.4,194.1,510.7,194.1,510.7z"/>
				</g>
			</g>
		</g>
	</g>
	<g>
		<g>
			<g>
				<g>
					<path class="st2" d="M106.2,397.2c0,0-42.5,50,14.3,119.1c56.8,69.2,48,105.8,48,105.8S247.7,501.8,106.2,397.2z"/>
				</g>
			</g>
		</g>
	</g>
	<g>
		<g>
			<g>
				<g>
					<path class="st3" d="M160.1,618.9c26.4,5.3,5-71.6-34.6-95c-39.7-23.4-75.1-25.7-97.4-48.3C28.2,475.6,29.9,592.6,160.1,618.9z       "/>
				</g>
			</g>
		</g>
	</g>
	<g>
		<path class="st1" d="M597.3,510.9H289.8c-3.5,0-6.4-2.9-6.4-6.4V50.6c0-3.5,2.9-6.4,6.4-6.4h307.5c3.5,0,6.4,2.9,6.4,6.4v453.9    C603.7,508.1,600.8,510.9,597.3,510.9z"/>
	</g>
	<g>
		<path class="st1" d="M597.3,510.9H289.8L603.7,50.6v453.9C603.7,508.1,600.8,510.9,597.3,510.9z"/>
	</g>
	<g>
		<g>
			<g>
				<g>
					<rect x="553" y="346.4" class="st0" width="16.6" height="126.3"/>
				</g>
			</g>
		</g>
	</g>
	<g>
		<g>
			<g>
				<g>
					<rect x="520.3" y="360.5" class="st3" width="16.6" height="112.1"/>
				</g>
			</g>
		</g>
	</g>
	<g>
		<g>
			<g>
				<g>
					<rect x="484.6" y="378.9" class="st0" width="16.6" height="93.7"/>
				</g>
			</g>
		</g>
	</g>
	<g>
		<g>
			<g>
				<g>
					<rect x="448.1" y="402.1" class="st3" width="16.6" height="70.5"/>
				</g>
			</g>
		</g>
	</g>
	<g>
		<g>
			<g>
				<polygon class="st3" points="373,411.2 369.4,409.9 400.7,322.1 468.6,304.2 493,207.8 545.3,184.7 557.1,109.8 560.8,110.4       548.8,187.4 496.2,210.6 471.7,307.3 403.7,325.3     "/>
			</g>
		</g>
	</g>
	<g>
		<g>
			<path class="st4" d="M478.1,299.3c3.6,4.4,2.9,10.8-1.4,14.3c-4.4,3.6-10.8,2.9-14.3-1.4c-3.6-4.3-2.9-10.8,1.4-14.3     C468.1,294.3,474.5,294.9,478.1,299.3z"/>
		</g>
	</g>
	<g>
		<g>
			<path class="st3" d="M477.8,315.1c-5.2,4.2-12.8,3.5-17-1.7c-4.2-5.2-3.5-12.8,1.7-17c5.2-4.2,12.8-3.5,17,1.7     C483.8,303.2,483,310.9,477.8,315.1z M464.9,299.3c-3.5,2.9-4.1,8.1-1.2,11.6c2.9,3.5,8.1,4.1,11.6,1.2c3.5-2.9,4.1-8.1,1.2-11.6     C473.7,297,468.5,296.4,464.9,299.3z"/>
		</g>
	</g>
	<g>
		<g>
			<path class="st4" d="M502.8,203.3c3.6,4.4,2.9,10.8-1.4,14.3c-4.4,3.6-10.8,2.9-14.3-1.4c-3.6-4.4-2.9-10.8,1.4-14.3     C492.8,198.3,499.2,199,502.8,203.3z"/>
		</g>
	</g>
	<g>
		<g>
			<path class="st3" d="M502.5,219.1c-5.2,4.2-12.8,3.5-17-1.7c-4.2-5.2-3.5-12.8,1.7-17c5.2-4.2,12.8-3.5,17,1.7     C508.5,207.3,507.7,214.9,502.5,219.1z M489.6,203.4c-3.5,2.9-4.1,8.1-1.2,11.6c2.9,3.5,8.1,4.1,11.6,1.2     c3.5-2.9,4.1-8.1,1.2-11.6C498.4,201,493.2,200.5,489.6,203.4z"/>
		</g>
	</g>
	<g>
		<g>
			<path class="st4" d="M554.3,179.6c3.6,4.4,2.9,10.8-1.4,14.3c-4.4,3.6-10.8,2.9-14.3-1.4c-3.6-4.4-2.9-10.8,1.4-14.3     C544.3,174.6,550.8,175.2,554.3,179.6z"/>
		</g>
	</g>
	<g>
		<g>
			<path class="st3" d="M554.1,195.4c-5.2,4.2-12.8,3.5-17-1.7c-4.2-5.2-3.5-12.8,1.7-17c5.2-4.2,12.8-3.5,17,1.7     C560,183.5,559.3,191.2,554.1,195.4z M541.2,179.6c-3.5,2.9-4.1,8.1-1.2,11.6c2.9,3.5,8.1,4.1,11.6,1.2c3.5-2.9,4.1-8.1,1.2-11.6     C550,177.2,544.7,176.7,541.2,179.6z"/>
		</g>
	</g>
	<g>
		<g>
			<path class="st4" d="M410.5,318.1c3.6,4.4,2.9,10.8-1.4,14.3c-4.4,3.6-10.8,2.9-14.3-1.4s-2.9-10.8,1.4-14.3     C400.5,313.1,406.9,313.8,410.5,318.1z"/>
		</g>
	</g>
	<g>
		<g>
			<path class="st3" d="M410.2,333.9c-5.2,4.2-12.8,3.5-17-1.7c-4.2-5.2-3.5-12.8,1.7-17c5.2-4.2,12.8-3.5,17,1.7     C416.2,322.1,415.4,329.7,410.2,333.9z M397.3,318.2c-3.5,2.9-4.1,8.1-1.2,11.6c2.9,3.5,8.1,4.1,11.6,1.2     c3.5-2.9,4.1-8.1,1.2-11.6C406.1,315.8,400.9,315.3,397.3,318.2z"/>
		</g>
	</g>
	<g>
		<g>
			<g>
				<g>
					<path class="st0" d="M418,198.6h-99.2c-0.8,0-1.4-0.6-1.4-1.4v-18.4c0-0.8,0.6-1.4,1.4-1.4H418c0.8,0,1.4,0.6,1.4,1.4v18.4       C419.4,197.9,418.8,198.6,418,198.6z"/>
				</g>
			</g>
		</g>
	</g>
	<g>
		<g>
			<g>
				<g>
					<path class="st2" d="M418,161.6h-99.2c-0.8,0-1.4-0.6-1.4-1.4v-18.4c0-0.8,0.6-1.4,1.4-1.4H418c0.8,0,1.4,0.6,1.4,1.4v18.4       C419.4,161,418.8,161.6,418,161.6z"/>
				</g>
			</g>
		</g>
	</g>
	<g>
		<path class="st3" d="M299,214.7c0,0-3,29.2,2.4,36.5c0,0-14.3-3.1-17.6-8C280.6,238.2,299,214.7,299,214.7z"/>
	</g>
	<g>
		<g>
			<path class="st5" d="M388.1,307.8c0,0,5.2-3.5,6-4c0.8-0.5,3.5-0.4,6.5-0.1c3,0.4,7,2.2,7.2,2.7c0.2,0.5,0.7,0.8,0.5,2.2     c-0.2,1.3-1.1,2.4-1.1,2.4s0.5,1.8-0.7,2.9c0,0,0.4,1.7-1.2,2.8c0,0,0.4,1.7-0.8,2.4c0,0-2.7-0.1-3.7,0.2     c-1,0.3-6.5-0.3-11.7-1.6C389.1,317.6,383.3,316.4,388.1,307.8z"/>
		</g>
	</g>
	<g>
		<g>
			<path class="st5" d="M385,308.3c0,0,3.3-0.4,5.3-1.3c2-0.9-0.4,10.1-0.4,10.1s-4.9-3.4-8.1-3.5C378.7,313.6,385,308.3,385,308.3z     "/>
		</g>
	</g>
	<g>
		<g>
			<path class="st6" d="M250.2,602.9c0,0,10.2,14.9,13.7,18c0,0,7.1,3.7,7.3,6.6c0.4,5.6,0.7,8.8-8.6,9.1c-9.3,0.3-15.2,0-16.9-5.7     c-1.7-5.7-4.7-10.1-4.7-10.1l-0.7,14.7h-2.1c0,0-0.9-14.8-1.1-16.9c-0.1-2.1-1.5-10.2,2.9-13.8     C244.5,601.4,250.2,602.9,250.2,602.9z"/>
		</g>
	</g>
	<g>
		<g>
			<path class="st5" d="M265.2,621.7c0,0-5,1.4-11.1-0.1c-6-1.5-11.8-15.9-13.5-17.1l-1.6-5.8h11.7c0,0,0.1,4.3,2,8     C254.7,610.3,265.2,621.7,265.2,621.7z"/>
		</g>
	</g>
	<g>
		<g>
			<path class="st6" d="M316.2,597.3c0,0,1.5,3.6,4.4,7.4c2.1,2.8,8.7,14.1,11.6,14.9c2.9,0.8,11.8,2.4,12.6,7.4     c0.8,5,1.2,8.5-7.6,8.9c-8.8,0.4-14.6,0.9-18.8-5.3c-4.2-6.2-10.9-10.7-10.9-10.7v16.1H304c0,0-1.6-16.8-2.5-18     c-0.9-1.2-3.3-14.1,4.9-20.8C314.6,590.6,316.2,597.3,316.2,597.3z"/>
		</g>
	</g>
	<g>
		<g>
			<path class="st5" d="M332.2,619.6c0,0-7.9,2-10.9,0c-3-2-13.3-19.4-16.7-20.4c0,0,3.3-6.7,11.6-1.8     C316.2,597.3,329.9,616.7,332.2,619.6z"/>
		</g>
	</g>
	<g>
		<g>
			<path class="st3" d="M245.7,355.8c0,0-11.1,14.5-14.1,31.6c-3,17.2,1.8,74.8,1.7,83.2c-0.1,8.5-7.5,34.9-5.9,50.9     c1.6,16,9.8,82.7,9.8,82.7l19.3-0.4c0,0-3.9-72-2.9-78.7c1-6.7,4.1-35.2,4.5-38c0.4-2.8,22-75.8,22-88.2S272.5,335.6,245.7,355.8     z"/>
		</g>
	</g>
	<g>
		<g>
			<path class="st3" d="M301.6,361.5c0,0,18.3,69.8,20.4,79.4c2.2,9.7,6.5,22.3,6.3,24.1c-0.2,1.8-2.3,31.6-2.3,31.6l-5.2,101.4     h-19.3c0,0-6.2-64.5-7.2-77.5c-1-13,7.1-33.1,5.1-38.7c-2-5.5-31.8-69.2-31.8-69.2S245.2,341.2,301.6,361.5z"/>
		</g>
	</g>
	<g>
		<g>
			<path class="st2" d="M295.9,257c0,0,7.3,0.7,12.8,6.6c5.5,5.9,10.7,15.4,12.2,18.5c1.4,3.2,21.7,32.4,22.8,33.1     c1.1,0.7,9.9-1.7,17-2.3c11.6-1,28.9-6.9,28.9-6.9l2.6,13.1c0,0-42.6,13.8-52.5,11.3c-12-3-39.7-38.5-39.7-38.5     S279.3,267.8,295.9,257z"/>
		</g>
	</g>
	<g>
		<g>
			<path class="st2" d="M283.2,251.9c0,0,9.5,4.5,12.8,5.1c3.3,0.7,16,17.2,18.3,23.3c2.2,6,0,15.1-4.6,25.8     c-4.6,10.7-0.3,14.2-2.4,24.9c-2.1,10.6-2.1,39.7-1.7,45.6c0.4,5.9-60.9,17.1-73.1,6.3c0,0,8.3-27.3,18.1-37.5     c2.1-2.2,1.9-17,0.4-20.7c-1.4-3.7-17.8-31.2-17.8-31.2s-1.2-27.9,5.9-33.4c6.2-4.8,23-6.5,26.1-7.6     C268.2,251.5,277,251,283.2,251.9z"/>
		</g>
	</g>
	<g>
		<g>
			<path class="st1" d="M286.2,273l5.8-6.7l-5-17.7C286.9,248.5,285.3,258.4,286.2,273z"/>
		</g>
	</g>
	<g>
		<g>
			<path class="st7" d="M250.1,257c0,0-11.9-3.4-18.8,9.7c-6.8,13.2-5.1,20.2-6.7,26.2c-1.6,5.9-7.9,45.5-8.3,47.2     c-0.4,1.7-6.4,21.8-5.7,28c0.8,6.2,6.4,53,6.2,54.6c-0.3,1.6,10.9-1.5,10.9-1.5s-0.5-47.8-0.1-51.8c0.4-3.9,0.8-24.7,3.7-30     c3-5.3,10.3-37.9,11.8-41.2C244.9,294.9,260.2,261.3,250.1,257z"/>
		</g>
	</g>
	<g>
		<g>
			<path class="st5" d="M287.7,241c0,0-1.9,17.4-1.5,23c0,0-9.8,9.9-21-11.5c0,0,4.7-8.8,1.2-20.8C262.8,219.7,287.7,241,287.7,241z     "/>
		</g>
	</g>
	<g>
		<g>
			<polygon class="st5" points="286.2,264 286.2,273 275.6,263.6    "/>
		</g>
	</g>
	<g>
		<g>
			<polygon class="st1" points="286.2,273 281.5,267.2 265.6,251.4 259.7,254.1    "/>
		</g>
	</g>
	<g>
		<g>
			<polygon class="st1" points="291.9,266.3 299.2,268.3 286.9,248.5    "/>
		</g>
	</g>
	<g>
		<g>
			<polygon class="st1" points="281.5,267.2 274.9,277.8 259.5,253.7 266.1,250.3    "/>
		</g>
	</g>
	<g>
		<path class="st1" d="M315.2,310c0,0,2.4-15.8-0.1-25.3c0,0-1.4,7.7-4.8,19.8L315.2,310z"/>
	</g>
	<g>
		<path class="st1" d="M241.7,307.9c0,0,6.5-21.7,6.9-22.8c0,0-0.4,19.9-3,29.8C245.6,314.8,243.2,310.6,241.7,307.9z"/>
	</g>
	<g>
		<path class="st5" d="M279.7,181.9c0,0,17.4-0.5,20.6,20.2c3.2,20.6-4.2,38.8-7.1,41.7c-2.9,2.9-20.3,0.7-24.4-10    c-4.1-10.7-10.1-18.5-9.2-27.8C260.5,196.7,258.3,181.5,279.7,181.9z"/>
	</g>
	<g>
		<path class="st3" d="M301.1,209.9c0,0,4.7-25.7-18.5-30.4c-23.1-4.6-31.3,11.2-33.5,20.6c-2.2,9.4,0.4,36,0.4,36    s15.4,13.5,24.6,17c0,0-7.7-28.3-4.8-48.5c0,0,18.8,3,31.3-0.1C300.7,204.5,301,208.8,301.1,209.9z"/>
	</g>
	<g>
		<path class="st8" d="M287.3,244.9c0,0-6.1,0-14.3-5.4c0,0,5.8,7.3,13.9,9.9C286.9,249.4,287.3,245.8,287.3,244.9z"/>
	</g>
	<g>
		
			<rect x="189.2" y="382.9" transform="matrix(0.9869 -0.1612 0.1612 0.9869 -62.8612 41.3168)" class="st6" width="68.2" height="50.5"/>
	</g>
	<g>
		<g>
			<g>
				<g>
					<g>
						<g>
							<path class="st5" d="M214.5,437.7c0,0-1.1-1.7-1.2-2.7c0,0,0-1.8-0.1-3.1c0-0.4-0.1-0.8-0.1-1c-0.2-0.9-0.9-2.9-0.8-5.3         c0.1-2.4,3.4-12.5,3.4-12.5l6,0.2l5.6-0.6c0,0,6.8,12.9,6.9,15.2c0,0.2,0,0.4,0,0.6c-0.1,1.9-0.9,3.3-1.1,4.3         c-0.1,0.4-0.9,3.9-1.9,4.4c-1.4,0.7-2.6,0.6-3.5,0.1c0,0-2.7,1.2-4.7,0.7c0,0-2.5,1.2-4.7-0.1         C218.4,437.9,215.7,438.9,214.5,437.7z"/>
						</g>
					</g>
				</g>
			</g>
		</g>
	</g>
	<g>
		<g>
			<path class="st2" d="M250.1,257c0,0-11.9-3.4-18.8,9.7c-6.8,13.2-6.8,18.8-7.7,25.2c-0.9,6.1-9.2,42.1-9.6,43.8     c-0.4,1.7-3.1,24.2-3.3,32.4c-0.1,6.2,1.3,47.1,1.1,48.7c-0.3,1.6,18.9-2.8,18.9-2.8s-2.1-37.7-1.7-41.6     c0.4-3.9,1.2-23.6,3.2-29.4c2.3-6.8,11.2-41,12.8-44.4C246.4,295.3,260.2,261.3,250.1,257z"/>
		</g>
	</g>
	<g>
		<g>
			<g>
				<g>
					<path class="st3" d="M447.3,254.3l4.5,22.8l4.5,22.8c0,0-25.9-8.1-55.3-2.3l-2-10.1l-2-10.1       C426.5,271.6,447.3,254.3,447.3,254.3z"/>
				</g>
			</g>
		</g>
		<g>
			<g>
				<g>
					<g>
						<defs>
							<path id="SVGID_1_" d="M405.2,322.5l2.6-1.2L396,296.4l-6.6,3.1l10,21.1C400.5,323,402.8,323.6,405.2,322.5z"/>
						</defs>
						<use xlink:href="#SVGID_1_" style="overflow:visible;fill:#2A94F4;"/>
						<clipPath id="SVGID_2_">
							<use xlink:href="#SVGID_1_" style="overflow:visible;"/>
						</clipPath>
						<path class="st9" d="M389.4,296.4v27.3V296.4z"/>
						<rect x="389.4" y="296.4" class="st9" width="0.3" height="27.3"/>
						<rect x="389.7" y="296.4" class="st9" width="0.3" height="27.3"/>
						<rect x="390" y="296.4" class="st9" width="0.3" height="27.3"/>
						<rect x="390.3" y="296.4" class="st9" width="0.3" height="27.3"/>
						<rect x="390.6" y="296.4" class="st9" width="0.3" height="27.3"/>
						<rect x="390.9" y="296.4" class="st9" width="0.3" height="27.3"/>
						<rect x="391.1" y="296.4" class="st9" width="0.3" height="27.3"/>
						<rect x="391.4" y="296.4" class="st9" width="0.3" height="27.3"/>
						<rect x="391.7" y="296.4" class="st9" width="0.3" height="27.3"/>
						<rect x="392" y="296.4" class="st9" width="0.3" height="27.3"/>
						<rect x="392.3" y="296.4" class="st9" width="0.3" height="27.3"/>
						<rect x="392.5" y="296.4" class="st9" width="0.3" height="27.3"/>
						<rect x="392.8" y="296.4" class="st9" width="0.3" height="27.3"/>
						<rect x="393.1" y="296.4" class="st9" width="0.3" height="27.3"/>
						<rect x="393.4" y="296.4" class="st9" width="0.3" height="27.3"/>
						<rect x="393.7" y="296.4" class="st9" width="0.3" height="27.3"/>
						<rect x="394" y="296.4" class="st9" width="0.3" height="27.3"/>
						<rect x="394.2" y="296.4" class="st9" width="0.3" height="27.3"/>
						<rect x="394.5" y="296.4" class="st9" width="0.3" height="27.3"/>
						<rect x="394.8" y="296.4" class="st9" width="0.3" height="27.3"/>
						<rect x="395.1" y="296.4" class="st9" width="0.3" height="27.3"/>
						<rect x="395.4" y="296.4" class="st9" width="0.3" height="27.3"/>
						<rect x="395.6" y="296.4" class="st9" width="0.3" height="27.3"/>
						<rect x="395.9" y="296.4" class="st9" width="0.3" height="27.3"/>
						<rect x="396.2" y="296.4" class="st9" width="0.3" height="27.3"/>
						<rect x="396.5" y="296.4" class="st9" width="0.3" height="27.3"/>
						<rect x="396.8" y="296.4" class="st9" width="0.3" height="27.3"/>
						<rect x="397.1" y="296.4" class="st9" width="0.3" height="27.3"/>
						<rect x="397.3" y="296.4" class="st9" width="0.3" height="27.3"/>
						<rect x="397.6" y="296.4" class="st9" width="0.3" height="27.3"/>
						<rect x="397.9" y="296.4" class="st9" width="0.3" height="27.3"/>
						<rect x="398.2" y="296.4" class="st9" width="0.3" height="27.3"/>
						<rect x="398.5" y="296.4" class="st9" width="0.3" height="27.3"/>
						<rect x="398.8" y="296.4" class="st9" width="0.3" height="27.3"/>
						<rect x="399" y="296.4" class="st9" width="0.3" height="27.3"/>
						<rect x="399.3" y="296.4" class="st9" width="0.3" height="27.3"/>
						<rect x="399.6" y="296.4" class="st9" width="0.3" height="27.3"/>
						<rect x="399.9" y="296.4" class="st9" width="0.3" height="27.3"/>
						<rect x="400.2" y="296.4" class="st9" width="0.3" height="27.3"/>
						<rect x="400.4" y="296.4" class="st9" width="0.3" height="27.3"/>
						<rect x="400.7" y="296.4" class="st9" width="0.3" height="27.3"/>
						<rect x="401" y="296.4" class="st9" width="0.3" height="27.3"/>
						<rect x="401.3" y="296.4" class="st9" width="0.3" height="27.3"/>
						<rect x="401.6" y="296.4" class="st9" width="0.3" height="27.3"/>
						<rect x="401.9" y="296.4" class="st9" width="0.3" height="27.3"/>
						<rect x="402.1" y="296.4" class="st9" width="0.3" height="27.3"/>
						<rect x="402.4" y="296.4" class="st9" width="0.3" height="27.3"/>
						<rect x="402.7" y="296.4" class="st9" width="0.3" height="27.3"/>
						<rect x="403" y="296.4" class="st9" width="0.3" height="27.3"/>
						<rect x="403.3" y="296.4" class="st9" width="0.3" height="27.3"/>
						<rect x="403.5" y="296.4" class="st9" width="0.3" height="27.3"/>
						<rect x="403.8" y="296.4" class="st9" width="0.3" height="27.3"/>
						<rect x="404.1" y="296.4" class="st9" width="0.3" height="27.3"/>
						<rect x="404.4" y="296.4" class="st9" width="0.3" height="27.3"/>
						<rect x="404.7" y="296.4" class="st9" width="0.3" height="27.3"/>
						<rect x="405" y="296.4" class="st9" width="0.3" height="27.3"/>
						<rect x="405.2" y="296.4" class="st9" width="0.3" height="27.3"/>
						<rect x="405.5" y="296.4" class="st9" width="0.3" height="27.3"/>
						<rect x="405.8" y="296.4" class="st9" width="0.3" height="27.3"/>
						<rect x="406.1" y="296.4" class="st9" width="0.3" height="27.3"/>
						<rect x="406.4" y="296.4" class="st9" width="0.3" height="27.3"/>
						<rect x="406.6" y="296.4" class="st9" width="0.3" height="27.3"/>
						<rect x="406.9" y="296.4" class="st9" width="0.3" height="27.3"/>
						<rect x="407.2" y="296.4" class="st9" width="0.3" height="27.3"/>
						<rect x="407.5" y="296.4" class="st9" width="0.3" height="27.3"/>
						<path class="st9" d="M407.8,323.6v-27.3V323.6z"/>
					</g>
				</g>
			</g>
		</g>
		<g>
			<g>
				<g>
					<g>
						<defs>
							<polygon id="SVGID_3_" points="380.8,301.8 406.7,297 402.5,275.7 376.8,281.6        "/>
						</defs>
						<use xlink:href="#SVGID_3_" style="overflow:visible;fill:#2A94F4;"/>
						<clipPath id="SVGID_4_">
							<use xlink:href="#SVGID_3_" style="overflow:visible;"/>
						</clipPath>
						<path class="st10" d="M376.8,275.7v26.1V275.7z"/>
						<rect x="376.8" y="275.7" class="st10" width="0.5" height="26.1"/>
						<rect x="377.2" y="275.7" class="st10" width="0.5" height="26.1"/>
						<rect x="377.7" y="275.7" class="st10" width="0.5" height="26.1"/>
						<rect x="378.1" y="275.7" class="st10" width="0.5" height="26.1"/>
						<rect x="378.6" y="275.7" class="st10" width="0.5" height="26.1"/>
						<rect x="379.1" y="275.7" class="st10" width="0.5" height="26.1"/>
						<rect x="379.5" y="275.7" class="st10" width="0.5" height="26.1"/>
						<rect x="380" y="275.7" class="st10" width="0.5" height="26.1"/>
						<rect x="380.4" y="275.7" class="st10" width="0.5" height="26.1"/>
						<rect x="380.9" y="275.7" class="st10" width="0.5" height="26.1"/>
						<rect x="381.4" y="275.7" class="st10" width="0.5" height="26.1"/>
						<rect x="381.8" y="275.7" class="st10" width="0.5" height="26.1"/>
						<rect x="382.3" y="275.7" class="st10" width="0.5" height="26.1"/>
						<rect x="382.7" y="275.7" class="st10" width="0.5" height="26.1"/>
						<rect x="383.2" y="275.7" class="st10" width="0.5" height="26.1"/>
						<rect x="383.7" y="275.7" class="st10" width="0.5" height="26.1"/>
						<rect x="384.1" y="275.7" class="st10" width="0.5" height="26.1"/>
						<rect x="384.6" y="275.7" class="st10" width="0.5" height="26.1"/>
						<rect x="385" y="275.7" class="st10" width="0.5" height="26.1"/>
						<rect x="385.5" y="275.7" class="st10" width="0.5" height="26.1"/>
						<rect x="386" y="275.7" class="st10" width="0.5" height="26.1"/>
						<rect x="386.4" y="275.7" class="st10" width="0.5" height="26.1"/>
						<rect x="386.9" y="275.7" class="st10" width="0.5" height="26.1"/>
						<rect x="387.3" y="275.7" class="st10" width="0.5" height="26.1"/>
						<rect x="387.8" y="275.7" class="st10" width="0.5" height="26.1"/>
						<rect x="388.3" y="275.7" class="st10" width="0.5" height="26.1"/>
						<rect x="388.7" y="275.7" class="st10" width="0.5" height="26.1"/>
						<rect x="389.2" y="275.7" class="st10" width="0.5" height="26.1"/>
						<rect x="389.6" y="275.7" class="st10" width="0.5" height="26.1"/>
						<rect x="390.1" y="275.7" class="st10" width="0.5" height="26.1"/>
						<rect x="390.6" y="275.7" class="st10" width="0.5" height="26.1"/>
						<rect x="391" y="275.7" class="st10" width="0.5" height="26.1"/>
						<rect x="391.5" y="275.7" class="st10" width="0.5" height="26.1"/>
						<rect x="392" y="275.7" class="st10" width="0.5" height="26.1"/>
						<rect x="392.4" y="275.7" class="st10" width="0.5" height="26.1"/>
						<rect x="392.9" y="275.7" class="st10" width="0.5" height="26.1"/>
						<rect x="393.3" y="275.7" class="st10" width="0.5" height="26.1"/>
						<rect x="393.8" y="275.7" class="st10" width="0.5" height="26.1"/>
						<rect x="394.3" y="275.7" class="st10" width="0.5" height="26.1"/>
						<rect x="394.7" y="275.7" class="st10" width="0.5" height="26.1"/>
						<rect x="395.2" y="275.7" class="st10" width="0.5" height="26.1"/>
						<rect x="395.6" y="275.7" class="st10" width="0.5" height="26.1"/>
						<rect x="396.1" y="275.7" class="st10" width="0.5" height="26.1"/>
						<rect x="396.6" y="275.7" class="st10" width="0.5" height="26.1"/>
						<rect x="397" y="275.7" class="st10" width="0.5" height="26.1"/>
						<rect x="397.5" y="275.7" class="st10" width="0.5" height="26.1"/>
						<rect x="397.9" y="275.7" class="st10" width="0.5" height="26.1"/>
						<rect x="398.4" y="275.7" class="st10" width="0.5" height="26.1"/>
						<rect x="398.9" y="275.7" class="st10" width="0.5" height="26.1"/>
						<rect x="399.3" y="275.7" class="st10" width="0.5" height="26.1"/>
						<rect x="399.8" y="275.7" class="st10" width="0.5" height="26.1"/>
						<rect x="400.2" y="275.7" class="st10" width="0.5" height="26.1"/>
						<rect x="400.7" y="275.7" class="st10" width="0.5" height="26.1"/>
						<rect x="401.2" y="275.7" class="st10" width="0.5" height="26.1"/>
						<rect x="401.6" y="275.7" class="st10" width="0.5" height="26.1"/>
						<rect x="402.1" y="275.7" class="st10" width="0.5" height="26.1"/>
						<rect x="402.5" y="275.7" class="st10" width="0.5" height="26.1"/>
						<rect x="403" y="275.7" class="st10" width="0.5" height="26.1"/>
						<rect x="403.5" y="275.7" class="st10" width="0.5" height="26.1"/>
						<rect x="403.9" y="275.7" class="st10" width="0.5" height="26.1"/>
						<rect x="404.4" y="275.7" class="st10" width="0.5" height="26.1"/>
						<rect x="404.8" y="275.7" class="st10" width="0.5" height="26.1"/>
						<rect x="405.3" y="275.7" class="st10" width="0.5" height="26.1"/>
						<rect x="405.8" y="275.7" class="st10" width="0.5" height="26.1"/>
						<rect x="406.2" y="275.7" class="st10" width="0.5" height="26.1"/>
						<path class="st10" d="M406.7,301.8v-26.1V301.8z"/>
					</g>
				</g>
			</g>
		</g>
	</g>
	<g>
		<g>
			<path class="st5" d="M407,306.3c0,0-7.7-0.7-8,0.5c-0.3,1.2,0.4,1.8,0.4,1.8l-3.3,1.1c0,0-1.8,2,0.9,3.3c0,0-1.8,1.7,0.9,2.7     c0,0-0.7,1.7,0.5,2.3c1.2,0.7,6.2,0.9,6.2,0.9s1.1-0.4,0.8-2.4c0,0,1.6-1,1.2-2.8c0,0,1.1-1,0.7-2.9c0,0,2.4-2.4,0.6-4.6     C407.8,306.4,407.3,306.3,407,306.3z"/>
		</g>
	</g>
</g>
</svg>