<svg xmlns="http://www.w3.org/2000/svg" xmlns:xlink="http://www.w3.org/1999/xlink" version="1.1" x="0px" y="0px" width="500px" height="421px" viewBox="0 0 500 421" enable-background="new 0 0 500 421" xml:space="preserve">
<g id="BACKGROUND">
</g>
<g id="OBJECTS">
</g>
<g id="DESIGNED_BY_FREEPIK">
	<g>
		<path fill="#CCE9FF" d="M270.616,115.125c3.83,1.662,7.42,3.504,10.674,5.467c11.377,6.858,20.529,16.843,31.709,23.722    c10.557,6.495,23.449,8.074,35.529,9.159c21.057,1.893,64.975,20.043,57.045,53.683c-2.885,12.242-13.059,20.557-18.268,31.643    c-5.541,11.793-4.959,26.501-13.781,36.725c-3.881,4.495-9.238,7.464-14.738,9.713c-36.604,14.962-77.709,14.267-116.521,12.617    c-30.635-1.302-79.838,5.578-106.746-11.222c-13.359-8.341-6.412-31.143-15.656-43.389c-7.768-10.291-18.34-17.05-23.533-29.932    c-8.838-21.919,3.76-50.443,25.816-58.225c13.783-4.862,28.385-7.09,42.01-12.43c14.076-5.519,19.5-13.785,30.234-23.568    C213.796,101.403,246.825,104.797,270.616,115.125z"/>
		<g>
			<g>
				<path fill="#D3D3D3" d="M304.517,289.527H198.265v-66.449c0-1.256,0.999-2.273,2.231-2.273h101.789      c1.232,0,2.231,1.018,2.231,2.273V289.527z"/>
				<rect x="202.153" y="225.619" fill="#F2F2F2" width="98.476" height="58.598"/>
				<path fill="#D3D3D3" d="M181.366,309.308c-0.977,1.277,0.89,5.092,3.816,5.092c44.896,0,89.792,0,134.688,0      c2.925,0,4.768-3.814,3.647-5.092H181.366z"/>
				<path fill="#F2F2F2" d="M323.142,308.609c1.12,1.275-0.347,2.311-3.271,2.311c-44.896,0-89.791,0-134.688,0      c-2.927,0-4.507-1.035-3.53-2.311c4.597-6.011,9.193-12.02,13.789-18.029c0.977-1.276,3.532-2.311,5.71-2.311      c33.4,0,66.803,0,100.204,0c2.175,0,4.85,1.034,5.97,2.311C312.596,296.592,317.87,302.599,323.142,308.609z"/>
				<g opacity="0.5">
					<path fill="#D3D3D3" d="M211.565,294.351c-1.82,0-2.729,0-4.549,0c0.644-0.953,0.966-1.431,1.608-2.384       c1.748,0,2.621,0,4.369,0C212.423,292.92,212.137,293.396,211.565,294.351z"/>
					<path fill="#D3D3D3" d="M217.461,294.351c-1.818,0-2.729,0-4.549,0c0.551-0.953,0.826-1.431,1.376-2.384       c1.748,0,2.621,0,4.368,0C218.179,292.92,217.939,293.397,217.461,294.351z"/>
					<path fill="#D3D3D3" d="M215.577,291.51c-2.656,0-3.984,0-6.641,0c0.239-0.355,0.359-0.533,0.6-0.89c2.617,0,3.922,0,6.54,0       C215.876,290.977,215.776,291.154,215.577,291.51z"/>
					<path fill="#D3D3D3" d="M223.36,291.511c-2.657,0-3.986-0.001-6.643-0.001c0.191-0.355,0.287-0.533,0.48-0.89       c2.615,0,3.924,0,6.54,0C223.588,290.977,223.511,291.154,223.36,291.511z"/>
					<path fill="#D3D3D3" d="M231.145,291.51c-2.657,0-3.986,0-6.644,0c0.144-0.355,0.216-0.533,0.359-0.89c2.616,0,3.926,0,6.543,0       C231.3,290.977,231.248,291.154,231.145,291.51z"/>
					<path fill="#D3D3D3" d="M238.928,291.51c-2.657,0-3.985,0-6.642,0c0.096-0.355,0.143-0.533,0.238-0.89c2.617,0,3.927,0,6.541,0       C239.012,290.977,238.983,291.154,238.928,291.51z"/>
					<path fill="#D3D3D3" d="M246.712,291.51c-2.657,0-3.985,0-6.644,0c0.049-0.355,0.072-0.533,0.121-0.89c2.616,0,3.924,0,6.539,0       C246.722,290.977,246.719,291.154,246.712,291.51z"/>
					<path fill="#D3D3D3" d="M254.495,291.51c-2.656,0-3.983,0-6.642,0c0-0.355,0-0.533,0-0.89c2.616,0,3.923,0,6.539,0       C254.435,290.977,254.453,291.154,254.495,291.51z"/>
					<path fill="#D3D3D3" d="M262.28,291.51c-2.656,0-3.986,0-6.643,0c-0.048-0.355-0.072-0.533-0.121-0.89c2.617,0,3.925,0,6.542,0       C262.146,290.977,262.19,291.154,262.28,291.51z"/>
					<path fill="#D3D3D3" d="M270.064,291.51c-2.658,0-3.985,0-6.644,0c-0.096-0.355-0.145-0.533-0.24-0.89c2.616,0,3.924,0,6.54,0       C269.859,290.977,269.928,291.154,270.064,291.51z"/>
					<path fill="#D3D3D3" d="M277.849,291.51c-2.658,0-3.985,0-6.643,0c-0.146-0.355-0.218-0.533-0.363-0.89       c2.617,0,3.926,0,6.543,0C277.571,290.977,277.663,291.154,277.849,291.51z"/>
					<path fill="#D3D3D3" d="M285.631,291.51c-2.658,0-3.985,0-6.642,0c-0.192-0.355-0.289-0.533-0.48-0.89c2.615,0,3.922,0,6.538,0       C285.28,290.977,285.396,291.154,285.631,291.51z"/>
					<path fill="#D3D3D3" d="M294.316,291.51c-3.017,0-4.525,0-7.543,0c-0.24-0.355-0.361-0.533-0.602-0.89c2.971,0,4.455,0,7.428,0       C293.886,290.977,294.03,291.154,294.316,291.51z"/>
					<path fill="#D3D3D3" d="M223.354,294.351c-1.819,0-2.729,0-4.548,0c0.457-0.953,0.687-1.43,1.143-2.383       c1.748,0,2.621-0.001,4.368-0.001C223.933,292.921,223.74,293.396,223.354,294.351z"/>
					<path fill="#D3D3D3" d="M229.249,294.351c-1.818,0-2.729,0-4.549,0c0.365-0.953,0.547-1.431,0.912-2.384       c1.747,0,2.621,0.001,4.368,0.001C229.688,292.921,229.542,293.397,229.249,294.351z"/>
					<path fill="#D3D3D3" d="M235.145,294.351c-1.819,0-2.729,0-4.548,0c0.271-0.954,0.408-1.43,0.679-2.384c1.747,0,2.62,0,4.368,0       C235.444,292.92,235.343,293.397,235.145,294.351z"/>
					<path fill="#D3D3D3" d="M241.039,294.351c-1.82,0-2.729,0-4.548,0c0.178-0.953,0.266-1.432,0.445-2.384       c1.747,0,2.621,0,4.369,0C241.198,292.92,241.144,293.397,241.039,294.351z"/>
					<path fill="#D3D3D3" d="M246.931,294.351c-1.817,0-2.727,0-4.544,0c0.085-0.953,0.128-1.432,0.213-2.384       c1.747,0,2.62,0,4.367,0C246.953,292.92,246.946,293.397,246.931,294.351z"/>
					<path fill="#D3D3D3" d="M252.828,294.351c-1.819,0-2.729,0-4.548,0c-0.007-0.953-0.01-1.431-0.018-2.384       c1.746,0,2.621,0,4.367,0C252.71,292.92,252.749,293.397,252.828,294.351z"/>
					<path fill="#D3D3D3" d="M258.722,294.351c-1.818,0-2.728,0-4.546,0c-0.1-0.953-0.149-1.431-0.249-2.384       c1.746,0,2.619,0,4.365,0C258.465,292.92,258.55,293.397,258.722,294.351z"/>
					<path fill="#D3D3D3" d="M264.615,294.351c-1.819,0-2.728,0-4.547,0c-0.192-0.953-0.289-1.431-0.482-2.384       c1.747,0,2.62,0,4.368,0C264.218,292.92,264.351,293.397,264.615,294.351z"/>
					<path fill="#D3D3D3" d="M209.66,297.528c-1.915,0-2.871,0-4.785,0c0.643-0.953,0.963-1.43,1.605-2.384c1.845,0,2.766,0,4.608,0       C210.518,296.099,210.231,296.575,209.66,297.528z"/>
					<path fill="#D3D3D3" d="M215.866,297.528c-1.916,0-2.871,0-4.787,0c0.551-0.953,0.826-1.43,1.376-2.384       c1.843,0,2.765,0,4.608,0C216.584,296.098,216.344,296.575,215.866,297.528z"/>
					<path fill="#D3D3D3" d="M222.07,297.528c-1.916,0-2.872,0-4.787,0c0.457-0.953,0.685-1.43,1.143-2.384c1.843,0,2.764,0,4.606,0       C222.647,296.099,222.454,296.575,222.07,297.528z"/>
					<path fill="#D3D3D3" d="M228.274,297.528c-1.915,0-2.873,0-4.788,0c0.364-0.953,0.547-1.43,0.91-2.384c1.845,0,2.766,0,4.609,0       C228.713,296.099,228.566,296.575,228.274,297.528z"/>
					<path fill="#D3D3D3" d="M234.479,297.528c-1.914,0-2.873,0-4.786,0c0.271-0.953,0.406-1.43,0.678-2.382       c1.844,0,2.764-0.002,4.607-0.002C234.777,296.099,234.679,296.575,234.479,297.528z"/>
					<path fill="#D3D3D3" d="M240.682,297.528c-1.915,0-2.871,0-4.786,0c0.179-0.953,0.268-1.43,0.446-2.384       c1.843,0,2.764,0,4.606,0C240.843,296.098,240.788,296.575,240.682,297.528z"/>
					<path fill="#D3D3D3" d="M246.885,297.528c-1.914,0-2.87,0-4.784,0c0.085-0.953,0.129-1.43,0.214-2.384c1.842,0,2.763,0,4.604,0       C246.905,296.099,246.898,296.575,246.885,297.528z"/>
					<path fill="#D3D3D3" d="M253.091,297.528c-1.914,0-2.871,0-4.786,0c-0.007-0.953-0.01-1.43-0.018-2.384       c1.843,0,2.764,0,4.606,0C252.972,296.099,253.013,296.575,253.091,297.528z"/>
					<path fill="#D3D3D3" d="M259.294,297.528c-1.913,0-2.869,0-4.784,0c-0.101-0.953-0.151-1.43-0.25-2.384       c1.842,0,2.763,0,4.604,0C259.036,296.099,259.122,296.575,259.294,297.528z"/>
					<path fill="#D3D3D3" d="M265.497,297.528c-1.914,0-2.872,0-4.785,0c-0.193-0.953-0.291-1.43-0.483-2.384       c1.843,0,2.764,0,4.606,0C265.101,296.099,265.233,296.575,265.497,297.528z"/>
					<path fill="#D3D3D3" d="M207.757,300.706c-2.012,0-3.016,0-5.025,0c0.642-0.953,0.965-1.431,1.607-2.383       c1.938,0,2.907-0.001,4.847-0.001C208.614,299.274,208.327,299.753,207.757,300.706z"/>
					<path fill="#D3D3D3" d="M214.271,300.706c-2.01,0-3.015,0-5.024,0c0.549-0.953,0.824-1.431,1.374-2.383       c1.939,0,2.908,0,4.848,0C214.989,299.275,214.749,299.753,214.271,300.706z"/>
					<path fill="#D3D3D3" d="M220.785,300.706c-2.011,0-3.016,0-5.026,0c0.457-0.953,0.686-1.431,1.143-2.383       c1.939,0,2.908,0,4.847,0C221.363,299.275,221.171,299.753,220.785,300.706z"/>
					<path fill="#D3D3D3" d="M227.299,300.706c-2.011,0-3.017,0-5.027,0c0.364-0.953,0.547-1.431,0.911-2.383       c1.939,0,2.909,0,4.848,0C227.738,299.275,227.592,299.753,227.299,300.706z"/>
					<path fill="#D3D3D3" d="M233.812,300.706c-2.009,0-3.014,0-5.023,0c0.271-0.953,0.408-1.431,0.678-2.383       c1.938,0,2.91,0,4.846,0C234.113,299.275,234.013,299.753,233.812,300.706z"/>
					<path fill="#D3D3D3" d="M240.324,300.706c-2.01,0-3.014,0-5.024,0c0.178-0.953,0.269-1.431,0.447-2.383       c1.938,0,2.907,0,4.847,0C240.485,299.275,240.432,299.753,240.324,300.706z"/>
					<path fill="#D3D3D3" d="M246.837,300.706c-2.009,0-3.014,0-5.021,0c0.085-0.953,0.128-1.431,0.213-2.383       c1.938,0,2.907,0,4.844,0C246.859,299.275,246.852,299.753,246.837,300.706z"/>
					<path fill="#D3D3D3" d="M253.354,300.706c-2.011,0-3.017,0-5.026,0c-0.006-0.953-0.01-1.431-0.018-2.383       c1.938,0,2.909,0,4.846,0C253.236,299.275,253.274,299.753,253.354,300.706z"/>
					<path fill="#D3D3D3" d="M259.867,300.706c-2.009,0-3.015,0-5.022,0c-0.101-0.953-0.151-1.431-0.251-2.383       c1.938,0,2.906,0,4.844,0C259.609,299.275,259.696,299.753,259.867,300.706z"/>
					<path fill="#D3D3D3" d="M266.379,300.706c-2.009,0-3.014,0-5.025,0c-0.191-0.953-0.288-1.431-0.481-2.383       c1.938,0,2.907,0,4.846,0C265.981,299.275,266.114,299.753,266.379,300.706z"/>
					<path fill="#D3D3D3" d="M205.853,303.883c-2.105,0-3.16,0-5.265,0c0.643-0.953,0.966-1.43,1.608-2.382c2.034,0,3.051,0,5.084,0       C206.71,302.453,206.425,302.93,205.853,303.883z"/>
					<path fill="#D3D3D3" d="M212.677,303.883c-2.104,0-3.158,0-5.264,0c0.551-0.953,0.825-1.43,1.376-2.382c2.033,0,3.05,0,5.085,0       C213.396,302.453,213.154,302.93,212.677,303.883z"/>
					<path fill="#D3D3D3" d="M219.499,303.883c-2.105,0-3.158,0-5.264,0c0.457-0.953,0.687-1.43,1.145-2.382       c2.031,0,3.049,0,5.083,0C220.078,302.453,219.886,302.93,219.499,303.883z"/>
					<path fill="#D3D3D3" d="M226.3,303.958c-2.108,0-3.163,0-5.272,0c0.378-0.982,0.564-1.475,0.94-2.457c2.035,0,3.053,0,5.087,0       C226.753,302.483,226.603,302.976,226.3,303.958z"/>
					<path fill="#D3D3D3" d="M267.263,303.883c-13.127,0-26.255,0-39.381,0c0.27-0.953,0.405-1.43,0.677-2.382       c12.682,0,25.362,0,38.042,0C266.865,302.453,266.999,302.93,267.263,303.883z"/>
					<path fill="#D3D3D3" d="M238.153,309.118c9.959,0,19.917,0,29.874,0l-2.516-4.06c-9.62,0-15.361,0-24.98,0L238.153,309.118z"/>
					<path fill="#D3D3D3" d="M269.949,294.351c-1.819,0-2.729,0-4.548,0c-0.278-0.953-0.416-1.431-0.692-2.384       c1.747,0,2.62,0,4.368,0C269.426,292.919,269.599,293.397,269.949,294.351z"/>
					<path fill="#D3D3D3" d="M271.111,297.528c-1.915,0-2.872,0-4.788,0c-0.276-0.953-0.414-1.43-0.691-2.384       c1.843,0,2.765,0,4.609,0C270.588,296.099,270.763,296.575,271.111,297.528z"/>
					<path fill="#D3D3D3" d="M272.273,300.706c-2.01,0-3.017,0-5.026,0c-0.277-0.953-0.414-1.431-0.691-2.383       c1.939,0,2.907,0,4.847,0C271.751,299.275,271.924,299.753,272.273,300.706z"/>
					<path fill="#D3D3D3" d="M273.436,303.883c-2.105,0-3.159,0-5.265,0c-0.277-0.953-0.416-1.43-0.692-2.382       c2.034,0,3.051,0,5.085,0C272.912,302.453,273.087,302.93,273.436,303.883z"/>
					<path fill="#D3D3D3" d="M275.28,294.351c-1.819,0-2.729,0-4.548,0c-0.361-0.953-0.543-1.431-0.902-2.384       c1.747,0,2.621,0,4.369,0C274.631,292.92,274.848,293.397,275.28,294.351z"/>
					<path fill="#D3D3D3" d="M276.724,297.528c-1.916,0-2.873,0-4.787,0c-0.361-0.953-0.543-1.43-0.902-2.384       c1.843,0,2.762,0,4.607,0C276.073,296.098,276.291,296.575,276.724,297.528z"/>
					<path fill="#D3D3D3" d="M278.165,300.706c-2.011,0-3.016,0-5.025,0c-0.361-0.953-0.542-1.431-0.903-2.383       c1.938,0,2.908,0,4.847,0C277.517,299.275,277.731,299.753,278.165,300.706z"/>
					<path fill="#D3D3D3" d="M279.606,303.883c-2.106,0-3.16,0-5.266,0c-0.359-0.953-0.541-1.43-0.9-2.382c2.032,0,3.051,0,5.084,0       C278.958,302.453,279.173,302.93,279.606,303.883z"/>
					<path fill="#D3D3D3" d="M280.612,294.351c-1.819,0-2.728,0-4.547,0c-0.445-0.953-0.668-1.431-1.113-2.384       c1.748,0,2.621,0,4.369,0C279.838,292.92,280.097,293.397,280.612,294.351z"/>
					<path fill="#D3D3D3" d="M282.334,297.528c-1.914,0-2.872,0-4.786,0c-0.445-0.953-0.668-1.431-1.113-2.384       c1.844,0,2.765,0,4.608,0C281.559,296.099,281.818,296.575,282.334,297.528z"/>
					<path fill="#D3D3D3" d="M284.058,300.706c-2.012,0-3.016,0-5.026,0c-0.445-0.953-0.667-1.431-1.113-2.383       c1.939,0,2.909,0,4.848,0C283.281,299.275,283.541,299.753,284.058,300.706z"/>
					<path fill="#D3D3D3" d="M285.778,303.883c-2.105,0-3.159,0-5.265,0c-0.444-0.953-0.666-1.43-1.112-2.382       c2.034,0,3.051,0,5.086,0C285.003,302.453,285.262,302.93,285.778,303.883z"/>
					<path fill="#D3D3D3" d="M285.943,294.351c-1.818,0-2.728,0-4.547,0c-0.528-0.953-0.793-1.431-1.321-2.384       c1.746,0,2.619,0,4.367,0C285.044,292.92,285.343,293.397,285.943,294.351z"/>
					<path fill="#D3D3D3" d="M287.946,297.528c-1.914,0-2.871,0-4.786,0c-0.528-0.953-0.794-1.43-1.322-2.384       c1.842,0,2.765,0,4.607,0C287.045,296.099,287.347,296.575,287.946,297.528z"/>
					<path fill="#D3D3D3" d="M289.948,300.706c-2.01,0-3.014,0-5.024,0c-0.529-0.953-0.793-1.431-1.323-2.383       c1.938,0,2.908,0,4.847,0C289.049,299.275,289.349,299.753,289.948,300.706z"/>
					<path fill="#D3D3D3" d="M291.951,303.883c-2.105,0-3.158,0-5.265,0c-0.528-0.953-0.793-1.43-1.323-2.382       c2.034,0,3.052,0,5.086,0C291.05,302.453,291.35,302.93,291.951,303.883z"/>
					<path fill="#D3D3D3" d="M291.277,294.351c-1.82,0-2.731,0-4.549,0c-0.614-0.953-0.921-1.431-1.534-2.384       c1.748,0,2.622,0,4.37,0C290.249,292.92,290.591,293.397,291.277,294.351z"/>
					<path fill="#D3D3D3" d="M293.558,297.528c-1.914,0-2.873,0-4.787,0c-0.613-0.953-0.92-1.43-1.531-2.384       c1.842,0,2.764,0,4.607,0C292.531,296.099,292.874,296.575,293.558,297.528z"/>
					<path fill="#D3D3D3" d="M295.841,300.706c-2.01,0-3.016,0-5.027,0c-0.612-0.953-0.918-1.431-1.531-2.383       c1.939,0,2.908,0,4.848,0C294.815,299.275,295.156,299.753,295.841,300.706z"/>
					<path fill="#D3D3D3" d="M298.122,303.883c-2.105,0-3.158,0-5.266,0c-0.612-0.953-0.92-1.43-1.532-2.382       c2.035,0,3.053,0,5.087,0C297.096,302.453,297.438,302.93,298.122,303.883z"/>
					<path fill="#D3D3D3" d="M296.606,294.351c-1.818,0-2.729,0-4.547,0c-0.697-0.953-1.045-1.431-1.744-2.384       c1.748,0,2.621,0,4.37,0C295.454,292.92,295.838,293.397,296.606,294.351z"/>
					<path fill="#D3D3D3" d="M299.169,297.528c-1.914,0-2.873,0-4.787,0c-0.695-0.953-1.045-1.43-1.741-2.384       c1.843,0,2.764,0,4.606,0C298.016,296.099,298.4,296.575,299.169,297.528z"/>
					<path fill="#D3D3D3" d="M301.731,300.706c-2.01,0-3.015,0-5.025,0c-0.697-0.953-1.045-1.431-1.742-2.383       c1.938,0,2.908,0,4.847,0C300.579,299.275,300.963,299.753,301.731,300.706z"/>
					<path fill="#D3D3D3" d="M304.294,303.883c-2.105,0-3.158,0-5.266,0c-0.696-0.953-1.045-1.43-1.741-2.382       c2.034,0,3.051,0,5.085,0C303.141,302.453,303.524,302.93,304.294,303.883z"/>
				</g>
				<g>
					<g>
						<path fill="#0B4870" d="M276.606,284.201h-46.886c0.335-1.361,0.642-2.448,0.911-3.204c0.136-0.381,0.326-0.746,0.571-1.092        c0.831-1.177,2.253-2.178,4.086-3.024c2.188-1.012,4.956-1.807,7.991-2.438c3.225-0.661,6.743-1.138,10.168-1.482        c0.231-0.021,0.461-0.045,0.692-0.065c3.81-0.355,7.47-0.551,10.423-0.646c4.077-0.141,6.825-0.111,6.825-0.111        s0.221,0.352,0.606,1.053C272.9,274.854,274.709,278.498,276.606,284.201z"/>
					</g>
					<path fill="#FFE3CA" d="M240.69,207.697c-0.089,0.601-0.245,1.158-0.467,1.693l0.133-1.515       C240.468,207.808,240.58,207.764,240.69,207.697z"/>
					<path fill="#EEBEA7" d="M265.526,205.448c0,0,0,0,0,0.02c-0.046-0.02-0.09-0.043-0.111-0.043       C265.46,205.425,265.48,205.448,265.526,205.448z"/>
					<g>
						<g>
							<g>
								<g>
									<g>
										<path fill="#F1B99E" d="M313.645,237.419c0,0,2.896-2.685,2.322-4.699c-0.486-1.709,0.248-3.624,0.431-4.418            c0.248-1.052,0.348-4.469,1.133-4.283c1.329,0.323,1.022,5.777,1.186,6.939c0.164,1.161,3.686-2.729,4.886-2.932            c1.203-0.208,7.316,5.988,4.593,8.381c-2.724,2.388-6.479,3.357-6.876,3.873c-0.396,0.516-2.263,1.934-2.263,1.934            L313.645,237.419z"/>
									</g>
								</g>
							</g>
						</g>
						<g>
							<g>
								<g>
									<g>
										<path fill="#F1B99E" d="M322.833,228.431c0,0,8.828-6.762,9.793-6.721c0.969,0.039,1.303,0.542,0.503,1.207            c-0.797,0.667-8.336,6.785-8.336,6.785s11.79-6.251,12.591-6.391c0.465-0.083,0.821,0.812,0.425,1.209            c-0.395,0.393-11.366,7.296-11.366,7.296s11.019-5.817,11.721-5.735c0.616,0.075,1.055,1.09,0.268,1.577            c-0.788,0.487-10.711,6.465-10.711,6.465s8.289-3.727,8.841-3.31c0.335,0.258,0.813,0.824-1.353,1.718            c-2.17,0.896-6.889,3.753-6.889,3.753L322.833,228.431z"/>
									</g>
								</g>
							</g>
						</g>
					</g>
					<path fill="#FFBE55" d="M259.802,199.611v0.601c-0.047-0.11-0.09-0.2-0.111-0.311c-0.046-0.022-0.046-0.066-0.046-0.09       C259.69,199.745,259.734,199.679,259.802,199.611z"/>
					<g>
						<path fill="#EEBEA7" d="M253.164,203.265c-0.089,0.021-0.202,0.021-0.29,0.021v-0.044        C252.962,203.265,253.075,203.265,253.164,203.265z"/>
						<path fill="#EEBEA7" d="M259.802,199.611v0.179c-0.047,0.045-0.067,0.066-0.111,0.111c-0.245,0.267-0.514,0.512-0.78,0.757        c-0.112,0.089-0.2,0.177-0.311,0.267c0.132-0.132,0.288-0.289,0.424-0.423c0.2-0.2,0.399-0.445,0.621-0.691        C259.69,199.745,259.734,199.679,259.802,199.611z"/>
					</g>
					<g>
						<g>
							<g>
								<path fill="#F4C7B1" d="M264.902,191.927c-1.225,2.718-2.718,5.168-4.411,7.106c-0.221,0.267-0.468,0.534-0.689,0.757          v-0.179c-0.067,0.068-0.111,0.134-0.157,0.2c-0.222,0.247-0.421,0.491-0.621,0.691c-0.136,0.134-0.292,0.291-0.424,0.423          c-0.047,0.023-0.09,0.068-0.134,0.112c-0.067,0.066-0.134,0.134-0.202,0.156c-0.179,0.156-0.354,0.29-0.557,0.423          c-0.244,0.178-0.467,0.334-0.711,0.468c-0.067,0.044-0.135,0.088-0.179,0.112c-0.225,0.132-0.445,0.244-0.645,0.333          c-0.203,0.112-0.426,0.201-0.626,0.268l-0.021,0.022c-0.178,0.045-0.312,0.111-0.469,0.156          c-0.046,0.022-0.088,0.045-0.134,0.045c-0.154,0.044-0.311,0.088-0.468,0.111c-0.043,0-0.065,0.021-0.11,0.021h-0.068          c-0.11,0.024-0.243,0.046-0.354,0.068c-0.112,0.021-0.245,0.021-0.356,0.021c-0.11,0.023-0.225,0.023-0.313,0.023h-0.021          c-0.021,0.021-0.044,0.021-0.066,0c-0.089,0-0.202,0-0.29-0.023v0.044c-0.133,0-0.268-0.021-0.422-0.044          c-0.157-0.021-0.335-0.044-0.492-0.066c-0.089-0.024-0.176-0.024-0.29-0.045c-0.088-0.023-0.178-0.023-0.267-0.067          c-0.467-0.111-0.911-0.29-1.38-0.535c-0.134-0.065-0.29-0.154-0.424-0.243c-0.734-0.423-1.448-1.025-2.184-1.783          c-0.265-0.266-0.511-0.578-0.778-0.891c-1.136-1.426-2.271-3.317-3.318-5.723c-0.445-1.003-0.848-1.983-1.203-2.919          c0.556,1.091-0.414-9.089-0.19-8.731c-3.028-5.791-0.01-1.025,1.062-3.897c6.702,2.828,19.73,7.707,19.73,2.761          c0,0,0.289,3.007,0.625,6.125c0.267,2.562,0.557,5.213,0.691,6.215C264.034,193.442,264.389,192.885,264.902,191.927z"/>
								<path fill="#EEBEA7" d="M253.164,203.265c-0.089,0.021-0.202,0.021-0.29,0.021v-0.044          C252.962,203.265,253.075,203.265,253.164,203.265z"/>
								<path fill="#EEBEA7" d="M259.802,199.611v0.179c-0.047,0.045-0.067,0.066-0.111,0.111c-0.245,0.267-0.514,0.512-0.78,0.757          c-0.112,0.089-0.2,0.177-0.311,0.267c0.132-0.132,0.288-0.289,0.424-0.423c0.2-0.2,0.399-0.445,0.621-0.691          C259.69,199.745,259.734,199.679,259.802,199.611z"/>
							</g>
						</g>
					</g>
					<g>
						<g>
							<g>
								<path fill="#FFBE55" d="M242.116,190.969c-1.783-3.519-4.655-10.245-4.143-16.615c0-0.023,0-0.023,0-0.023          c-0.801-5.278,5.77-14.789,15.793-14.299c10.021-0.49,16.594,9.021,15.791,14.299v0.023          c0.31,3.853-0.625,7.817-1.782,11.137c0.735-0.024,1.446,0.065,2.159,0.311c3.988,1.314,5.858,6.504,4.166,11.561          c-1.67,5.078-6.281,8.105-10.268,6.792c-1.85-0.602-3.253-2.049-4.031-3.943v-0.422c0.222-0.223,0.469-0.49,0.689-0.757          c1.693-1.938,3.187-4.388,4.411-7.106c-0.514,0.958-0.825,2.135-0.825,2.135c-0.135-1-0.468-4.273-0.734-6.835          c-0.336-3.118-0.625-6.125-0.625-6.125c0,4.946-13.028,0.067-19.73-2.761L242.116,190.969z"/>
							</g>
						</g>
					</g>
					<g>
						<g>
							<g>
								<path fill="#A5735B" d="M259.802,199.611v0.601c0,0.424-0.021,0.936,0,1.515c-0.646,0.801-1.292,1.471-1.96,1.982          c-0.225,0.178-0.446,0.335-0.668,0.49c-0.178,0.133-0.356,0.243-0.535,0.334h-0.021c-1.024,0.579-2.05,0.869-3.052,0.891          h-0.514c-0.066,0-0.132,0-0.178-0.022v-2.161c0.088,0.023,0.201,0.023,0.29,0.023c0.022,0.021,0.045,0.021,0.066,0h0.021          c0.113,0.021,0.203,0.021,0.313,0.021c0.134,0,0.289-0.021,0.423-0.044c0.155-0.021,0.335-0.044,0.491-0.066          c0.088-0.024,0.176-0.024,0.289-0.045c0.09-0.023,0.178-0.023,0.268-0.067c0.468-0.111,0.912-0.29,1.378-0.535          c0.136-0.065,0.293-0.154,0.425-0.243c0.489-0.268,0.957-0.625,1.425-1.092c0.068-0.022,0.135-0.089,0.202-0.156          c0.044-0.044,0.087-0.089,0.134-0.112c0.132-0.132,0.288-0.289,0.424-0.423c0.2-0.2,0.399-0.445,0.621-0.691          C259.69,199.745,259.734,199.679,259.802,199.611z"/>
							</g>
						</g>
					</g>
					<path fill="#0E538C" d="M252.876,218.699v60.293l10.402-0.444l8.554-0.379l-0.87-10.535l-0.957-11.784       c-1.381,0.581-2.94,1.271-4.434,1.939c0.401-4.655,0.579-8.932,0.312-12.429c-1.047-13.008-2.672-23.609-3.942-30.536v-0.022       c0.133-1.336-0.046-2.829-0.356-4.209c-0.043-0.292-0.111-0.579-0.178-0.847c-0.09-0.312-0.154-0.601-0.244-0.891       c-0.068-0.224-0.135-0.445-0.202-0.667c-0.044-0.156-0.111-0.312-0.154-0.446c-0.224-0.735-0.445-1.292-0.581-1.604h-0.043       c0.179,0.803,0.802,3.475,1.58,7.684c0,0,0,0,0,0.023c-0.51,2.227-2.138,3.474-4.143,4.166c-0.021,0-0.064,0.021-0.09,0.021       c-1.379,0.469-2.938,0.646-4.43,0.668C253.033,218.699,252.943,218.722,252.876,218.699z"/>
					<g>
						<g>
							<path fill="#2A94F4" d="M276.64,237.455c0.535,0.822,1.291,2.337,2.049,4.053c-0.11,1.893-0.244,3.028-0.244,3.028         s-0.824,2.161-1.916,5.547c-0.291,0.845-3.095,15.812-3.406,16.794c-0.067,0.178-0.113,0.378-0.179,0.557         c-1.024,0.511-0.796-0.381-2.579,0.334c-0.532,0.222-1.113,0.444-1.715,0.711c-0.089,0.047-0.199,0.09-0.357,0.156         c-0.178,0.067-0.355,0.134-0.534,0.223c-1.136,0.49-2.359,1.025-3.54,1.56c0.399-4.655,1.931-21.56,1.663-25.057         c-1.046-13.008-2.671-23.609-3.941-30.536v-0.022c-0.068-0.333-0.11-0.645-0.178-0.957c0-0.023,0-0.023,0-0.023         c-0.779-4.208-1.403-6.881-1.582-7.684h5.77v0.046c1.603-0.112,9.169-1.177,14.337,3.745         c-2.852-1.225-6.631-0.116-7.898,0.664c-0.537,0.312-1.004,0.667-1.406,1.069c-0.668,0.624-1.179,1.337-1.558,2.116         C265.728,221.417,275.08,235.092,276.64,237.455z"/>
							<path fill="#2A94F4" d="M277.061,284.201h-14.335c0.149-1.827,0.34-3.721,0.551-5.652c0.215-2.073,0.471-4.181,0.715-6.299         c0.081-0.731,0.166-1.458,0.246-2.188c0.005,0,0.005,0,0.011-0.005c1.741-0.637,4.03-3.596,6.539-4.587         c0.06-0.021,0.114-0.045,0.175-0.065c0.716-0.245,1.427,1.737,2.158,1.472C273.591,271.854,275.269,278.349,277.061,284.201z         "/>
						</g>
					</g>
					<path fill="#F4C7B1" d="M252.876,205.402v13.296c0.067,0.023,0.157,0,0.225,0c1.491-0.022,3.051-0.199,4.43-0.668       c0.025,0,0.068-0.021,0.09-0.021c2.005-0.692,3.633-1.939,4.143-4.166c0-0.023,0-0.023,0-0.023       c-0.778-4.208-1.401-6.881-1.58-7.684h-0.312v-0.423c0-0.267-0.023-0.512-0.023-0.758c-0.021-0.802-0.021-1.559-0.043-2.294       v-0.935c-0.646,0.801-1.292,1.471-1.96,1.982c-0.224,0.201-0.446,0.356-0.667,0.49c-0.18,0.133-0.357,0.243-0.535,0.334h-0.021       c-1.093,0.625-2.162,0.891-3.23,0.891C253.211,205.425,253.033,205.425,252.876,205.402z"/>
					<g>
						<path fill="#2A94F4" d="M316.775,234.611l0.516,0.917l0.016,0.018l4.024,7.114l0.622,1.095c0,0-1.22,0.491-3.139,1.303        c-1.747,0.738-4.065,1.708-6.579,2.796c-0.692,0.308-1.383,0.612-2.1,0.914c-4.888,2.168-10.033,4.483-12.609,5.964        c-5.62,3.21-10.297,4.331-13.146,4.272c-2.834-0.075-9.051-16.853-10.021-20.877c-0.984-4.008-4.621-11.392-7.227-18.423        c-1.103-2.988-0.784-5.624,0.16-7.717c1.256-2.837,3.624-4.671,5.086-4.964c0.603-0.135,1.188-0.192,1.758-0.172        c0.911,0.004,1.771,0.179,2.578,0.491c7.91,3.082,10.359,19.469,10.822,22.26c0.17,0.969,0.646,2.592,1.258,4.366        c1.356,4.148,3.332,9.153,3.332,9.153c3.972-1.712,5.611-2.201,7.125-2.635c1.099-0.321,2.135-0.583,3.927-1.271        c0.54-0.201,1.118-0.434,1.739-0.646c1.408-0.514,3.02-1.071,4.568-1.595C313.266,235.71,316.775,234.611,316.775,234.611z"/>
					</g>
					<g>
						<g>
							<g>
								<path fill="#A5735B" d="M253.565,203.242v2.161c-0.066,0.022-0.11,0.022-0.178,0.022h-0.514          c-1.003-0.022-2.028-0.312-3.053-0.891H249.8c-0.178-0.091-0.355-0.201-0.535-0.334c-0.221-0.155-0.442-0.312-0.667-0.49          c-0.668-0.512-1.314-1.181-1.96-1.982c0.021-0.868,0-1.604,0-2.116c0.268,0.313,0.514,0.625,0.778,0.891          c0.735,0.758,1.449,1.36,2.184,1.783c0.134,0.089,0.29,0.178,0.424,0.243c0.469,0.246,0.913,0.424,1.38,0.535          c0.089,0.044,0.179,0.044,0.267,0.067c0.114,0.021,0.201,0.021,0.29,0.045c0.157,0.022,0.335,0.044,0.492,0.066          c0.154,0.023,0.289,0.044,0.422,0.044c0.088,0,0.201,0,0.29-0.021c0.022,0.021,0.045,0.021,0.066,0h0.021          C253.341,203.265,253.455,203.265,253.565,203.242z"/>
							</g>
						</g>
					</g>
					<path fill="#0E538C" d="M253.565,218.699v60.293l-10.402-0.444l-8.553-0.379l0.869-10.535l0.957-11.784       c1.381,0.581,2.94,1.271,4.434,1.939c-0.402-4.655-0.578-8.932-0.312-12.429c1.046-13.008,2.671-23.609,3.94-30.536v-0.022       c-0.132-1.336,0.047-2.829,0.357-4.209c0.043-0.292,0.111-0.579,0.179-0.847c0.09-0.312,0.153-0.601,0.243-0.891       c0.068-0.224,0.135-0.445,0.202-0.667c0.044-0.156,0.111-0.312,0.155-0.446c0.225-0.735,0.445-1.292,0.58-1.604h0.043       c-0.178,0.803-0.803,3.475-1.581,7.684c0,0,0,0,0,0.023c0.511,2.227,2.139,3.474,4.145,4.166c0.021,0,0.065,0.021,0.089,0.021       c1.379,0.469,2.939,0.646,4.43,0.668C253.408,218.699,253.499,218.722,253.565,218.699z"/>
					<g>
						<g>
							<path fill="#2A94F4" d="M246.259,206.137c-0.178,0.803-0.803,3.475-1.581,7.684c0,0,0,0,0,0.023         c-0.066,0.312-0.111,0.624-0.179,0.957v0.022c-1.27,6.927-2.895,17.528-3.94,30.536c-0.267,3.498-0.091,7.774,0.312,12.429         c-1.493-0.669-3.053-1.358-4.434-1.939c-0.601-0.268-1.182-0.489-1.714-0.711c-1.784-0.714-2.72-1.227-3.743-1.739         c-0.065-0.178-0.111-0.377-0.179-0.556c-0.312-0.98-0.601-1.916-0.89-2.761c-1.093-3.387-1.916-5.547-1.916-5.547         s-0.133-1.135-0.244-3.028c0.757-1.716,1.515-3.23,2.05-4.053c1.558-2.363,10.911-16.038,7.214-23.678         c-0.378-0.779-0.89-1.493-1.558-2.116c-0.401-0.401-0.87-0.757-1.405-1.069c-1.267-0.78-6.262,0.103-9.112,1.328         c5.168-4.924,13.948-5.85,15.552-5.737v-0.046H246.259z"/>
							<path fill="#2A94F4" d="M243.714,284.201h-14.335c0.431-1.406,0.855-2.849,1.252-4.296c1.276-4.587,2.333-9.243,2.688-13.028         c0.73,0.266,1.447,0.511,2.163,0.756c2.583,0.911,4.942,1.783,6.72,2.43c0.16,1.461,0.335,2.928,0.506,4.381         c0.155,1.381,0.314,2.753,0.455,4.105C243.374,280.48,243.563,282.374,243.714,284.201z"/>
						</g>
					</g>
					<path fill="#F4C7B1" d="M253.565,205.402v13.296c-0.066,0.023-0.157,0-0.225,0c-1.49-0.022-3.051-0.199-4.43-0.668       c-0.023,0-0.067-0.021-0.089-0.021c-2.006-0.692-3.634-1.939-4.145-4.166c0-0.023,0-0.023,0-0.023       c0.778-4.208,1.403-6.881,1.581-7.684h0.312v-0.423c0-0.267,0.023-0.512,0.023-0.758c0.021-0.802,0.021-1.559,0.043-2.294       v-0.935c0.646,0.801,1.292,1.471,1.96,1.982c0.225,0.201,0.446,0.356,0.667,0.49c0.18,0.133,0.357,0.243,0.535,0.334h0.021       c1.092,0.625,2.164,0.891,3.23,0.891C253.23,205.425,253.408,205.425,253.565,205.402z"/>
					<g>
						<g>
							<g>
								<path fill="#EEA886" d="M259.712,264.359c-0.156,0.979-0.802,1.715-0.802,1.715s0.378,1.291-0.489,2.138          c0,0,0.289,1.225-0.847,2.026c0,0,0.268,1.203-0.625,1.716c0,0-1.938,0.245-2.648,0.112c-0.893-0.201-5.058-1.158-8.62-2.05          l1.893-7.952v-0.021c0.824-0.557,1.603-1.07,1.849-1.226c0.602-0.357,2.651-0.245,4.765,0.423          c2.052,0.646,4.346,1.56,4.99,1.916C259.513,263.334,259.845,263.402,259.712,264.359z"/>
							</g>
						</g>
						<path fill="#2A94F4" d="M247.819,261.018l-0.246,1.025v0.021l-1.893,7.952l-0.289,1.226c0,0-1.227-0.468-3.188-1.182        c-1.78-0.646-4.14-1.514-6.724-2.427c-0.713-0.246-1.428-0.491-2.159-0.757c-5.057-1.739-10.403-3.543-13.299-4.211        c-6.304-1.471-10.492-3.831-12.541-5.812c-2.025-1.982,4.834-18.509,6.862-22.118c2.005-3.608,4.363-11.493,7.238-18.419        c1.225-2.941,3.25-4.656,5.367-5.546c2.853-1.226,5.837-0.959,7.104-0.179c0.535,0.312,1.004,0.667,1.405,1.069        c0.668,0.624,1.18,1.337,1.558,2.116c3.697,7.64-5.656,21.315-7.214,23.678c-0.535,0.822-1.293,2.337-2.05,4.053        c-1.826,3.963-3.786,8.975-3.786,8.975c4.075,1.449,5.611,2.205,7.015,2.917c1.023,0.513,1.959,1.025,3.743,1.739        c0.532,0.222,1.113,0.443,1.714,0.711c1.381,0.581,2.94,1.271,4.434,1.939C244.499,259.437,247.819,261.018,247.819,261.018z"/>
					</g>
					<g>
						<path fill="#0E538C" d="M268.806,185.61l-0.191-8.728c-0.028-1.456,0-2.899-0.208-4.249c-0.205-1.37-0.577-2.711-1.153-3.952        c-1.132-2.489-3.031-4.589-5.417-5.921c-2.383-1.353-5.154-1.968-7.919-1.957c-2.764-0.011-5.541,0.604-7.914,1.957        c-2.391,1.333-4.289,3.433-5.425,5.921c-0.572,1.241-0.943,2.583-1.149,3.952c-0.207,1.365-0.187,2.774-0.206,4.249        l-0.195,8.728h-1.094l-0.188-8.728c-0.018-1.431-0.083-2.938,0.109-4.46c0.19-1.508,0.561-3.011,1.172-4.426        c1.185-2.853,3.397-5.271,6.075-6.801c2.682-1.553,5.777-2.253,8.814-2.269c3.039,0.016,6.132,0.716,8.812,2.269        c2.68,1.529,4.89,3.948,6.072,6.801c0.611,1.415,0.985,2.918,1.18,4.426c0.19,1.534,0.127,3.015,0.11,4.46l-0.189,8.728        H268.806z"/>
						<g>
							<path fill="#0B4870" d="M238.808,190.349c-1.964,0-2.459-1.408-2.459-3.147v-5.643c0-1.737,0.495-3.148,2.459-3.148h0.47         v11.938H238.808z"/>
							<rect x="239.277" y="178.41" fill="#2A94F4" width="1.015" height="11.938"/>
						</g>
						<g>
							<path fill="#0B4870" d="M269.326,190.349c1.966,0,2.465-1.408,2.465-3.147v-5.643c0-1.737-0.499-3.148-2.465-3.148h-0.47         v11.938H269.326z"/>
							<rect x="267.841" y="178.41" fill="#2A94F4" width="1.016" height="11.938"/>
						</g>
						<path fill="#CCE9FF" d="M254.646,201.228v-1.095c4.53,0,13.158-6.438,13.158-9.784h1.093        C268.896,194.584,259.353,201.228,254.646,201.228z"/>
						<path fill="#0B4870" d="M255.373,202.209h-1.459c-1.21,0-2.189-0.683-2.189-1.529c0-0.844,0.979-1.526,2.189-1.526h1.459        c1.209,0,2.188,0.682,2.188,1.526C257.562,201.527,256.582,202.209,255.373,202.209z"/>
					</g>
				</g>
			</g>
			<g>
				<path fill="#2A94F4" d="M215.58,142.224v8.648l-0.052,11.74l-0.069,14.179l-0.044,10.46l-10.421-10.5l-3.18-0.011l-42.168-0.197      c-7.124-1.39-12.5-7.66-12.5-15.177v-19.142c0-7.94,6.004-14.499,13.716-15.362l42.268,0.195      C210.226,128.457,215.58,134.715,215.58,142.224z"/>
				<g>
					<path opacity="0.8" fill="#CCE9FF" d="M202.435,142.639c0,1.257-1.017,2.273-2.269,2.273h-38.87       c-1.254,0-2.271-1.016-2.271-2.273l0,0c0-1.255,1.018-2.271,2.271-2.271h38.87       C201.418,140.368,202.435,141.384,202.435,142.639L202.435,142.639z"/>
					<path opacity="0.8" fill="#CCE9FF" d="M202.435,151.096c0,1.251-1.017,2.273-2.269,2.273h-38.87       c-1.254,0-2.271-1.022-2.271-2.273l0,0c0-1.256,1.018-2.273,2.271-2.273h38.87C201.418,148.823,202.435,149.84,202.435,151.096       L202.435,151.096z"/>
					<path opacity="0.8" fill="#CCE9FF" d="M190.56,159.552c0,1.246-1.021,2.266-2.275,2.266h-26.991       c-1.254,0-2.264-1.021-2.264-2.266c0-0.628,0.247-1.193,0.66-1.605c0.409-0.412,0.978-0.671,1.604-0.671h26.991       C189.539,157.276,190.56,158.296,190.56,159.552z"/>
				</g>
			</g>
		</g>
	</g>
</g>
</svg>