<svg xmlns="http://www.w3.org/2000/svg" xmlns:xlink="http://www.w3.org/1999/xlink" version="1.1" x="0px" y="0px" viewBox="0 0 1920 1080" style="enable-background:new 0 0 1920 1080;" xml:space="preserve">
<style type="text/css">
	.st0{opacity:0.1;fill:#2A94F4;}
	.st1{fill:#0E538C;}
	.st2{fill:#FCD2B1;}
	.st3{fill:#FFBE55;}
	.st4{fill:#CCE9FF;}
	.st5{fill:#FFE3CA;}
	.st6{fill:#F7F7F7;}
	.st7{fill:#EFACA5;}
	.st8{fill:#0B4870;}
	.st9{opacity:8.000000e-02;fill:#070707;}
</style>
<g id="Background">
	<circle class="st0" cx="906.5" cy="525.5" r="460.8"/>
	<ellipse class="st0" cx="920.8" cy="993.3" rx="452.5" ry="44.1"/>
</g>
<g id="Objects">
	<path class="st1" d="M1172.3,628.2h-114.1c-37.5,0-67.9-30.4-67.9-67.9V447.4c0-37.5,30.4-67.9,67.9-67.9h114.1   c37.5,0,67.9,30.4,67.9,67.9v112.9C1240.2,597.8,1209.8,628.2,1172.3,628.2z"/>
	<g>
		<g>
			<g>
				<path class="st2" d="M996.6,352.3c1.2-1.2,2.3-2.4,3.4-3.8c8.1-10.3,9.2-19.5,16.7-31.4c1.1-1.7,2.6-6.3,5.4-10.4      c3-4.3,10.2-9,12.1-9.9c3.5-1.8,3.5,1.6,6.3,1.9c1.1,0.1,1.3,6.7,1.3,7.8c0.1,9-2,18-6.1,26c-1,1.9-2.1,3.8-2.1,5.9      c2.7-0.1,4.9-1.9,7-3.5c2.1-1.6,4.8-3,7.4-2.1c-0.4,1.1-0.9,2.1-1.4,3.1c-3.2,6-6.8,12.3-12.9,15.2c-3.7,1.7-7.9,2-11.5,3.9      c-6.5,3.4-9.6,11.4-16.1,14.6"/>
			</g>
			<path class="st3" d="M1037.5,355.7l-24.5-10.3c-0.3-0.1-0.5-0.5-0.3-0.8l19.3-46.1c0.1-0.3,0.5-0.5,0.8-0.3l24.5,10.3     c0.3,0.1,0.5,0.5,0.3,0.8l-19.3,46.1C1038.2,355.7,1037.8,355.9,1037.5,355.7z"/>
			
				<rect x="1024.2" y="304.3" transform="matrix(0.9226 0.3859 -0.3859 0.9226 206.4947 -374.3643)" class="st4" width="23.4" height="45.8"/>
			<path class="st4" d="M1055.5,394c0,0-16.5,0.8-31.1,5.3c-22.2,6.7-29.8,16.9-37.4,21.2c14.9-18.9,31.4-58.9,31.4-58.9     s-20-16.4-22.3-12.5c-2.3,3.9-86.2,102.1-83.6,118c1.1,6.6,10.8,13,19.4,12.7c23.8-0.8,51.4-9.5,80.4-18.9     c12.7-4.2,16.7,4.8,16.7,4.8"/>
			<path class="st4" d="M986.9,420.4c0,0-10.6,21.3-13.7,22.7c-3.2,1.4,7.7-4.4,13.7-10.6c5.9-6.1,14.1-22.3,14.1-22.3     C997.8,411.5,986.9,420.4,986.9,420.4z"/>
			<g>
				<path class="st2" d="M1020,317.2c1,0.7,1.3,2.1,1.5,3.4c0.7,4.7,1.4,9.7-0.4,14.1c-1.2,2.9-3.4,5.2-5.7,7.2      c-2.6,2.3-5.5,4.3-8.6,5.9"/>
			</g>
			<g>
				<path class="st1" d="M1056,281.8c-5.6,1.6-8.6,8.9-10.5,13.8c-2.3,6-3.4,12.3-4.2,18.6c-0.5,4.4-0.8,9,0.9,13.1      c0.9,2.1,2.3,3.9,3.7,5.7c0.8,1,1.6,2.1,2.6,2.8c1.1,0.7,2.4,1.1,3.6,0.6c1.7-0.7,2.4-2.7,2.9-4.5c3.2-11.8,6.8-23.7,13.4-33.9"/>
			</g>
			<path class="st4" d="M1012.3,413.4c6.9-7.9,28.9-21,58.2-20.1c20.2,0.6,75.3,4,81.4,17.5c3.1,6.9,6.5,77.7,1.9,102.1     c-3.5,18.4-12.3,63.8-12.3,74.8c0,11,5.9,15.7,3.1,18.9c-6.2,7.1-48.3,10.1-68.1,10.1c-17.6,0-47.6-4.7-49.1-10.3     c-2.3-8.4,3.4-8.1,4.2-16.8c0.8-8.8,3-65.7-0.2-75.1c-5.8-16.8-8.7-44.3-13.3-56.7C1014.7,448.3,1005.4,421.3,1012.3,413.4z"/>
			<path class="st2" d="M1054.5,367.9c0,0-0.2,23-1.1,24c-0.9,0.9-5.5,3.1-5.5,3.1s3.2,20,8.3,18.5c5-1.5,38.1-18.2,38.1-18.2     s-4.7-1.9-4.7-3.8c0-1.9,4.5-38.1,4.5-38.1"/>
			<path class="st5" d="M1077.5,284.3c-4.8,1.3-17.5-1.3-21.1,3.9c-3.5,5.3-6.6,18-7.9,21.5c-2.6,7-4.3,14.5-6.2,21.7     c-2.5,9.4-6.6,26.6,2.6,34.4c2.6,2.3,3.8,3,7.1,3.6c4.3,0.8,8.7,1.7,13,2.5c6.7,1.2,14.2,2.6,20.9,0.4     c8.9-2.9,13.8-15.2,16.1-23.5l13.2-47.8L1077.5,284.3z"/>
			<path class="st3" d="M1053.7,422.5c0,0-1.9,89.9-5.6,144.5l13.2,18.2l9.1-22.8c0,0,3.8-65.9-8.6-139.3L1053.7,422.5z"/>
			<path class="st3" d="M1050.7,414.6l0.3,1.2c0.6,2.3,1.5,4.6,2.7,6.7l0,0l8.1,0.6c0,0,5.5-2.9,6.2-6c0.7-3.1-9-8.2-9-8.2l-1.2,0.5     c-2.7,1.1-5.2,2.8-7.1,5.1L1050.7,414.6z"/>
			<path class="st6" d="M1090.2,385.9c0,0,5.2,3.2,9.2,9.4c-4.2,9.5-13.6,26.5-24,34.2c-4.9-13-16.5-20.6-16.5-20.6     S1087.3,403.9,1090.2,385.9z"/>
			<path class="st6" d="M1059,408.9c0,0-10.1,4-16.1,15.3c0,0-1.9-15.3,2.2-28.4c0,0,6.6-8.5,8.9-8.7     C1053.1,398,1059,408.9,1059,408.9z"/>
			<g>
				<g>
					<path class="st7" d="M1017.4,542.8c-8.7-5.2-13.9-4.7-21.9-4c-0.6,0.1-1.4,0.2-1.7,0.8c-0.4,0.7,0.1,1.6,0.6,2.2       c3.1,3.5,5.6,1.7,10.1,3.1c3.1,0.9,6.1,1.8,9.2,2.7"/>
				</g>
				<g>
					<g>
						<path class="st8" d="M1007.5,457.9l7.8,119.2c0.2,3.2-2.1,5.4-5,4.7l-73.7-11.1c-2.6-0.6-4.7-3.3-4.9-6.1l-10.8-118.2        c-0.2-3.2,5.1-6.4,8-5.7l73.7,11.1C1005.2,452.4,1007.3,455.1,1007.5,457.9z"/>
					</g>
					<g>
						<path class="st1" d="M1004.4,460.2l7.7,117.4c0.2,3.2-2.1,5.4-5,4.7l-73.7-11.1c-2.6-0.6-4.7-3.3-4.9-6.1l-7.7-117.4        c-0.2-3.2,2.1-5.4,5-4.7l73.7,11.1C1002.1,454.7,1004.2,457.4,1004.4,460.2z"/>
					</g>
					<g>
						<polygon class="st3" points="947.6,442.7 947.9,452.9 982.3,458.1 981.9,447.9       "/>
						<path class="st3" d="M956.2,435.4c0.2,2.4,0.8,11.6,0.8,11.6l16.5,2.4l-0.8-11.6c-0.3-5-4.3-9.6-8.8-10.3        C959.3,426.9,955.8,430.4,956.2,435.4z M959.8,436c-0.2-2.8,1.7-4.8,4.3-4.4c2.6,0.4,4.8,3,5,5.8c0.2,2.8-1.7,4.8-4.3,4.4        C962.2,441.4,960,438.9,959.8,436z"/>
					</g>
				</g>
				<g>
					<path class="st5" d="M1044.3,554.6c-7-3.7-27-12.2-29.3-12.7c-2.8-0.7-13.6-1.2-16.4-0.9c-11,1.1-10.3,6.4-19.4,12.7       c-0.5,0.3-0.9,0.7-1.2,1.2c-0.7,0.9,5.7,7,8.4,7.5c1.4,0.3,1.2,0.2,5.2,0c2.9-0.1,5.7,0.3,9.8,1.4c2.7,0.7,5.9,2,8.8,2.3       c3.8,0.4,8.4,3.6,16.3-1.6c1.7-1.1,4-0.8,6.1-0.6c5,0.6,9.9,1.3,14.9,1.9"/>
				</g>
				<path class="st4" d="M1127.1,453.5c-0.1,12.2-9.6,94.5-9.6,94.5l-84.4,1.4l-2,16.3c0,0,95.5,28.6,108.4,10.2      c12.9-18.4,39.3-110.7,23.9-150.2c-4.3-11.1-12.9-17.9-19.6-21.5"/>
			</g>
			<g>
				<path class="st1" d="M1107.1,340.5c-3-1.8-5.4-3.6-7.3-0.7c-1,1.5-1.7,3.7-3.5,4.2c-1.8,0.5-3.6-1.1-4.1-2.9      c-0.4-1.8,0.1-3.7,0.7-5.5c1.2-3.9,2.4-7.8,3.7-11.8c1.2-3.8,2.4-8.1,0.9-11.8c-0.8-1.9-2.2-3.4-3.7-4.8      c-5-4.3-11.6-6.4-18.1-7.7c-6.5-1.3-13.1-2-19.4-4c-2.7-0.8-5.3-1.9-7.4-3.7c-3.4-2.9-5.2-7.5-5.2-12c0-4.5,1.5-8.9,3.8-12.8      c0.5,1.5,1.1,3,1.9,4.4c0.8-2.1,2-4,3.5-5.6c1.9,10.5,46.2,7,56.6,11.7c7.2,3.2,13.1,5.3,12.9,17c0.2,0.8,0.8,1.3,1.4,1.9      c6.4,5.8,9.1,13,9.9,23.5c1,12.9-6.5,26.9-13.9,37.6c-1.9,2.7-2.9,4.6-5.5,6.5c-2.6,2-7.1,2.9-10.3,2.3      c-3.2-0.6-9.5-0.3-9.6-3.6c0-2.3,4.9-6.5,6.3-8.4"/>
			</g>
			<g>
				<path class="st5" d="M1095.4,352.7c0,0-0.5,2.2,0.8,3.9c1.2,1.5,3.6,1.3,5.2,0.7c4.7-1.5,8-6.1,8.8-10.9c1-5.6-2-11.2-7.1-9.7      c-3,0.9-4.9,4.2-4.8,7.4"/>
			</g>
		</g>
	</g>
	<path class="st8" d="M1184.5,629.2L1184.5,629.2l9.9-59.4c7.7-46.3,7.4-94-1-140.2l-8.9-49.1h0c30.7,0,55.7,29.4,55.7,65.7v117.3   C1240.2,599.8,1215.2,629.2,1184.5,629.2z"/>
	<g>
		<path class="st3" d="M880.7,514.8H619c-5.7,0-10.3-4.6-10.3-10.3V368.7c0-5.7,4.6-10.3,10.3-10.3h261.7c5.7,0,10.3,4.6,10.3,10.3    v135.8C891,510.2,886.4,514.8,880.7,514.8z"/>
		<rect x="734.7" y="480.3" class="st3" width="30.3" height="73.6"/>
		<path class="st3" d="M820.3,577.4h-141v0c0-12.9,10.5-23.4,23.4-23.4h94.1C809.8,554,820.3,564.5,820.3,577.4L820.3,577.4z"/>
		<rect x="734.7" y="480.3" class="st9" width="30.3" height="73.6"/>
	</g>
	<path class="st3" d="M622.3,577.4h-48.5v0c0-11.3,9.1-20.4,20.4-20.4h7.7C613.2,557,622.3,566.1,622.3,577.4L622.3,577.4z"/>
	<rect x="492.8" y="589.1" class="st8" width="827.6" height="404.2"/>
	<rect x="474.3" y="577.4" class="st1" width="864.5" height="37.7"/>
</g>
</svg>